<?xml version="1.0" standalone="no"?>
<!DOCTYPE svg PUBLIC "-//W3C//DTD SVG 1.1//EN" "http://www.w3.org/Graphics/SVG/1.1/DTD/svg11.dtd" >
<svg>
<metadata>
Created by FontForge 20090622 at Mon Sep  4 09:32:23 2017
 By deploy user
HermanoMayor &#194;&#169; Levi Szekeres 1990-2015. All Rights Reserved.
</metadata>
<defs>
<font id="HermanoMayor" horiz-adv-x="1000" >
  <font-face 
    font-family="HermanoMayor"
    font-weight="400"
    font-stretch="normal"
    units-per-em="2048"
    panose-1="2 11 6 4 2 2 2 2 2 4"
    ascent="1638"
    descent="-410"
    x-height="1235"
    cap-height="1500"
    bbox="-170 -714 3045 2492"
    underline-thickness="150"
    underline-position="-142"
    unicode-range="U+0020-U+FD3F"
  />
<missing-glyph horiz-adv-x="1100" 
d="M138 1500h716q29 0 40 -35v-1427q-8 -38 -49 -38h-694q-36 0 -47 28q-4 7 -4 23v1400q0 41 38 49zM366 1235v-969h263v969h-263z" />
    <glyph glyph-name=".notdef" horiz-adv-x="1100" 
d="M138 1500h716q29 0 40 -35v-1427q-8 -38 -49 -38h-694q-36 0 -47 28q-4 7 -4 23v1400q0 41 38 49zM366 1235v-969h263v969h-263z" />
    <glyph glyph-name=".null" horiz-adv-x="0" 
 />
    <glyph glyph-name="nonmarkingreturn" horiz-adv-x="600" 
 />
    <glyph glyph-name="space" unicode=" " horiz-adv-x="500" 
 />
    <glyph glyph-name="space" unicode="&#xa0;" horiz-adv-x="500" 
 />
    <glyph glyph-name="exclam" unicode="!" horiz-adv-x="500" 
d="M138 1500h187q29 0 40 -35q1 -6 1 -12v-961q0 -36 -28 -47q-7 -4 -23 -4h-164q-36 0 -47 28q-4 8 -4 23v959q0 41 38 49zM154 266h164q32 0 44 -28q4 -7 4 -23v-161q0 -54 -54 -54h-161q-36 0 -47 28q-4 7 -4 23v161q0 54 54 54z" />
    <glyph glyph-name="quotedbl" unicode="&#x22;" 
d="M199 1850h173q33 0 45 -30q2 -5 2 -10v-9q-88 -335 -99 -368q-13 -25 -43 -25h-173q-40 0 -49 35q-2 7 -2 11t85 321q16 65 27 65q10 10 34 10zM640 1850h173q33 0 45 -30q2 -5 2 -10v-9q-88 -335 -98 -368q-14 -25 -44 -25h-173q-40 0 -49 35q-1 7 -1 11t84 321
q16 65 27 65q10 10 34 10z" />
    <glyph glyph-name="numbersign" unicode="#" horiz-adv-x="1350" 
d="M454 1500q23 0 36 -32q2 -6 2 -21v-299h264v305q0 32 28 45q5 2 13 2h186q24 0 36 -32q3 -5 3 -15v-305h122q40 0 51 -28q2 -5 2 -13v-183q0 -30 -35 -40q-11 -2 -18 -2h-122v-263h124q37 0 49 -28q2 -5 2 -13v-184q0 -29 -35 -40q-11 -1 -18 -1h-122v-306q0 -35 -36 -46
q-7 -1 -15 -1h-161q-54 0 -54 54v299h-264v-305q0 -32 -28 -44q-7 -4 -22 -4h-164q-38 0 -49 31q-3 11 -3 17v305h-122q-40 0 -50 28q-4 10 -4 20v167q0 51 54 51h122v263h-124q-38 0 -50 31q-2 9 -2 20v165q0 50 54 50h122v306q0 35 36 46h192zM492 882v-263h264v263h-264z
" />
    <glyph glyph-name="dollar" unicode="$" 
d="M352 1677h190q25 0 37 -35q2 -11 2 -18v-126q57 -9 99 -33q105 -57 148 -170q16 -50 16 -90v-108q-8 -38 -49 -38h-165q-35 0 -47 29q-4 7 -4 22v85q0 28 -31 40q-5 1 -10 1h-181q-28 0 -40 -32q-1 -5 -1 -9v-270q0 -28 32 -40q4 -1 9 -1h158q124 0 200 -58
q42 -28 81 -83q48 -82 48 -155v-291q0 -107 -89 -206q-64 -58 -125 -75q-24 -8 -49 -12v-129q0 -36 -29 -47q-7 -4 -22 -4h-161q-54 0 -54 54v126q-58 9 -103 34q-55 28 -104 93q-58 76 -58 200v58q0 54 54 54h161q36 0 47 -28q4 -8 4 -23v-84q0 -29 32 -40q4 -2 9 -2h181
q28 0 40 32q1 5 1 10v269q0 28 -31 40q-5 1 -10 1h-157q-119 0 -192 52q-88 55 -126 171q-13 38 -13 108v222q0 124 58 200q59 83 160 117q19 5 47 10v130q0 41 37 49z" />
    <glyph glyph-name="percent" unicode="%" horiz-adv-x="2250" 
d="M346 1500h203q99 0 193 -78q46 -45 63 -78q40 -68 40 -173v-135q0 -118 -52 -191q-55 -88 -170 -126q-39 -13 -108 -13h-134q-119 0 -192 52q-88 55 -126 170q-13 39 -13 108v135q0 124 58 200q28 42 83 81q82 48 155 48zM1139 1500h198q22 0 35 -31q1 -1 2 -13
q0 -3 -164 -697q-5 -18 -174 -731q-15 -28 -45 -28h-175q-40 0 -50 35q-1 7 -1 11q6 28 261 1102l79 327q16 25 34 25zM316 1194v-181q0 -28 32 -40q4 -1 9 -1h181q28 0 40 32q1 4 1 9v181q0 28 -31 40q-5 1 -10 1h-181q-28 0 -40 -31q-1 -5 -1 -10zM1616 795h134
q124 0 200 -57q42 -29 81 -84q48 -82 48 -155v-203q0 -99 -78 -192q-45 -47 -78 -64q-68 -40 -173 -40h-134q-119 0 -192 52q-88 55 -126 170q-13 39 -13 109v134q0 118 52 191q55 88 170 126q40 13 109 13zM1551 488v-181q0 -28 32 -40q4 -1 9 -1h181q28 0 40 32q1 4 1 9
v181q0 28 -31 40q-5 1 -10 1h-181q-28 0 -40 -31q-1 -5 -1 -10z" />
    <glyph glyph-name="ampersand" unicode="&#x26;" 
d="M346 1500h203q111 0 211 -95q84 -98 84 -200v-109q-8 -37 -49 -37h-165q-35 0 -47 28q-4 7 -4 22v85q0 28 -31 40q-5 1 -10 1h-181q-28 0 -40 -31q-1 -5 -1 -10v-269q0 -28 32 -40q4 -1 9 -1h169q55 0 55 -55v-161q0 -35 -29 -47q-7 -3 -22 -3h-173q-28 0 -40 -32
q-1 -5 -1 -10v-269q0 -28 32 -40q4 -1 9 -1h222v126q0 35 29 47q7 3 22 3h163q44 0 51 -38v-366q0 -23 -31 -36q-5 -2 -15 -2h-417q-119 0 -192 52q-88 55 -126 170q-13 39 -13 109v222q0 122 55 196v2q-39 61 -47 109q-8 27 -8 88v223q0 124 58 200q28 42 83 81
q82 48 155 48z" />
    <glyph glyph-name="quotesingle" unicode="'" horiz-adv-x="450" 
d="M338 1891q35 -12 35 -42q-1 -14 -99 -372q-11 -27 -47 -27h-173q-11 0 -19 4q-28 14 -28 36v9q0 3 95 358q11 35 47 35h173q8 0 16 -1z" />
    <glyph glyph-name="parenleft" unicode="(" horiz-adv-x="550" 
d="M347 1765h16q29 0 40 -35v-192q0 -22 -31 -35q-43 -6 -43 -16q-13 -10 -13 -28v-1417q0 -28 32 -40q42 0 54 -32l1 -7v-190q0 -23 -33 -37q-3 0 -9 -1q-148 0 -247 122q-28 39 -43 75q-21 52 -21 134v1369q0 125 58 201q28 42 83 81q82 48 156 48z" />
    <glyph glyph-name="parenright" unicode=")" horiz-adv-x="550" 
d="M262 1717q55 -39 83 -81q58 -76 58 -201v-1369q0 -82 -21 -134q-15 -36 -43 -75q-99 -122 -247 -122q-6 1 -9 1q-33 14 -33 37v190l1 7q12 32 54 32q32 12 32 40v1417q0 18 -13 28q0 10 -43 16q-31 13 -31 35v192q11 35 40 35h16q74 0 156 -48z" />
    <glyph glyph-name="asterisk" unicode="*" horiz-adv-x="1150" 
d="M419 1500h190q21 0 35 -28q2 -5 2 -13v-232q224 73 231 73h2q31 0 43 -34q56 -171 56 -178q0 -31 -35 -44q-2 0 -214 -70v-1q141 -190 141 -197q2 -8 2 -14q0 -30 -48 -56q-120 -91 -129 -91q-6 -1 -12 -1q-27 0 -55 48l-114 156q-136 -187 -143 -194q-14 -10 -28 -10
q-18 0 -53 28q-117 84 -127 94q-7 15 -7 24v5q0 19 35 60l107 149q0 1 -1 1q-190 60 -228 76q-19 16 -19 36q0 12 44 140q17 64 29 64q0 5 26 9q11 0 169 -53l63 -20v222q0 37 28 49q7 2 10 2z" />
    <glyph glyph-name="plus" unicode="+" horiz-adv-x="1200" 
d="M455 1236h164q36 0 47 -28q4 -7 4 -22v-302h299q54 0 54 -55v-161q0 -35 -28 -47q-8 -3 -23 -3h-302v-303q0 -35 -28 -47q-8 -3 -23 -3h-164q-36 0 -48 28q-3 7 -3 22v303h-299q-54 0 -54 54v161q0 35 28 47q7 4 23 4h302v302q0 35 28 47q7 3 23 3z" />
    <glyph glyph-name="comma" unicode="," horiz-adv-x="551" 
d="M348 199q35 -12 35 -42q-1 -14 -99 -372q-11 -27 -47 -27h-173q-11 0 -19 4q-28 14 -28 36v9q0 3 95 358q11 35 47 35h173q8 0 16 -1z" />
    <glyph glyph-name="hyphen" unicode="-" horiz-adv-x="801" 
d="M100 884h507q42 0 51 -36q1 -4 1 -9v-178q0 -29 -32 -41q-5 -2 -15 -2h-506q-44 0 -52 35q-1 1 -1 8v180q0 28 32 40q5 3 15 3z" />
    <glyph glyph-name="hyphen" unicode="&#xad;" horiz-adv-x="801" 
d="M100 884h507q42 0 51 -36q1 -4 1 -9v-178q0 -29 -32 -41q-5 -2 -15 -2h-506q-44 0 -52 35q-1 1 -1 8v180q0 28 32 40q5 3 15 3z" />
    <glyph glyph-name="period" unicode="." horiz-adv-x="450" 
d="M97 266h167q41 0 50 -35q1 -2 1 -9v-178q0 -30 -34 -43q-10 -1 -17 -1h-167q-35 0 -47 35v189q0 27 32 40q5 2 15 2z" />
    <glyph glyph-name="slash" unicode="/" horiz-adv-x="750" 
d="M374 1500h198q9 0 24 -12q12 -14 12 -28v-8q0 -5 -285 -1203q-49 -208 -55 -225q-15 -24 -42 -24h-175q-37 0 -49 31q-2 11 -2 14q0 4 131 554l209 876q15 25 34 25z" />
    <glyph glyph-name="zero" unicode="0" 
d="M346 1500h203q111 0 211 -95q84 -98 84 -200v-909q0 -99 -78 -192q-45 -47 -78 -64q-68 -40 -173 -40h-134q-119 0 -192 52q-88 55 -126 170q-13 39 -13 109v840q0 124 58 200q28 42 83 81q82 48 155 48zM316 1194v-887q0 -28 32 -40q4 -1 9 -1h181q28 0 40 32q1 4 1 9
v887q0 28 -31 40q-5 1 -10 1h-181q-28 0 -40 -31q-1 -5 -1 -10z" />
    <glyph glyph-name="one" unicode="1" horiz-adv-x="750" 
d="M102 1498h338q37 0 49 -31q2 -11 2 -17v-1185h128q38 0 47 -37q1 -5 1 -11v-167q0 -35 -28 -46q-7 -4 -22 -4h-517q-35 0 -46 28q-4 7 -4 22v165q0 41 38 49q4 1 10 1h128v967h-129q-35 0 -46 36q-1 7 -1 15v167q0 31 28 44q10 4 24 4z" />
    <glyph glyph-name="two" unicode="2" 
d="M347 1497h202q98 0 192 -77q47 -46 64 -79q39 -67 39 -173v-309q0 -113 -45 -182q-55 -94 -179 -137q-39 -11 -115 -11h-151q-21 0 -35 -28q-3 -5 -3 -13v-222h482q35 0 45 -35q1 -8 1 -16v-160q0 -39 -28 -51q-8 -2 -14 -2h-692q-7 0 -17 -1q-22 0 -37 25q-5 10 -5 23
v415q0 129 62 206q51 75 162 112q41 12 105 12h158q28 0 40 32q1 4 1 9v357q0 28 -31 40q-5 1 -10 1h-181q-28 0 -40 -32q-1 -4 -1 -9v-87q0 -38 -37 -47q-5 -1 -11 -1h-169q-32 0 -44 28q-4 7 -4 22v61q0 124 58 200q28 42 83 81q82 48 155 48z" />
    <glyph glyph-name="three" unicode="3" 
d="M345 1500h202q111 0 211 -95q83 -97 83 -200v-290q0 -78 -54 -163q54 -84 54 -163v-290q0 -112 -96 -212q-80 -67 -155 -78q-16 -3 -52 -5q-16 1 -28 1h-131q-11 0 -24 -1q-122 0 -223 97q-66 78 -77 155q-6 25 -6 77v58q0 54 52 54h166q35 0 46 -35q1 -8 1 -16v-84
q0 -29 35 -41h189q22 0 37 28q2 5 2 13v269q0 28 -34 41h-170q-47 0 -55 27q-4 0 -5 27v161q0 35 28 46q7 4 23 4h172q28 0 40 32q1 4 1 9v269q0 28 -31 40q-5 1 -10 1h-181q-28 0 -40 -32q-1 -4 -1 -9v-87q0 -38 -37 -47q-5 -1 -11 -1h-169q-32 0 -44 28q-4 7 -4 22v61
q0 124 58 200q28 42 83 81q82 48 155 48z" />
    <glyph glyph-name="four" unicode="4" 
d="M89 1500h189q37 -8 37 -49v-701q0 -29 35 -41h228v741q0 31 28 44q11 4 24 4h162q38 0 49 -31q2 -11 2 -17v-1400q0 -35 -28 -46q-7 -4 -22 -4h-164q-36 0 -47 28q-4 7 -4 22v394q-76 1 -111 1h-84q-11 0 -27 -1q-130 0 -232 108q-51 60 -68 143q-6 27 -6 78v674
q0 38 27 51q9 2 12 2z" />
    <glyph glyph-name="five" unicode="5" 
d="M91 1498q12 -2 18 -2h692q29 0 41 -34q1 -12 1 -18v-161q0 -36 -28 -47q-7 -4 -19 -4h-481v-263h189q113 0 167 -32q108 -52 155 -173q17 -49 17 -124v-310q0 -118 -51 -192q-55 -87 -170 -125q-39 -13 -108 -13h-134q-118 0 -191 52q-88 55 -126 170q-13 38 -13 108v61
q0 41 38 49q4 1 10 1h169q38 0 47 -37q1 -5 1 -11v-87q0 -28 32 -40q5 -1 9 -1h181q28 0 40 32q1 4 1 9v357q0 29 -35 41h-441q-52 0 -52 54v692q0 31 28 44q13 3 13 4z" />
    <glyph glyph-name="six" unicode="6" 
d="M355 1498q95 5 183 0q117 0 215 -90q90 -98 90 -206v-19q0 -24 -31 -36q-6 -3 -16 -3h-170q-35 0 -46 36q0 37 -28 50q-9 2 -12 2h-185q-22 0 -36 -28q-3 -4 -3 -13v-222h189q108 0 163 -30q38 -15 93 -67q82 -97 82 -198v-378q0 -99 -77 -193q-46 -46 -79 -63
q-67 -40 -172 -40h-134q-118 0 -191 52q-88 55 -126 170q-13 38 -13 108v838q0 115 49 188q53 86 168 128q54 14 87 14zM316 704v-398q0 -28 32 -40q5 -1 9 -1h181q28 0 40 32q1 4 1 9v357q0 29 -35 41h-228z" />
    <glyph glyph-name="seven" unicode="7" 
d="M800 1498q42 -9 42 -40q1 0 1 -11v-501q0 -129 -62 -205q-50 -75 -162 -113q-55 -13 -98 -13q-30 -14 -30 -40v-525q0 -35 -28 -46q-7 -4 -22 -4h-161q-54 0 -54 54v498q0 129 62 205q43 56 99 87q65 30 88 30q10 5 74 9q29 14 29 40v309h-481q-35 0 -46 36q-1 7 -1 15
v163q0 38 28 50q8 2 14 2h247h461z" />
    <glyph glyph-name="eight" unicode="8" 
d="M347 1500h202q98 0 192 -77q47 -46 64 -79q39 -67 39 -173v-221q0 -122 -55 -196v-2q32 -46 47 -106q8 -33 8 -91v-222q0 -115 -49 -187q-53 -87 -168 -128q-54 -14 -87 -14q-16 1 -28 1h-131q-11 0 -24 -1q-123 0 -223 97q-66 78 -77 155q-6 25 -6 77v222q0 122 55 196
v1q-39 62 -48 115q-7 24 -7 83v221q0 124 58 200q28 42 83 81q82 48 155 48zM316 1195v-269q0 -27 32 -40q5 -1 9 -1h181q28 0 40 32q1 4 1 9v269q0 28 -32 40q-4 1 -9 1h-181q-28 0 -40 -32q-1 -4 -1 -9zM316 579v-269q0 -29 35 -41h189q22 0 37 28q2 5 2 13v269
q0 28 -34 41h-191q-21 0 -35 -28q-3 -5 -3 -13z" />
    <glyph glyph-name="nine" unicode="9" 
d="M357 1498q94 5 183 0q117 0 215 -90q90 -98 90 -206v-906q0 -99 -77 -193q-46 -46 -79 -63q-67 -40 -172 -40h-134q-116 0 -188 49q-89 58 -127 165q-15 51 -15 94q0 36 40 44q4 1 14 1h163q39 0 48 -40q0 -34 27 -45q8 -3 14 -3h181q28 0 40 32q1 4 1 9v222h-199
q-128 0 -207 64q-78 58 -109 158q-13 38 -13 108v310q0 115 49 188q53 86 168 128q54 14 87 14zM318 1191v-356q0 -29 32 -40q5 -2 9 -2h222v398q0 30 -35 41h-189q-22 0 -36 -28q-3 -4 -3 -13z" />
    <glyph glyph-name="colon" unicode=":" horiz-adv-x="450" 
d="M97 266h167q41 0 50 -35q1 -2 1 -9v-178q0 -30 -34 -43q-10 -1 -17 -1h-167q-35 0 -47 35v189q0 27 32 40q5 2 15 2zM97 1065h167q41 0 50 -35q1 -2 1 -8v-179q0 -30 -34 -43q-10 -1 -17 -1h-167q-35 0 -47 36v188q0 28 32 40q5 2 15 2z" />
    <glyph glyph-name="semicolon" unicode=";" horiz-adv-x="450" 
d="M288 199q35 -12 35 -42q-1 -14 -99 -372q-11 -27 -47 -27h-173q-11 0 -19 4q-28 14 -28 36v9q0 3 95 358q11 35 47 35h173q8 0 16 -1zM97 1065h167q41 0 50 -35q1 -2 1 -8v-179q0 -30 -34 -43q-10 -1 -17 -1h-167q-35 0 -47 36v188q0 28 32 40q5 2 15 2z" />
    <glyph glyph-name="semicolon" unicode="&#x37e;" horiz-adv-x="450" 
d="M288 199q35 -12 35 -42q-1 -14 -99 -372q-11 -27 -47 -27h-173q-11 0 -19 4q-28 14 -28 36v9q0 3 95 358q11 35 47 35h173q8 0 16 -1zM97 1065h167q41 0 50 -35q1 -2 1 -8v-179q0 -30 -34 -43q-10 -1 -17 -1h-167q-35 0 -47 36v188q0 28 32 40q5 2 15 2z" />
    <glyph glyph-name="less" unicode="&#x3c;" horiz-adv-x="850" 
d="M429 1151h254q29 0 41 -35v-16q0 -17 -46 -58l-273 -274q310 -307 316 -316q3 -11 3 -14v-13q0 -23 -31 -37q-5 -1 -10 -1h-254q-23 0 -59 42q-316 315 -316 318q-5 14 -5 21v1q0 25 38 56q313 315 320 319q9 7 22 7z" />
    <glyph glyph-name="equal" unicode="=" horiz-adv-x="1200" 
d="M99 1070h872q42 0 50 -35q2 -5 2 -10v-177q0 -30 -32 -42q-5 -2 -15 -2h-871q-44 0 -52 35q-1 2 -1 9v180q0 27 32 40q5 2 15 2zM99 599h872q42 0 50 -35q2 -5 2 -10v-178q0 -29 -32 -41q-5 -2 -15 -2h-871q-44 0 -52 35q-1 2 -1 8v180q0 28 32 40q5 3 15 3z" />
    <glyph glyph-name="greater" unicode="&#x3e;" horiz-adv-x="850" 
d="M367 1144q7 -4 320 -319q37 -31 37 -56v-1q0 -7 -4 -21q0 -3 -317 -318q-36 -42 -59 -42h-254q-5 0 -9 1q-32 14 -32 37v13q0 3 4 14q5 9 315 316l-273 274q-46 41 -46 58v16q13 35 41 35h254q13 0 23 -7z" />
    <glyph glyph-name="question" unicode="?" 
d="M345 1500h203q111 0 212 -95q83 -98 83 -200v-291q0 -106 -88 -205q-94 -91 -230 -91q-34 -13 -34 -42v-84q0 -36 -28 -47q-7 -4 -22 -4h-164q-52 0 -52 54v58q0 129 63 206q54 79 168 114q21 7 89 12q19 0 32 30q1 5 1 10v269q0 28 -31 40q-5 1 -10 1h-181
q-28 0 -40 -31q-1 -5 -1 -10v-85q0 -35 -28 -47q-7 -3 -23 -3h-161q-54 0 -54 54v58q0 124 58 200q28 42 83 81q82 48 155 48zM280 266h163q32 0 45 -28q3 -7 3 -23v-161q0 -54 -54 -54h-161q-35 0 -47 28q-4 7 -4 23v161q0 54 55 54z" />
    <glyph glyph-name="at" unicode="@" horiz-adv-x="1450" 
d="M347 1496h644q111 0 211 -95q84 -98 84 -200v-1167q0 -25 -35 -38l-14 -1q-298 1 -424 1l-14 -1q-101 0 -195 71q-66 62 -82 107q-31 56 -31 153v308q0 119 48 186q93 147 276 147h206v223q0 28 -32 40q-4 1 -9 1h-623q-28 0 -40 -32q-1 -4 -1 -9v-1333q0 -28 32 -40
q4 -1 9 -1h872q42 0 55 -27q2 -9 2 -12v-186q0 -29 -35 -40q-6 -1 -14 -1h-856q-119 0 -192 52q-88 55 -127 173q-12 41 -12 106v1285q0 125 58 201q28 42 83 81q82 48 156 48zM757 660v-360q0 -25 33 -38q5 -1 10 -1h221v440h-226q-38 -9 -38 -41z" />
    <glyph glyph-name="A" unicode="A" 
d="M346 1500h203q111 0 211 -95q84 -98 84 -200v-1166q0 -25 -35 -38q-11 -1 -18 -1h-161q-35 0 -47 28q-4 7 -4 23v478h-263v-475q0 -54 -54 -54h-161q-36 0 -47 28q-4 7 -4 23v1120q0 124 58 200q28 42 83 81q82 48 155 48zM316 1194v-399h263v399q0 28 -31 40q-5 1 -10 1
h-181q-28 0 -40 -31q-1 -5 -1 -10z" />
    <glyph glyph-name="B" unicode="B" 
d="M549 1500q111 0 211 -95q84 -98 84 -200v-379q0 -79 -54 -164q54 -84 54 -163v-203q0 -99 -78 -192q-45 -47 -78 -64q-68 -40 -173 -40h-411q-54 0 -54 54v1400q0 35 35 46h464zM316 1235v-440h222q28 0 40 32q1 5 1 9v358q0 28 -31 40q-5 1 -10 1h-222zM316 529v-263
h222q28 0 40 32q1 4 1 9v181q0 28 -31 40q-5 1 -10 1h-222z" />
    <glyph glyph-name="C" unicode="C" 
d="M346 1500h203q111 0 211 -95q84 -98 84 -200v-197q-8 -37 -49 -37h-165q-35 0 -47 28q-4 7 -4 22v173q0 28 -31 40q-5 1 -10 1h-181q-28 0 -40 -31q-1 -5 -1 -10v-887q0 -28 32 -40q4 -1 9 -1h181q28 0 40 32q1 4 1 9v173q0 35 29 47q7 4 22 4h167q38 0 47 -38v-197
q0 -99 -78 -192q-45 -47 -78 -64q-68 -40 -173 -40h-134q-119 0 -192 52q-88 55 -126 170q-13 39 -13 109v840q0 124 58 200q28 42 83 81q82 48 155 48z" />
    <glyph glyph-name="D" unicode="D" 
d="M549 1500q111 0 211 -95q84 -98 84 -200v-909q0 -99 -78 -192q-45 -47 -78 -64q-68 -40 -173 -40h-411q-54 0 -54 54v1400q0 35 35 46h464zM316 1235v-969h222q28 0 40 32q1 4 1 9v887q0 28 -31 40q-5 1 -10 1h-222z" />
    <glyph glyph-name="E" unicode="E" horiz-adv-x="800" 
d="M628 1500q29 0 40 -35v-191q0 -25 -35 -38q-11 -1 -18 -1h-299v-440h217q32 0 44 -28q4 -7 4 -22v-161q0 -55 -54 -55h-211v-263h305q38 0 47 -38v-189q0 -25 -35 -38q-11 -1 -18 -1h-518q-47 5 -47 47v1407q0 35 35 46h543z" />
    <glyph glyph-name="F" unicode="F" horiz-adv-x="775" 
d="M628 1500q29 0 40 -35v-191q0 -25 -35 -38q-11 -1 -18 -1h-299v-440h217q32 0 44 -28q4 -7 4 -22v-161q0 -55 -54 -55h-211v-478q0 -36 -28 -47q-7 -4 -23 -4h-161q-54 0 -54 54v1400q0 35 35 46h543z" />
    <glyph glyph-name="G" unicode="G" 
d="M346 1500h203q111 0 211 -95q84 -98 84 -200v-197q-8 -37 -49 -37h-165q-35 0 -47 28q-4 7 -4 22v173q0 28 -31 40q-5 1 -10 1h-181q-28 0 -40 -31q-1 -5 -1 -10v-887q0 -28 32 -40q4 -1 9 -1h181q28 0 40 32q1 4 1 9v222h-126q-35 0 -47 29q-3 7 -3 22v165q0 35 28 47
q7 3 22 3h344q38 0 47 -37v-462q0 -99 -78 -192q-45 -47 -78 -64q-68 -40 -173 -40h-134q-119 0 -192 52q-88 55 -126 170q-13 39 -13 109v840q0 124 58 200q28 42 83 81q82 48 155 48z" />
    <glyph glyph-name="H" unicode="H" 
d="M87 1500h189q25 0 37 -35q2 -11 2 -18v-652h262v656q0 41 37 49h189q25 0 37 -35v-1427q-8 -38 -49 -38h-160q-54 0 -54 54v475h-262v-478q0 -36 -29 -47q-7 -4 -22 -4h-160q-54 0 -54 54v1397q0 41 37 49z" />
    <glyph glyph-name="I" unicode="I" horiz-adv-x="500" 
d="M88 1500h189q26 0 38 -35v-1427q-8 -38 -49 -38h-162q-54 0 -54 54v1397q0 41 38 49z" />
    <glyph glyph-name="J" unicode="J" horiz-adv-x="550" 
d="M151 1500h189q26 0 38 -35v-1169q0 -113 -98 -214q-95 -82 -211 -82q-43 9 -43 40q-1 0 -1 11v164q0 37 31 49q44 4 44 15q13 10 13 28v1144q0 41 38 49z" />
    <glyph glyph-name="K" unicode="K" horiz-adv-x="970" 
d="M88 1500h189q39 -7 39 -51v-536h1q325 567 332 574q14 13 25 13h217q21 0 35 -28q2 -5 2 -13v-5q0 -15 -27 -56q-354 -615 -363 -632v-1q392 -678 407 -707q1 -2 1 -6v-14q-8 -38 -49 -38h-191q-38 0 -52 33l-337 586h-1v-572q0 -35 -36 -46q-7 -1 -15 -1h-161
q-54 0 -54 54v1397q0 41 38 49z" />
    <glyph glyph-name="L" unicode="L" horiz-adv-x="734" 
d="M88 1500h189q25 0 38 -35q1 -11 1 -18v-1181h305q38 0 47 -38v-189q0 -25 -35 -38q-11 -1 -18 -1h-518q-47 5 -47 47v1404q0 41 38 49z" />
    <glyph glyph-name="M" unicode="M" horiz-adv-x="1350" 
d="M294 1500q28 0 48 -59q3 -4 281 -642h2q288 659 299 682q15 19 31 19h202q29 0 40 -35v-1427q-8 -38 -49 -38h-162q-54 0 -54 54v785h-1q-167 -385 -175 -400q-16 -17 -34 -17h-193q-35 0 -48 43q-162 366 -164 374h-1v-788q0 -36 -28 -47q-7 -4 -23 -4h-161
q-54 0 -54 54v1400q0 35 35 46h209z" />
    <glyph glyph-name="N" unicode="N" horiz-adv-x="1100" 
d="M283 1500q29 0 47 -56q4 -4 336 -785h1v788q0 38 27 51q10 2 12 2h188q26 0 38 -35v-1427q-8 -38 -49 -38h-167q-40 0 -53 48q-6 12 -346 791h-1v-788q0 -36 -28 -47q-8 -4 -23 -4h-161q-54 0 -54 54v1400q0 35 35 46h198z" />
    <glyph glyph-name="O" unicode="O" 
d="M346 1500h203q111 0 211 -95q84 -98 84 -200v-909q0 -99 -78 -192q-45 -47 -78 -64q-68 -40 -173 -40h-134q-119 0 -192 52q-88 55 -126 170q-13 39 -13 109v840q0 124 58 200q28 42 83 81q82 48 155 48zM316 1194v-887q0 -28 32 -40q4 -1 9 -1h181q28 0 40 32q1 4 1 9
v887q0 28 -31 40q-5 1 -10 1h-181q-28 0 -40 -31q-1 -5 -1 -10z" />
    <glyph glyph-name="P" unicode="P" horiz-adv-x="950" 
d="M89 1500h460q111 0 211 -95q84 -98 84 -200v-467q0 -99 -78 -193q-45 -47 -78 -64q-68 -40 -173 -40h-199v-387q0 -54 -54 -54h-161q-36 0 -47 28q-4 7 -4 23v1396q0 38 27 51q10 2 12 2zM316 1235v-528h222q28 0 40 32q1 4 1 9v446q0 28 -31 40q-5 1 -10 1h-222z" />
    <glyph glyph-name="Q" unicode="Q" 
d="M346 1503h203q111 0 211 -95q84 -98 84 -200v-909q0 -107 -89 -205q-64 -59 -125 -76q-24 -8 -49 -12v-49q0 -28 31 -40q5 -1 10 -1h175q38 0 47 -38v-190q-8 -38 -49 -38h-150q-118 0 -192 52q-87 55 -125 170q-13 39 -13 109v25q-58 10 -103 35q-55 27 -104 93
q-58 75 -58 200v840q0 124 58 200q28 42 83 81q82 48 155 48zM316 1197v-887q0 -28 32 -40q4 -1 9 -1h181q28 0 40 32q1 4 1 9v887q0 28 -31 40q-5 1 -10 1h-181q-28 0 -40 -31q-1 -5 -1 -10z" />
    <glyph glyph-name="R" unicode="R" 
d="M89 1500h460q111 0 211 -95q84 -98 84 -200v-467q0 -79 -54 -164q54 -84 54 -163v-373q-8 -38 -49 -38h-165q-35 0 -47 28q-4 7 -4 23v349q0 28 -31 40q-5 1 -10 1h-222v-387q0 -54 -54 -54h-161q-36 0 -47 28q-4 7 -4 23v1396q0 38 27 51q10 2 12 2zM316 1235v-528h222
q28 0 40 32q1 4 1 9v446q0 28 -31 40q-5 1 -10 1h-222z" />
    <glyph glyph-name="S" unicode="S" 
d="M346 1500h203q111 0 211 -95q84 -98 84 -200v-109q-8 -37 -49 -37h-165q-35 0 -47 28q-4 7 -4 22v85q0 28 -31 40q-5 1 -10 1h-181q-28 0 -40 -31q-1 -5 -1 -10v-269q0 -28 32 -40q4 -1 9 -1h158q124 0 200 -58q42 -29 81 -84q48 -82 48 -155v-291q0 -99 -78 -192
q-45 -47 -78 -64q-68 -40 -173 -40h-134q-119 0 -192 52q-88 55 -126 170q-13 39 -13 109v57q0 54 54 54h161q36 0 47 -28q4 -7 4 -22v-85q0 -28 32 -40q4 -1 9 -1h181q28 0 40 32q1 4 1 9v269q0 29 -31 40q-5 2 -10 2h-157q-119 0 -192 51q-88 56 -126 171q-13 38 -13 108
v223q0 124 58 200q28 42 83 81q82 48 155 48z" />
    <glyph glyph-name="T" unicode="T" horiz-adv-x="850" 
d="M38 1500h718q26 0 38 -35v-192q-8 -38 -49 -38h-214v-1181q0 -54 -55 -54h-161q-35 0 -47 28q-3 7 -3 23v1184h-211q-54 0 -54 54v162q0 41 38 49z" />
    <glyph glyph-name="U" unicode="U" 
d="M89 1500h189q38 -8 38 -49v-1144q0 -28 32 -40q4 -1 9 -1h181q28 0 40 32q1 4 1 9v1144q0 41 38 49h187q29 0 40 -35v-1169q0 -99 -78 -192q-45 -47 -78 -64q-68 -40 -173 -40h-134q-119 0 -192 52q-88 55 -126 170q-13 39 -13 109v1116q0 38 27 51q10 2 12 2z" />
    <glyph glyph-name="V" unicode="V" 
d="M41 1500h194q23 0 37 -33q198 -838 198 -841h3q190 809 202 852q17 22 33 22h194q29 0 40 -35v-13q0 -6 -262 -1111q-71 -296 -77 -317q-15 -24 -42 -24h-179q-35 0 -46 35q-332 1400 -336 1421q7 44 41 44z" />
    <glyph glyph-name="W" unicode="W" horiz-adv-x="1669" 
d="M235 1500q24 0 37 -33q200 -839 200 -842h1q199 840 203 853q16 22 33 22h198q36 0 46 -75q2 -5 190 -800h1q195 826 204 853q16 22 33 22h196q26 0 38 -35v-13q0 -6 -276 -1168l-63 -259q-15 -25 -43 -25h-179q-43 0 -51 56q-194 816 -194 819h-2l-187 -791
q-15 -66 -24 -70q-13 -14 -34 -14h-179q-33 0 -45 32l-337 1414l-1 10q0 33 36 44h199z" />
    <glyph glyph-name="X" unicode="X" horiz-adv-x="874" 
d="M49 1500h200q30 0 46 -59q1 -1 109 -301h1q118 328 125 341q16 19 30 19h198q29 0 40 -35v-16q-1 -8 -253 -698q233 -639 253 -699v-13q0 -26 -35 -38q-8 -1 -16 -1h-177q-35 0 -47 35l-118 326h-1q-118 -327 -125 -341q-13 -20 -43 -20h-175q-37 0 -49 31q-2 11 -2 14
q0 10 35 103l219 603q-238 651 -253 698q0 1 -1 7q0 34 39 44z" />
    <glyph glyph-name="Y" unicode="Y" horiz-adv-x="930" 
d="M51 1500h196q34 0 47 -55q6 -12 160 -432h2l173 467q16 20 32 20h201q23 0 37 -33v-14q0 -10 -40 -114q-271 -733 -271 -735v-557q0 -35 -35 -46q-8 -1 -15 -1h-168q-33 0 -46 32q-2 10 -2 28v543q-6 20 -266 723q-46 120 -46 130v2q8 42 41 42z" />
    <glyph glyph-name="Z" unicode="Z" horiz-adv-x="947" 
d="M88 1500h718q26 0 38 -35v-192q0 -7 -64 -137q-409 -849 -418 -870h429q38 0 51 -27q2 -10 2 -12v-189q-8 -38 -49 -38h-691q-54 0 -54 54v165q0 17 25 62l458 954h-429q-54 0 -54 54v162q0 41 38 49z" />
    <glyph glyph-name="bracketleft" unicode="[" horiz-adv-x="600" 
d="M491 1712v-165q0 -15 -4 -22q-11 -29 -47 -29h-125v-1498h125q16 0 23 -4q28 -11 28 -47v-164q0 -16 -4 -23q-11 -28 -47 -28h-341q-41 0 -49 38v1956q12 35 38 35h365q38 -8 38 -49z" />
    <glyph glyph-name="backslash" unicode="\" horiz-adv-x="700" 
d="M268 1475l209 -876q131 -550 131 -554q0 -3 -2 -14q-12 -31 -49 -31h-175q-27 0 -42 24q-6 17 -55 225q-285 1198 -285 1203v8q0 14 12 28q15 12 24 12h198q19 0 34 -25z" />
    <glyph glyph-name="bracketright" unicode="]" horiz-adv-x="650" 
d="M88 1761h365q26 0 38 -35v-1956q-8 -38 -49 -38h-341q-36 0 -47 28q-4 7 -4 23v164q0 36 28 47q7 4 23 4h125v1498h-125q-36 0 -47 29q-4 7 -4 22v165q0 41 38 49z" />
    <glyph glyph-name="asciicircum" unicode="^" horiz-adv-x="700" 
d="M351 1860q15 0 70 -36q238 -135 267 -155q12 -16 12 -32q0 -15 -39 -76q-56 -100 -63 -108q-15 -11 -31 -12q-14 0 -66 32q-138 80 -152 87q-187 -109 -204 -117q-9 -1 -12 -2q-32 0 -51 44q-82 137 -82 148v7q0 30 46 50q278 162 290 167q10 3 15 3z" />
    <glyph glyph-name="underscore" unicode="_" horiz-adv-x="1378" 
d="M88 0h1075q29 0 40 -35v-193q-8 -38 -50 -38h-1052q-36 0 -47 28q-4 8 -4 23v165q0 42 38 50z" />
    <glyph glyph-name="grave" unicode="`" horiz-adv-x="400" 
d="M68 1892h173q36 0 47 -35q95 -355 95 -358v-9q0 -22 -28 -36q-8 -4 -19 -4h-173q-36 0 -47 27q-98 358 -99 372q0 30 35 42q8 1 16 1z" />
    <glyph glyph-name="a" unicode="a" horiz-adv-x="1024" 
d="M381 1236h134q118 0 191 -51q88 -56 126 -171q13 -40 13 -108v-858q0 -38 -37 -47q-5 -1 -11 -1h-416q-119 0 -192 52q-88 55 -126 170q-13 39 -13 109v134q0 118 52 191q55 88 170 126q40 13 109 13h198v134q0 29 -31 40q-5 2 -10 2h-181q-28 0 -40 -32q0 -57 -52 -57
h-163q-36 0 -48 29q-3 7 -4 17q0 131 105 231q68 57 141 70q29 7 85 7zM316 488v-181q0 -28 32 -40q4 -1 9 -1h222v263h-222q-28 0 -40 -31q-1 -5 -1 -10z" />
    <glyph glyph-name="b" unicode="b" 
d="M318 1451v-215h199q68 0 108 -12q115 -39 171 -126q51 -74 51 -192v-575q0 -70 -13 -109q-38 -115 -126 -170q-73 -52 -191 -52h-418q-42 0 -47 47v1406q0 6 1 12q11 35 40 35h187q38 -8 38 -49zM580 939q-12 32 -40 32h-222v-705h222q5 0 10 1q31 12 31 40v622
q0 5 -1 10z" />
    <glyph glyph-name="c" unicode="c" 
d="M381 1236h134q118 0 191 -51q88 -56 126 -171q13 -40 13 -108v-61q0 -36 -28 -47q-7 -4 -22 -4h-165q-35 0 -47 28q-4 7 -4 23v84q0 29 -31 40q-5 2 -10 2h-181q-28 0 -40 -32q-1 -5 -1 -10v-622q0 -28 32 -40q4 -1 9 -1h181q28 0 40 32q1 4 1 9v85q0 35 29 47q7 3 22 3
h167q32 0 45 -28q3 -7 3 -22v-61q0 -119 -51 -192q-56 -88 -171 -126q-39 -13 -108 -13h-134q-119 0 -192 52q-88 55 -126 170q-13 39 -13 109v575q0 118 52 192q55 87 170 126q40 12 109 12z" />
    <glyph glyph-name="d" unicode="d" 
d="M619 1500h187q30 0 40 -35q1 -6 1 -12v-1406q-5 -47 -47 -47h-417q-119 0 -192 52q-88 55 -126 170q-13 39 -13 109v575q0 118 52 192q55 87 170 126q40 12 109 12h198v215q0 41 38 49zM318 929v-622q0 -28 32 -40q4 -1 9 -1h222v705h-222q-28 0 -40 -32q-1 -5 -1 -10z
" />
    <glyph glyph-name="e" unicode="e" 
d="M381 1236h134q124 0 200 -57q42 -29 81 -84q48 -82 48 -155v-202q0 -99 -78 -193q-45 -47 -78 -64q-68 -40 -173 -40h-199v-134q0 -28 32 -40q4 -1 9 -1h181q28 0 40 32q0 56 52 56h161q38 0 51 -27q2 -9 2 -12v-19q0 -99 -78 -192q-45 -47 -78 -64q-68 -40 -173 -40
h-134q-119 0 -192 52q-88 55 -126 170q-13 39 -13 109v575q0 118 52 192q55 87 170 126q40 12 109 12zM316 929v-222h222q28 0 40 32q1 4 1 9v181q0 29 -31 40q-5 2 -10 2h-181q-28 0 -40 -32q-1 -5 -1 -10z" />
    <glyph glyph-name="f" unicode="f" horiz-adv-x="650" 
d="M393 1499h105q29 0 40 -35v-192q-8 -38 -49 -38h-85q-28 0 -40 -32q-1 -4 -1 -9v-134h128q32 0 45 -28q2 -5 2 -13v-188q-8 -37 -49 -37h-126v-905q0 -118 -52 -192q-55 -88 -171 -126q-38 -13 -108 -13h-61q-36 0 -47 28q-4 7 -4 23v164q0 36 28 47q7 4 23 4h84
q28 0 40 32q2 4 2 9v1305q0 125 57 201q29 42 84 81q82 48 155 48z" />
    <glyph glyph-name="g" unicode="g" 
d="M346 1237h203q21 0 52 -6q10 6 17 6h186q29 0 40 -35v-1345q0 -99 -78 -192q-45 -47 -78 -64q-68 -40 -173 -40h-414q-36 0 -47 28q-4 7 -4 23v164q0 36 28 47q7 4 23 4h437q28 0 40 32q1 4 1 9v134h-198q-119 0 -192 52q-88 55 -126 170q-13 39 -13 109v575
q0 124 58 200q28 42 83 81q82 48 155 48zM316 931v-622q0 -28 32 -40q4 -1 9 -1h222v663q0 28 -31 40q-5 1 -10 1h-181q-28 0 -40 -31q-1 -5 -1 -10z" />
    <glyph glyph-name="h" unicode="h" 
d="M88 1500h190q38 -8 38 -49v-215h199q118 0 191 -51q88 -56 126 -171q13 -40 13 -108v-852q0 -54 -54 -54h-163q-32 0 -45 28q-4 7 -4 23v878q0 29 -31 40q-5 2 -10 2h-222v-920q0 -42 -38 -50q-4 -1 -10 -1h-170q-32 0 -44 28q-4 7 -4 23v1400q0 41 38 49z" />
    <glyph glyph-name="i" unicode="i" horiz-adv-x="500" 
d="M99 1685h187q29 0 40 -35v-192q0 -25 -35 -38q-11 -1 -18 -1h-162q-36 0 -47 28q-4 7 -4 23v162q0 38 27 51q10 2 12 2zM110 1243h165q38 0 47 -38v-1166q0 -25 -35 -38q-11 -1 -18 -1h-162q-36 0 -47 28q-4 8 -4 23v1137q0 55 54 55z" />
    <glyph glyph-name="j" unicode="j" horiz-adv-x="524" 
d="M116 1667h186q29 0 40 -35v-191q0 -25 -35 -37q-11 -2 -18 -2h-161q-35 0 -47 29q-4 7 -4 22v161q0 38 27 51q10 2 12 2zM130 1234h164q38 0 47 -38v-1343q0 -99 -78 -193q-45 -46 -78 -63q-68 -40 -173 -40h-61q-36 0 -47 28q-4 7 -4 23v164q0 36 28 47q7 4 23 4h84
q28 0 40 32q1 4 1 9v1316q0 54 54 54z" />
    <glyph glyph-name="k" unicode="k" horiz-adv-x="1037" 
d="M87 1500h190q38 -8 38 -49v-493q74 -99 76 -104q10 9 220 277q72 90 82 98q9 7 22 7h233q25 0 37 -32q2 -5 2 -10v-2q0 -21 -37 -60q-5 -7 -393 -497v-1l425 -569q5 -9 5 -19v-2q0 -30 -35 -43q-12 -1 -18 -1h-220q-34 0 -56 42q-5 6 -342 466v1h-1v-458q0 -42 -38 -50
q-4 -1 -10 -1h-170q-32 0 -44 28q-4 7 -4 23v1400q0 41 38 49z" />
    <glyph glyph-name="l" unicode="l" horiz-adv-x="487" 
d="M90 1500h186q29 0 40 -35q1 -6 1 -14v-1397q0 -54 -54 -54h-158q-54 0 -54 54v1393q0 38 27 51q10 2 12 2z" />
    <glyph glyph-name="m" unicode="m" horiz-adv-x="1550" 
d="M101 1236h167q15 0 27 -7q32 7 86 7h134q122 0 196 -55h1q62 40 116 48q23 7 82 7h134q118 0 192 -51q87 -56 126 -171q13 -40 13 -108v-852q0 -54 -54 -54h-164q-32 0 -45 28q-3 7 -3 23v878q0 29 -32 40q-5 2 -9 2h-182q-28 0 -40 -32q-1 -5 -1 -10v-875q0 -54 -54 -54
h-163q-32 0 -45 28q-4 7 -4 23v878q0 29 -31 40q-5 2 -10 2h-181q-28 0 -40 -32q-1 -5 -1 -10v-881q0 -38 -38 -47q-4 -1 -10 -1h-170q-32 0 -44 28q-4 7 -4 23v1135q0 35 28 47q7 3 23 3z" />
    <glyph glyph-name="n" unicode="n" horiz-adv-x="1026" 
d="M103 1236h167q15 0 27 -7q32 7 86 7h134q118 0 191 -51q88 -56 126 -171q13 -40 13 -108v-852q0 -54 -54 -54h-163q-32 0 -45 28q-4 7 -4 23v878q0 29 -31 40q-5 2 -10 2h-181q-28 0 -40 -32q-1 -5 -1 -10v-881q0 -38 -38 -47q-4 -1 -10 -1h-170q-32 0 -44 28q-4 7 -4 23
v1135q0 35 28 47q7 3 23 3z" />
    <glyph glyph-name="o" unicode="o" horiz-adv-x="1023" 
d="M386 1236h134q124 0 200 -57q42 -29 81 -84q48 -82 48 -155v-644q0 -111 -95 -211q-78 -67 -160 -80q-29 -5 -78 -5h-127q-122 0 -188 48q-91 55 -130 164q-16 42 -16 119v575q0 118 52 192q55 87 170 126q40 12 109 12zM321 929v-622q0 -28 32 -40q4 -1 9 -1h181
q28 0 40 32q1 4 1 9v622q0 29 -31 40q-5 2 -10 2h-181q-28 0 -40 -32q-1 -5 -1 -10z" />
    <glyph glyph-name="p" unicode="p" 
d="M551 1233q111 0 211 -95q84 -98 84 -200v-644q0 -99 -78 -192q-45 -47 -78 -64q-68 -40 -173 -40h-199v-390q0 -36 -28 -47q-8 -4 -23 -4h-164q-36 0 -47 28q-4 7 -4 23v1579q0 35 35 46h464zM318 968v-704h222q28 0 40 32q1 4 1 9v622q0 28 -31 40q-5 1 -10 1h-222z" />
    <glyph glyph-name="q" unicode="q" 
d="M809 1233q35 -11 35 -46v-1579q0 -16 -4 -23q-11 -28 -47 -28h-164q-15 0 -23 4q-28 11 -28 47v390h-199q-105 0 -173 40q-33 17 -78 64q-78 93 -78 192v644q0 102 84 200q100 95 211 95h464zM356 968q-5 0 -10 -1q-31 -12 -31 -40v-622q0 -5 1 -9q12 -32 40 -32h222v704
h-222z" />
    <glyph glyph-name="r" unicode="r" horiz-adv-x="650" 
d="M381 1236h146q54 0 54 -54v-161q0 -36 -28 -47q-7 -4 -23 -4h-173q-28 0 -40 -32q-1 -4 -1 -9v-878q0 -36 -28 -47q-7 -4 -23 -4h-164q-36 0 -47 28q-4 7 -4 23v855q0 118 52 191q55 88 171 126q39 13 108 13z" />
    <glyph glyph-name="s" unicode="s" 
d="M384 1236h135q115 0 188 -49q89 -58 127 -165q15 -51 15 -94q0 -36 -40 -45q-4 -1 -14 -1h-161q-37 0 -48 31q-5 44 -16 44q-10 13 -28 13h-181q-28 0 -40 -32q-1 -4 -1 -9v-140q0 -24 30 -36q6 -3 16 -3h178q135 0 234 -113q38 -46 51 -89q20 -43 20 -131v-87
q0 -118 -52 -191q-55 -88 -170 -126q-39 -13 -108 -13h-135q-115 0 -188 49q-89 58 -127 165q-15 51 -15 94q0 36 40 45q4 1 14 1h161q37 0 48 -31q5 -44 16 -44q10 -13 28 -13h181q28 0 40 32q1 4 1 9v140q0 24 -30 36q-6 3 -16 3h-178q-135 0 -234 113q-38 46 -51 89
q-20 42 -20 131v87q0 118 52 191q55 88 170 126q40 13 108 13z" />
    <glyph glyph-name="t" unicode="t" horiz-adv-x="650" 
d="M89 1500h202q40 -8 40 -52v-134h134q38 0 50 -30q4 -8 4 -24v-175q0 -38 -30 -50q-8 -4 -24 -4h-134v-705q0 -30 34 -42q5 -1 10 -1h90q38 0 50 -30q4 -8 4 -24v-175q0 -38 -30 -50q-8 -4 -24 -4h-65q-126 0 -204 55q-93 59 -133 181q-14 41 -14 115v1097q0 44 40 52z
" />
    <glyph glyph-name="u" unicode="u" 
d="M102 1235h161q35 0 47 -28q3 -7 3 -23v-877q0 -28 32 -40q5 -1 10 -1h180q28 0 40 31q2 5 2 10v877q0 36 28 47q7 4 22 4h167q32 0 44 -28q4 -7 4 -23v-1133q0 -36 -28 -47q-7 -4 -23 -4h-164q-19 0 -29 7q-33 -7 -86 -7h-134q-118 0 -191 52q-88 55 -126 170
q-13 38 -13 108v851q0 54 54 54z" />
    <glyph glyph-name="v" unicode="v" 
d="M59 1236h175q30 0 43 -27q4 -7 168 -706h3l157 668q10 47 25 57q15 8 29 8h178q32 0 45 -28q2 -5 2 -13v-8q0 -4 -266 -1123q-9 -50 -26 -56q-9 -8 -30 -8h-231q-35 0 -47 28q-276 1155 -276 1163q0 32 35 44q8 1 16 1z" />
    <glyph glyph-name="w" unicode="w" horiz-adv-x="1600" 
d="M50 1236h175q30 0 43 -27q5 -11 169 -706h2l168 708q15 25 43 25h179q36 0 46 -35q157 -658 166 -700h1q163 695 171 713q14 22 45 22h171q36 0 49 -28q2 -11 2 -16v-2q0 -5 -267 -1129q-9 -41 -21 -50q-14 -11 -32 -11h-236q-34 0 -46 33l-138 579h-1
q-135 -578 -141 -590q-14 -22 -45 -22h-231q-35 0 -47 28q-276 1155 -276 1163q0 33 36 44q7 1 15 1z" />
    <glyph glyph-name="x" unicode="x" horiz-adv-x="935" 
d="M52 1236h182q38 0 52 -45q121 -256 121 -260h2q128 279 137 290q12 15 42 15h182q35 0 47 -35v-12q0 -12 -31 -73q-228 -490 -232 -497q263 -562 263 -567v-8q0 -30 -34 -43q-12 -1 -19 -1h-182q-38 0 -52 45q-121 256 -121 260h-2q-128 -279 -137 -290q-12 -15 -42 -15
h-182q-35 0 -47 35v12q0 12 31 73q228 490 232 497q-263 562 -263 567v8q0 30 34 43q12 1 19 1z" />
    <glyph glyph-name="y" unicode="y" 
d="M89 1236h189q38 -8 38 -49v-879q0 -28 32 -40q4 -1 9 -1h181q28 0 40 32q1 4 1 9v879q0 41 38 49h187q29 0 40 -35v-1345q0 -99 -78 -192q-45 -47 -78 -64q-68 -40 -173 -40h-414q-36 0 -47 28q-4 7 -4 23v164q0 36 28 47q7 4 23 4h437q28 0 40 32q1 4 1 9v138
q-24 -4 -64 -4h-134q-119 0 -192 52q-88 55 -126 170q-13 39 -13 109v851q0 38 27 51q10 2 12 2z" />
    <glyph glyph-name="z" unicode="z" 
d="M102 1236h706q38 0 52 -28q2 -10 2 -12v-194q0 -10 -29 -51l-439 -680v-1h428q26 0 40 -35v-197q0 -23 -32 -37q-9 -1 -14 -1h-718q-36 0 -47 36q-1 10 -1 17v170q0 21 26 56l443 685h-414q-55 0 -55 55v165q0 36 29 48q7 4 23 4z" />
    <glyph glyph-name="braceleft" unicode="{" horiz-adv-x="650" 
d="M435 1761h16q29 0 40 -35v-192q0 -22 -31 -35q-43 -5 -43 -16q-13 -10 -13 -28v-510q0 -123 -55 -197v-1q31 -44 47 -107q8 -33 8 -91v-510q0 -28 32 -40q42 0 54 -32l1 -7v-190q0 -23 -33 -37q-3 0 -9 -1q-148 0 -247 122q-28 39 -43 74q-21 53 -21 135v510q0 28 -32 40
q-38 0 -51 26q-5 10 -5 22v172q0 35 35 46q39 0 51 28q2 8 2 14v511q0 124 58 200q29 42 83 81q82 48 156 48z" />
    <glyph glyph-name="bar" unicode="|" horiz-adv-x="500" 
d="M88 1750h190q26 0 38 -35v-1966q-8 -38 -50 -38h-162q-54 0 -54 54v1935q0 42 38 50z" />
    <glyph glyph-name="braceright" unicode="}" horiz-adv-x="650" 
d="M262 1713q54 -39 83 -81q58 -76 58 -200v-511q0 -6 2 -14q12 -28 51 -28q35 -11 35 -46v-172q0 -12 -5 -22q-13 -26 -51 -26q-32 -12 -32 -40v-510q0 -82 -21 -135q-15 -35 -43 -74q-99 -122 -247 -122q-6 1 -9 1q-33 14 -33 37v190l1 7q12 32 54 32q32 12 32 40v510
q0 58 8 91q16 63 47 107v1q-55 74 -55 197v510q0 18 -13 28q0 11 -43 16q-31 13 -31 35v192q11 35 40 35h16q74 0 156 -48z" />
    <glyph glyph-name="asciitilde" unicode="~" horiz-adv-x="850" 
d="M96 918q17 0 52 -25q45 -26 90 -26q33 0 182 38q59 11 109 11h6q78 0 145 -27q19 -15 19 -37v-177q0 -28 -28 -41q-10 -5 -19 -5q-12 0 -57 24q-37 15 -77 15q-41 0 -174 -35q-66 -14 -118 -14h-10q-72 0 -145 29q-22 15 -22 37v190q0 31 36 41q4 2 11 2z" />
    <glyph glyph-name="Adieresis" unicode="&#xc4;" 
d="M346 1500h203q111 0 211 -95q84 -98 84 -200v-1166q0 -25 -35 -38q-11 -1 -18 -1h-161q-35 0 -47 28q-4 7 -4 23v478h-263v-475q0 -54 -54 -54h-161q-36 0 -47 28q-4 7 -4 23v1120q0 124 58 200q28 42 83 81q82 48 155 48zM316 1194v-399h263v399q0 28 -31 40q-5 1 -10 1
h-181q-28 0 -40 -31q-1 -5 -1 -10zM141 1969h167q41 0 50 -35q1 -2 1 -9v-178q0 -30 -34 -43q-10 -1 -17 -1h-167q-35 0 -47 35v189q0 27 32 40q5 2 15 2zM582 1969h167q41 0 50 -35q1 -2 1 -9v-178q0 -30 -34 -43q-10 -1 -17 -1h-167q-35 0 -47 35v189q0 27 32 40q5 2 15 2
z" />
    <glyph glyph-name="Aring" unicode="&#xc5;" 
d="M346 1500h203q111 0 211 -95q84 -98 84 -200v-1166q0 -25 -35 -38q-11 -1 -18 -1h-161q-35 0 -47 28q-4 7 -4 23v478h-263v-475q0 -54 -54 -54h-161q-36 0 -47 28q-4 7 -4 23v1120q0 124 58 200q28 42 83 81q82 48 155 48zM316 1194v-399h263v399q0 28 -31 40q-5 1 -10 1
h-181q-28 0 -40 -31q-1 -5 -1 -10zM448 2156q106 0 179 -93q41 -59 41 -127v-3q0 -114 -105 -187q-57 -33 -116 -33q-103 0 -176 87q-44 63 -44 130v9q0 107 100 181q60 36 121 36zM402 1933q0 -28 32 -41q4 -2 13 -2h1q33 0 43 37v10q0 31 -37 42h-7q-39 0 -45 -46z" />
    <glyph glyph-name="Ccedilla" unicode="&#xc7;" 
d="M346 1500h203q111 0 211 -95q84 -98 84 -200v-197q-8 -37 -49 -37h-165q-35 0 -47 28q-4 7 -4 22v173q0 28 -31 40q-5 1 -10 1h-181q-28 0 -40 -31q-1 -5 -1 -10v-887q0 -28 32 -40q4 -1 9 -1h181q28 0 40 32q1 4 1 9v173q0 35 29 47q7 4 22 4h167q38 0 47 -38v-197
q0 -99 -78 -192q-45 -47 -78 -64q-68 -40 -173 -40h-134q-119 0 -192 52q-88 55 -126 170q-13 39 -13 109v840q0 124 58 200q28 42 83 81q82 48 155 48zM456 -150h162q38 0 49 -33q1 -7 1 -11v-91q0 -146 -125 -247q-46 -32 -85 -44q-44 -17 -123 -17h-55q-44 0 -52 36
q-1 1 -1 8v180q0 28 32 40q5 2 15 2h91q25 0 37 34q1 8 1 16v83q0 30 35 42q12 2 18 2z" />
    <glyph glyph-name="Eacute" unicode="&#xc9;" horiz-adv-x="800" 
d="M628 1500q29 0 40 -35v-191q0 -25 -35 -38q-11 -1 -18 -1h-299v-440h217q32 0 44 -28q4 -7 4 -22v-161q0 -55 -54 -55h-211v-263h305q38 0 47 -38v-189q0 -25 -35 -38q-11 -1 -18 -1h-518q-47 5 -47 47v1407q0 35 35 46h543zM568 2145q35 -12 35 -42q-1 -14 -99 -372
q-11 -27 -47 -27h-173q-11 0 -19 4q-28 14 -28 36v9q0 3 95 358q11 35 47 35h173q8 0 16 -1z" />
    <glyph glyph-name="Ntilde" unicode="&#xd1;" horiz-adv-x="1100" 
d="M283 1500q29 0 47 -56q4 -4 336 -785h1v788q0 38 27 51q10 2 12 2h188q26 0 38 -35v-1427q-8 -38 -49 -38h-167q-40 0 -53 48q-6 12 -346 791h-1v-788q0 -36 -28 -47q-8 -4 -23 -4h-161q-54 0 -54 54v1400q0 35 35 46h198zM227 2000q16 0 49 -25q42 -26 86 -26
q31 0 173 38q56 11 103 11h6q74 0 138 -27q18 -15 18 -37v-177q0 -28 -26 -41q-10 -5 -19 -5q-12 0 -54 24q-35 15 -73 15q-39 0 -166 -35q-62 -14 -112 -14h-9q-69 0 -138 29q-21 15 -21 37v190q0 31 34 41q4 2 11 2z" />
    <glyph glyph-name="Odieresis" unicode="&#xd6;" 
d="M346 1500h203q111 0 211 -95q84 -98 84 -200v-909q0 -99 -78 -192q-45 -47 -78 -64q-68 -40 -173 -40h-134q-119 0 -192 52q-88 55 -126 170q-13 39 -13 109v840q0 124 58 200q28 42 83 81q82 48 155 48zM316 1194v-887q0 -28 32 -40q4 -1 9 -1h181q28 0 40 32q1 4 1 9
v887q0 28 -31 40q-5 1 -10 1h-181q-28 0 -40 -31q-1 -5 -1 -10zM141 1969h167q41 0 50 -35q1 -2 1 -9v-178q0 -30 -34 -43q-10 -1 -17 -1h-167q-35 0 -47 35v189q0 27 32 40q5 2 15 2zM582 1969h167q41 0 50 -35q1 -2 1 -9v-178q0 -30 -34 -43q-10 -1 -17 -1h-167
q-35 0 -47 35v189q0 27 32 40q5 2 15 2z" />
    <glyph glyph-name="Udieresis" unicode="&#xdc;" 
d="M89 1500h189q38 -8 38 -49v-1144q0 -28 32 -40q4 -1 9 -1h181q28 0 40 32q1 4 1 9v1144q0 41 38 49h187q29 0 40 -35v-1169q0 -99 -78 -192q-45 -47 -78 -64q-68 -40 -173 -40h-134q-119 0 -192 52q-88 55 -126 170q-13 39 -13 109v1116q0 38 27 51q10 2 12 2zM141 1969
h167q41 0 50 -35q1 -2 1 -9v-178q0 -30 -34 -43q-10 -1 -17 -1h-167q-35 0 -47 35v189q0 27 32 40q5 2 15 2zM582 1969h167q41 0 50 -35q1 -2 1 -9v-178q0 -30 -34 -43q-10 -1 -17 -1h-167q-35 0 -47 35v189q0 27 32 40q5 2 15 2z" />
    <glyph glyph-name="aacute" unicode="&#xe1;" horiz-adv-x="1024" 
d="M381 1236h134q118 0 191 -51q88 -56 126 -171q13 -40 13 -108v-858q0 -38 -37 -47q-5 -1 -11 -1h-416q-119 0 -192 52q-88 55 -126 170q-13 39 -13 109v134q0 118 52 191q55 88 170 126q40 13 109 13h198v134q0 29 -31 40q-5 2 -10 2h-181q-28 0 -40 -32q0 -57 -52 -57
h-163q-36 0 -48 29q-3 7 -4 17q0 131 105 231q68 57 141 70q29 7 85 7zM316 488v-181q0 -28 32 -40q4 -1 9 -1h222v263h-222q-28 0 -40 -31q-1 -5 -1 -10zM657 1891q35 -12 35 -42q-1 -14 -99 -372q-11 -27 -47 -27h-173q-11 0 -19 4q-28 14 -28 36v9q0 3 95 358
q11 35 47 35h173q8 0 16 -1z" />
    <glyph glyph-name="agrave" unicode="&#xe0;" horiz-adv-x="1024" 
d="M381 1236h134q118 0 191 -51q88 -56 126 -171q13 -40 13 -108v-858q0 -38 -37 -47q-5 -1 -11 -1h-416q-119 0 -192 52q-88 55 -126 170q-13 39 -13 109v134q0 118 52 191q55 88 170 126q40 13 109 13h198v134q0 29 -31 40q-5 2 -10 2h-181q-28 0 -40 -32q0 -57 -52 -57
h-163q-36 0 -48 29q-3 7 -4 17q0 131 105 231q68 57 141 70q29 7 85 7zM316 488v-181q0 -28 32 -40q4 -1 9 -1h222v263h-222q-28 0 -40 -31q-1 -5 -1 -10zM255 1892h173q36 0 47 -35q95 -355 95 -358v-9q0 -22 -28 -36q-8 -4 -19 -4h-173q-36 0 -47 27q-98 358 -99 372
q0 30 35 42q8 1 16 1z" />
    <glyph glyph-name="acircumflex" unicode="&#xe2;" horiz-adv-x="1024" 
d="M381 1236h134q118 0 191 -51q88 -56 126 -171q13 -40 13 -108v-858q0 -38 -37 -47q-5 -1 -11 -1h-416q-119 0 -192 52q-88 55 -126 170q-13 39 -13 109v134q0 118 52 191q55 88 170 126q40 13 109 13h198v134q0 29 -31 40q-5 2 -10 2h-181q-28 0 -40 -32q0 -57 -52 -57
h-163q-36 0 -48 29q-3 7 -4 17q0 131 105 231q68 57 141 70q29 7 85 7zM316 488v-181q0 -28 32 -40q4 -1 9 -1h222v263h-222q-28 0 -40 -31q-1 -5 -1 -10zM449 1860q15 0 70 -36q238 -135 267 -155q12 -16 12 -32q0 -15 -39 -76q-56 -100 -63 -108q-15 -11 -31 -12
q-14 0 -66 32q-138 80 -152 87q-187 -109 -204 -117q-9 -1 -12 -2q-32 0 -51 44q-82 137 -82 148v7q0 30 46 50q278 162 290 167q10 3 15 3z" />
    <glyph glyph-name="adieresis" unicode="&#xe4;" horiz-adv-x="1024" 
d="M381 1236h134q118 0 191 -51q88 -56 126 -171q13 -40 13 -108v-858q0 -38 -37 -47q-5 -1 -11 -1h-416q-119 0 -192 52q-88 55 -126 170q-13 39 -13 109v134q0 118 52 191q55 88 170 126q40 13 109 13h198v134q0 29 -31 40q-5 2 -10 2h-181q-28 0 -40 -32q0 -57 -52 -57
h-163q-36 0 -48 29q-3 7 -4 17q0 131 105 231q68 57 141 70q29 7 85 7zM316 488v-181q0 -28 32 -40q4 -1 9 -1h222v263h-222q-28 0 -40 -31q-1 -5 -1 -10zM142 1705h167q41 0 50 -35q1 -2 1 -9v-178q0 -30 -34 -43q-10 -1 -17 -1h-167q-35 0 -47 35v189q0 27 32 40q5 2 15 2
zM583 1705h167q41 0 50 -35q1 -2 1 -9v-178q0 -30 -34 -43q-10 -1 -17 -1h-167q-35 0 -47 35v189q0 27 32 40q5 2 15 2z" />
    <glyph glyph-name="atilde" unicode="&#xe3;" horiz-adv-x="1024" 
d="M381 1236h134q118 0 191 -51q88 -56 126 -171q13 -40 13 -108v-858q0 -38 -37 -47q-5 -1 -11 -1h-416q-119 0 -192 52q-88 55 -126 170q-13 39 -13 109v134q0 118 52 191q55 88 170 126q40 13 109 13h198v134q0 29 -31 40q-5 2 -10 2h-181q-28 0 -40 -32q0 -57 -52 -57
h-163q-36 0 -48 29q-3 7 -4 17q0 131 105 231q68 57 141 70q29 7 85 7zM316 488v-181q0 -28 32 -40q4 -1 9 -1h222v263h-222q-28 0 -40 -31q-1 -5 -1 -10zM184 1736q16 0 49 -25q42 -26 86 -26q31 0 173 38q56 11 103 11h6q74 0 138 -27q18 -15 18 -37v-177q0 -28 -26 -41
q-10 -5 -19 -5q-12 0 -54 24q-35 15 -73 15q-39 0 -166 -35q-62 -14 -112 -14h-9q-69 0 -138 29q-21 15 -21 37v190q0 31 34 41q4 2 11 2z" />
    <glyph glyph-name="aring" unicode="&#xe5;" horiz-adv-x="1024" 
d="M381 1236h134q118 0 191 -51q88 -56 126 -171q13 -40 13 -108v-858q0 -38 -37 -47q-5 -1 -11 -1h-416q-119 0 -192 52q-88 55 -126 170q-13 39 -13 109v134q0 118 52 191q55 88 170 126q40 13 109 13h198v134q0 29 -31 40q-5 2 -10 2h-181q-28 0 -40 -32q0 -57 -52 -57
h-163q-36 0 -48 29q-3 7 -4 17q0 131 105 231q68 57 141 70q29 7 85 7zM316 488v-181q0 -28 32 -40q4 -1 9 -1h222v263h-222q-28 0 -40 -31q-1 -5 -1 -10zM448 1892q106 0 179 -93q41 -59 41 -127v-3q0 -114 -105 -187q-57 -33 -116 -33q-103 0 -176 87q-44 63 -44 130v9
q0 107 100 181q60 36 121 36zM402 1669q0 -28 32 -41q4 -2 13 -2h1q33 0 43 37v10q0 31 -37 42h-7q-39 0 -45 -46z" />
    <glyph glyph-name="ccedilla" unicode="&#xe7;" 
d="M381 1236h134q118 0 191 -51q88 -56 126 -171q13 -40 13 -108v-61q0 -36 -28 -47q-7 -4 -22 -4h-165q-35 0 -47 28q-4 7 -4 23v84q0 29 -31 40q-5 2 -10 2h-181q-28 0 -40 -32q-1 -5 -1 -10v-622q0 -28 32 -40q4 -1 9 -1h181q28 0 40 32q1 4 1 9v85q0 35 29 47q7 3 22 3
h167q32 0 45 -28q3 -7 3 -22v-61q0 -119 -51 -192q-56 -88 -171 -126q-39 -13 -108 -13h-134q-119 0 -192 52q-88 55 -126 170q-13 39 -13 109v575q0 118 52 192q55 87 170 126q40 12 109 12zM456 -150h162q38 0 49 -33q1 -7 1 -11v-91q0 -146 -125 -247q-46 -32 -85 -44
q-44 -17 -123 -17h-55q-44 0 -52 36q-1 1 -1 8v180q0 28 32 40q5 2 15 2h91q25 0 37 34q1 8 1 16v83q0 30 35 42q12 2 18 2z" />
    <glyph glyph-name="eacute" unicode="&#xe9;" 
d="M381 1236h134q124 0 200 -57q42 -29 81 -84q48 -82 48 -155v-202q0 -99 -78 -193q-45 -47 -78 -64q-68 -40 -173 -40h-199v-134q0 -28 32 -40q4 -1 9 -1h181q28 0 40 32q0 56 52 56h161q38 0 51 -27q2 -9 2 -12v-19q0 -99 -78 -192q-45 -47 -78 -64q-68 -40 -173 -40
h-134q-119 0 -192 52q-88 55 -126 170q-13 39 -13 109v575q0 118 52 192q55 87 170 126q40 12 109 12zM316 929v-222h222q28 0 40 32q1 4 1 9v181q0 29 -31 40q-5 2 -10 2h-181q-28 0 -40 -32q-1 -5 -1 -10zM656 1891q35 -12 35 -42q-1 -14 -99 -372q-11 -27 -47 -27h-173
q-11 0 -19 4q-28 14 -28 36v9q0 3 95 358q11 35 47 35h173q8 0 16 -1z" />
    <glyph glyph-name="egrave" unicode="&#xe8;" 
d="M381 1236h134q124 0 200 -57q42 -29 81 -84q48 -82 48 -155v-202q0 -99 -78 -193q-45 -47 -78 -64q-68 -40 -173 -40h-199v-134q0 -28 32 -40q4 -1 9 -1h181q28 0 40 32q0 56 52 56h161q38 0 51 -27q2 -9 2 -12v-19q0 -99 -78 -192q-45 -47 -78 -64q-68 -40 -173 -40
h-134q-119 0 -192 52q-88 55 -126 170q-13 39 -13 109v575q0 118 52 192q55 87 170 126q40 12 109 12zM316 929v-222h222q28 0 40 32q1 4 1 9v181q0 29 -31 40q-5 2 -10 2h-181q-28 0 -40 -32q-1 -5 -1 -10zM254 1892h173q36 0 47 -35q95 -355 95 -358v-9q0 -22 -28 -36
q-8 -4 -19 -4h-173q-36 0 -47 27q-98 358 -99 372q0 30 35 42q8 1 16 1z" />
    <glyph glyph-name="ecircumflex" unicode="&#xea;" 
d="M381 1236h134q124 0 200 -57q42 -29 81 -84q48 -82 48 -155v-202q0 -99 -78 -193q-45 -47 -78 -64q-68 -40 -173 -40h-199v-134q0 -28 32 -40q4 -1 9 -1h181q28 0 40 32q0 56 52 56h161q38 0 51 -27q2 -9 2 -12v-19q0 -99 -78 -192q-45 -47 -78 -64q-68 -40 -173 -40
h-134q-119 0 -192 52q-88 55 -126 170q-13 39 -13 109v575q0 118 52 192q55 87 170 126q40 12 109 12zM316 929v-222h222q28 0 40 32q1 4 1 9v181q0 29 -31 40q-5 2 -10 2h-181q-28 0 -40 -32q-1 -5 -1 -10zM448 1860q15 0 70 -36q238 -135 267 -155q12 -16 12 -32
q0 -15 -39 -76q-56 -100 -63 -108q-15 -11 -31 -12q-14 0 -66 32q-138 80 -152 87q-187 -109 -204 -117q-9 -1 -12 -2q-32 0 -51 44q-82 137 -82 148v7q0 30 46 50q278 162 290 167q10 3 15 3z" />
    <glyph glyph-name="edieresis" unicode="&#xeb;" 
d="M381 1236h134q124 0 200 -57q42 -29 81 -84q48 -82 48 -155v-202q0 -99 -78 -193q-45 -47 -78 -64q-68 -40 -173 -40h-199v-134q0 -28 32 -40q4 -1 9 -1h181q28 0 40 32q0 56 52 56h161q38 0 51 -27q2 -9 2 -12v-19q0 -99 -78 -192q-45 -47 -78 -64q-68 -40 -173 -40
h-134q-119 0 -192 52q-88 55 -126 170q-13 39 -13 109v575q0 118 52 192q55 87 170 126q40 12 109 12zM316 929v-222h222q28 0 40 32q1 4 1 9v181q0 29 -31 40q-5 2 -10 2h-181q-28 0 -40 -32q-1 -5 -1 -10zM141 1705h167q41 0 50 -35q1 -2 1 -9v-178q0 -30 -34 -43
q-10 -1 -17 -1h-167q-35 0 -47 35v189q0 27 32 40q5 2 15 2zM582 1705h167q41 0 50 -35q1 -2 1 -9v-178q0 -30 -34 -43q-10 -1 -17 -1h-167q-35 0 -47 35v189q0 27 32 40q5 2 15 2z" />
    <glyph glyph-name="iacute" unicode="&#xed;" horiz-adv-x="500" 
d="M104 1243h165q38 0 47 -38v-1166q0 -25 -35 -38q-11 -1 -18 -1h-162q-36 0 -47 28q-4 8 -4 23v1137q0 55 54 55zM392 1891q35 -12 35 -42q-1 -14 -99 -372q-11 -27 -47 -27h-173q-11 0 -19 4q-28 14 -28 36v9q0 3 95 358q11 35 47 35h173q8 0 16 -1z" />
    <glyph glyph-name="igrave" unicode="&#xec;" horiz-adv-x="500" 
d="M104 1243h165q38 0 47 -38v-1166q0 -25 -35 -38q-11 -1 -18 -1h-162q-36 0 -47 28q-4 8 -4 23v1137q0 55 54 55zM-10 1892h173q36 0 47 -35q95 -355 95 -358v-9q0 -22 -28 -36q-8 -4 -19 -4h-173q-36 0 -47 27q-98 358 -99 372q0 30 35 42q8 1 16 1z" />
    <glyph glyph-name="icircumflex" unicode="&#xee;" horiz-adv-x="500" 
d="M104 1243h165q38 0 47 -38v-1166q0 -25 -35 -38q-11 -1 -18 -1h-162q-36 0 -47 28q-4 8 -4 23v1137q0 55 54 55zM184 1860q15 0 70 -36q238 -135 267 -155q12 -16 12 -32q0 -15 -39 -76q-56 -100 -63 -108q-15 -11 -31 -12q-14 0 -66 32q-138 80 -152 87
q-187 -109 -204 -117q-9 -1 -12 -2q-32 0 -51 44q-82 137 -82 148v7q0 30 46 50q278 162 290 167q10 3 15 3z" />
    <glyph glyph-name="idieresis" unicode="&#xef;" horiz-adv-x="500" 
d="M104 1243h165q38 0 47 -38v-1166q0 -25 -35 -38q-11 -1 -18 -1h-162q-36 0 -47 28q-4 8 -4 23v1137q0 55 54 55zM-123 1705h167q41 0 50 -35q1 -2 1 -9v-178q0 -30 -34 -43q-10 -1 -17 -1h-167q-35 0 -47 35v189q0 27 32 40q5 2 15 2zM318 1705h167q41 0 50 -35
q1 -2 1 -9v-178q0 -30 -34 -43q-10 -1 -17 -1h-167q-35 0 -47 35v189q0 27 32 40q5 2 15 2z" />
    <glyph glyph-name="ntilde" unicode="&#xf1;" horiz-adv-x="1026" 
d="M103 1236h167q15 0 27 -7q32 7 86 7h134q118 0 191 -51q88 -56 126 -171q13 -40 13 -108v-852q0 -54 -54 -54h-163q-32 0 -45 28q-4 7 -4 23v878q0 29 -31 40q-5 2 -10 2h-181q-28 0 -40 -32q-1 -5 -1 -10v-881q0 -38 -38 -47q-4 -1 -10 -1h-170q-32 0 -44 28q-4 7 -4 23
v1135q0 35 28 47q7 3 23 3zM186 1736q16 0 49 -25q42 -26 86 -26q31 0 173 38q56 11 103 11h6q74 0 138 -27q18 -15 18 -37v-177q0 -28 -26 -41q-10 -5 -19 -5q-12 0 -54 24q-35 15 -73 15q-39 0 -166 -35q-62 -14 -112 -14h-9q-69 0 -138 29q-21 15 -21 37v190q0 31 34 41
q4 2 11 2z" />
    <glyph glyph-name="oacute" unicode="&#xf3;" horiz-adv-x="1023" 
d="M386 1236h134q124 0 200 -57q42 -29 81 -84q48 -82 48 -155v-644q0 -111 -95 -211q-78 -67 -160 -80q-29 -5 -78 -5h-127q-122 0 -188 48q-91 55 -130 164q-16 42 -16 119v575q0 118 52 192q55 87 170 126q40 12 109 12zM321 929v-622q0 -28 32 -40q4 -1 9 -1h181
q28 0 40 32q1 4 1 9v622q0 29 -31 40q-5 2 -10 2h-181q-28 0 -40 -32q-1 -5 -1 -10zM661 1891q35 -12 35 -42q-1 -14 -99 -372q-11 -27 -47 -27h-173q-11 0 -19 4q-28 14 -28 36v9q0 3 95 358q11 35 47 35h173q8 0 16 -1z" />
    <glyph glyph-name="ograve" unicode="&#xf2;" horiz-adv-x="1023" 
d="M386 1236h134q124 0 200 -57q42 -29 81 -84q48 -82 48 -155v-644q0 -111 -95 -211q-78 -67 -160 -80q-29 -5 -78 -5h-127q-122 0 -188 48q-91 55 -130 164q-16 42 -16 119v575q0 118 52 192q55 87 170 126q40 12 109 12zM321 929v-622q0 -28 32 -40q4 -1 9 -1h181
q28 0 40 32q1 4 1 9v622q0 29 -31 40q-5 2 -10 2h-181q-28 0 -40 -32q-1 -5 -1 -10zM259 1892h173q36 0 47 -35q95 -355 95 -358v-9q0 -22 -28 -36q-8 -4 -19 -4h-173q-36 0 -47 27q-98 358 -99 372q0 30 35 42q8 1 16 1z" />
    <glyph glyph-name="ocircumflex" unicode="&#xf4;" horiz-adv-x="1023" 
d="M386 1236h134q124 0 200 -57q42 -29 81 -84q48 -82 48 -155v-644q0 -111 -95 -211q-78 -67 -160 -80q-29 -5 -78 -5h-127q-122 0 -188 48q-91 55 -130 164q-16 42 -16 119v575q0 118 52 192q55 87 170 126q40 12 109 12zM321 929v-622q0 -28 32 -40q4 -1 9 -1h181
q28 0 40 32q1 4 1 9v622q0 29 -31 40q-5 2 -10 2h-181q-28 0 -40 -32q-1 -5 -1 -10zM453 1860q15 0 70 -36q238 -135 267 -155q12 -16 12 -32q0 -15 -39 -76q-56 -100 -63 -108q-15 -11 -31 -12q-14 0 -66 32q-138 80 -152 87q-187 -109 -204 -117q-9 -1 -12 -2
q-32 0 -51 44q-82 137 -82 148v7q0 30 46 50q278 162 290 167q10 3 15 3z" />
    <glyph glyph-name="odieresis" unicode="&#xf6;" horiz-adv-x="1023" 
d="M386 1236h134q124 0 200 -57q42 -29 81 -84q48 -82 48 -155v-644q0 -111 -95 -211q-78 -67 -160 -80q-29 -5 -78 -5h-127q-122 0 -188 48q-91 55 -130 164q-16 42 -16 119v575q0 118 52 192q55 87 170 126q40 12 109 12zM321 929v-622q0 -28 32 -40q4 -1 9 -1h181
q28 0 40 32q1 4 1 9v622q0 29 -31 40q-5 2 -10 2h-181q-28 0 -40 -32q-1 -5 -1 -10zM146 1705h167q41 0 50 -35q1 -2 1 -9v-178q0 -30 -34 -43q-10 -1 -17 -1h-167q-35 0 -47 35v189q0 27 32 40q5 2 15 2zM587 1705h167q41 0 50 -35q1 -2 1 -9v-178q0 -30 -34 -43
q-10 -1 -17 -1h-167q-35 0 -47 35v189q0 27 32 40q5 2 15 2z" />
    <glyph glyph-name="otilde" unicode="&#xf5;" horiz-adv-x="1023" 
d="M386 1236h134q124 0 200 -57q42 -29 81 -84q48 -82 48 -155v-644q0 -111 -95 -211q-78 -67 -160 -80q-29 -5 -78 -5h-127q-122 0 -188 48q-91 55 -130 164q-16 42 -16 119v575q0 118 52 192q55 87 170 126q40 12 109 12zM321 929v-622q0 -28 32 -40q4 -1 9 -1h181
q28 0 40 32q1 4 1 9v622q0 29 -31 40q-5 2 -10 2h-181q-28 0 -40 -32q-1 -5 -1 -10zM188 1736q16 0 49 -25q42 -26 86 -26q31 0 173 38q56 11 103 11h6q74 0 138 -27q18 -15 18 -37v-177q0 -28 -26 -41q-10 -5 -19 -5q-12 0 -54 24q-35 15 -73 15q-39 0 -166 -35
q-62 -14 -112 -14h-9q-69 0 -138 29q-21 15 -21 37v190q0 31 34 41q4 2 11 2z" />
    <glyph glyph-name="uacute" unicode="&#xfa;" 
d="M102 1235h161q35 0 47 -28q3 -7 3 -23v-877q0 -28 32 -40q5 -1 10 -1h180q28 0 40 31q2 5 2 10v877q0 36 28 47q7 4 22 4h167q32 0 44 -28q4 -7 4 -23v-1133q0 -36 -28 -47q-7 -4 -23 -4h-164q-19 0 -29 7q-33 -7 -86 -7h-134q-118 0 -191 52q-88 55 -126 170
q-13 38 -13 108v851q0 54 54 54zM654 1891q35 -12 35 -42q-1 -14 -99 -372q-11 -27 -47 -27h-173q-11 0 -19 4q-28 14 -28 36v9q0 3 95 358q11 35 47 35h173q8 0 16 -1z" />
    <glyph glyph-name="ugrave" unicode="&#xf9;" 
d="M102 1235h161q35 0 47 -28q3 -7 3 -23v-877q0 -28 32 -40q5 -1 10 -1h180q28 0 40 31q2 5 2 10v877q0 36 28 47q7 4 22 4h167q32 0 44 -28q4 -7 4 -23v-1133q0 -36 -28 -47q-7 -4 -23 -4h-164q-19 0 -29 7q-33 -7 -86 -7h-134q-118 0 -191 52q-88 55 -126 170
q-13 38 -13 108v851q0 54 54 54zM252 1892h173q36 0 47 -35q95 -355 95 -358v-9q0 -22 -28 -36q-8 -4 -19 -4h-173q-36 0 -47 27q-98 358 -99 372q0 30 35 42q8 1 16 1z" />
    <glyph glyph-name="ucircumflex" unicode="&#xfb;" 
d="M102 1235h161q35 0 47 -28q3 -7 3 -23v-877q0 -28 32 -40q5 -1 10 -1h180q28 0 40 31q2 5 2 10v877q0 36 28 47q7 4 22 4h167q32 0 44 -28q4 -7 4 -23v-1133q0 -36 -28 -47q-7 -4 -23 -4h-164q-19 0 -29 7q-33 -7 -86 -7h-134q-118 0 -191 52q-88 55 -126 170
q-13 38 -13 108v851q0 54 54 54zM446 1860q15 0 70 -36q238 -135 267 -155q12 -16 12 -32q0 -15 -39 -76q-56 -100 -63 -108q-15 -11 -31 -12q-14 0 -66 32q-138 80 -152 87q-187 -109 -204 -117q-9 -1 -12 -2q-32 0 -51 44q-82 137 -82 148v7q0 30 46 50q278 162 290 167
q10 3 15 3z" />
    <glyph glyph-name="udieresis" unicode="&#xfc;" 
d="M102 1235h161q35 0 47 -28q3 -7 3 -23v-877q0 -28 32 -40q5 -1 10 -1h180q28 0 40 31q2 5 2 10v877q0 36 28 47q7 4 22 4h167q32 0 44 -28q4 -7 4 -23v-1133q0 -36 -28 -47q-7 -4 -23 -4h-164q-19 0 -29 7q-33 -7 -86 -7h-134q-118 0 -191 52q-88 55 -126 170
q-13 38 -13 108v851q0 54 54 54zM139 1705h167q41 0 50 -35q1 -2 1 -9v-178q0 -30 -34 -43q-10 -1 -17 -1h-167q-35 0 -47 35v189q0 27 32 40q5 2 15 2zM580 1705h167q41 0 50 -35q1 -2 1 -9v-178q0 -30 -34 -43q-10 -1 -17 -1h-167q-35 0 -47 35v189q0 27 32 40q5 2 15 2z
" />
    <glyph glyph-name="dagger" unicode="&#x2020;" horiz-adv-x="850" 
d="M264 1501h187q30 0 40 -35q2 -6 2 -12v-217h128q32 0 45 -28q2 -4 2 -13v-187q-8 -38 -49 -38h-126v-1361q0 -36 -29 -47q-7 -4 -22 -4h-165q-35 0 -47 28q-3 7 -3 23v1361h-126q-36 0 -47 29q-4 7 -4 22v165q0 35 28 47q7 3 23 3h126v215q0 41 37 49z" />
    <glyph glyph-name="degree" unicode="&#xb0;" 
d="M346 1500h203q99 0 193 -78q46 -45 63 -78q40 -68 40 -173v-135q0 -118 -52 -191q-55 -88 -170 -126q-39 -13 -108 -13h-134q-119 0 -192 52q-88 55 -126 170q-13 39 -13 108v135q0 124 58 200q28 42 83 81q82 48 155 48zM316 1194v-181q0 -28 32 -40q4 -1 9 -1h181
q28 0 40 32q1 4 1 9v181q0 28 -31 40q-5 1 -10 1h-181q-28 0 -40 -31q-1 -5 -1 -10z" />
    <glyph glyph-name="cent" unicode="&#xa2;" 
d="M353 1408h186q30 0 40 -35q2 -6 2 -12v-132q57 -9 99 -33q105 -57 148 -170q16 -50 16 -90v-108q-8 -38 -49 -38h-165q-35 0 -47 29q-4 7 -4 22v85q0 28 -31 40q-5 1 -10 1h-181q-28 0 -40 -32q-1 -4 -1 -9v-623q0 -28 32 -40q4 -1 9 -1h181q28 0 40 32q1 5 1 9v85
q0 36 29 47q7 4 22 4h167q38 0 47 -38v-108q0 -108 -89 -206q-64 -58 -125 -75q-24 -8 -49 -12v-129q0 -36 -29 -47q-7 -4 -22 -4h-161q-54 0 -54 54v126q-58 9 -103 34q-55 28 -104 93q-58 76 -58 200v575q0 124 58 200q59 83 160 117q19 5 47 10v126q0 38 27 51q9 2 11 2z
" />
    <glyph glyph-name="sterling" unicode="&#xa3;" horiz-adv-x="1100" 
d="M435 1500h202q111 0 212 -95q83 -98 83 -200v-109q-8 -37 -49 -37h-165q-35 0 -47 28q-4 7 -4 22v85q0 28 -31 40q-5 1 -10 1h-181q-28 0 -40 -31q-1 -5 -1 -10v-399h210q55 0 55 -54v-161q0 -35 -29 -47q-7 -4 -22 -4h-214v-263h475q38 0 51 -27q2 -10 2 -12v-189
q-8 -38 -49 -38h-691q-54 0 -54 54v475h-34q-54 0 -54 55v161q0 35 28 47q7 3 23 3h37v376q0 124 58 200q29 42 83 81q82 48 156 48z" />
    <glyph glyph-name="section" unicode="&#xa7;" 
d="M346 1500h203q111 0 211 -95q84 -98 84 -200v-19q-7 -39 -51 -39h-163q-37 0 -48 31q-5 44 -16 44q-10 13 -28 13h-181q-28 0 -40 -31q-1 -5 -1 -10v-93q0 -28 32 -40q4 -1 9 -1h158q124 0 200 -58q42 -28 81 -83q48 -82 48 -155v-26q0 -79 -54 -164q54 -84 54 -163v-115
q0 -99 -78 -192q-45 -47 -78 -64q-67 -40 -173 -40h-134q-116 0 -189 49q-89 58 -127 165q-15 51 -15 94q0 36 40 45q4 1 14 1h161q37 0 48 -30q5 -45 16 -45q10 -13 28 -13h181q28 0 40 32q1 4 1 9v93q0 28 -31 40q-5 1 -10 1h-157q-131 0 -207 64q-78 52 -113 167
q-11 43 -11 79q0 92 55 176q-39 61 -47 109q-8 27 -8 89v46q0 124 58 200q28 42 83 81q82 48 155 48zM316 753v-5q0 -28 32 -40q4 -1 9 -1h181q28 0 40 32q1 4 1 9v5q0 28 -31 40q-5 1 -10 1h-181q-28 0 -40 -32q-1 -4 -1 -9z" />
    <glyph glyph-name="bullet" unicode="&#x2022;" horiz-adv-x="717" 
d="M79 718q0 105 74.5 179t178.5 74q105 0 179.5 -74t74.5 -179t-74.5 -179.5t-179.5 -74.5q-104 0 -178.5 74.5t-74.5 179.5z" />
    <glyph glyph-name="paragraph" unicode="&#xb6;" horiz-adv-x="1450" 
d="M520 1500h722q30 0 42 -34v-1428q-8 -38 -49 -38h-161q-54 0 -54 54v1182h-176v-1185q0 -36 -28 -47q-7 -4 -22 -4h-161q-54 0 -54 54v476h-12q-136 0 -210 35q-147 58 -233 194q-74 122 -74 255q0 192 141 344q65 59 99 75q116 67 230 67z" />
    <glyph glyph-name="germandbls" unicode="&#xdf;" 
d="M356 1500h203q111 0 211 -95q84 -98 84 -200v-379q0 -79 -54 -164q54 -84 54 -163v-203q0 -111 -95 -211q-78 -67 -160 -80q-30 -5 -78 -5h-54q-54 0 -54 54v161q0 36 28 47q7 4 22 4h85q28 0 40 32q1 4 1 9v181q0 28 -31 40q-5 1 -10 1h-81q-54 0 -54 55v161q0 35 28 47
q7 3 22 3h85q28 0 40 32q1 5 1 9v358q0 28 -31 40q-5 1 -10 1h-181q-28 0 -40 -31q-1 -5 -1 -10v-1140q0 -54 -54 -54h-161q-36 0 -47 28q-4 7 -4 23v1120q0 124 58 200q28 42 83 81q82 48 155 48z" />
    <glyph glyph-name="registered" unicode="&#xae;" horiz-adv-x="1500" 
d="M691 1500h40q163 0 330 -99q193 -121 275 -342q37 -110 37 -200v-40q0 -153 -90 -314q-122 -205 -348 -290q-114 -39 -224 -39q-247 0 -444 172q-80 78 -107 125q-111 171 -111 366q0 253 180 454q77 75 112 94q104 75 257 104q48 9 93 9zM315 846v-14q0 -165 135 -293
q119 -97 254 -97h12q177 0 306 149q86 113 86 243v10q0 176 -148 305q-114 86 -244 86h-12q-164 0 -293 -135q-96 -119 -96 -254zM827 1148q25 0 39 -30q2 -5 2 -13v-179q0 -37 -45 -44q-32 0 -42 -34q-1 -6 -1 -12v-263q0 -29 -32 -41q-5 -3 -15 -3h-171q-33 0 -45 31
q-2 5 -2 13v271q0 114 86 209q96 95 226 95z" />
    <glyph glyph-name="copyright" unicode="&#xa9;" horiz-adv-x="1700" 
d="M781 1500h39q194 0 388 -120q57 -34 136 -114q103 -112 150 -231q55 -139 55 -274v-21q0 -255 -178 -475q-70 -77 -111 -107q-212 -158 -460 -158q-288 0 -515 204q-236 233 -236 548q0 257 166 469q76 88 132 128q137 103 307 138q74 13 127 13zM314 751
q0 -211 166 -366q145 -119 309 -119h19q157 0 296 107q64 57 84 87q96 132 96 289v3q0 200 -150 350q-148 133 -326 133h-17q-189 0 -341 -147q-136 -149 -136 -337zM801 1104q140 0 240 -117q29 -37 45 -75q18 -51 18 -76q0 -27 -31 -40q-6 -2 -16 -2h-174q-36 0 -52 31
q-13 12 -25 13h-10q-29 0 -40 -34q0 -6 -1 -6q0 -2 1 -2l-1 -11v-72q0 -36 28 -47q5 -2 13 -2h10q19 0 37 29q14 14 40 14h174q47 -5 47 -45q-4 -55 -46 -124q-58 -89 -167 -126q-47 -14 -91 -14q-153 0 -255 131q-55 83 -55 183v77q0 170 148 270q78 45 163 45z" />
    <glyph glyph-name="trademark" unicode="&#x2122;" horiz-adv-x="1700" 
d="M627 1500q35 0 42 -44v-177q0 -30 -32 -41q-5 -3 -15 -3h-130v-396q0 -38 -46 -45h-171q-35 0 -48 35v406h-124q-42 0 -51 36q-1 1 -1 8v180q0 28 34 41h542zM984 1500q18 0 56 -45l115 -113q151 154 157 156q10 2 12 2h186q34 0 41 -44v-617q0 -39 -47 -45h-165
q-43 0 -51 35q-2 2 -2 9v261q-107 -107 -110 -107q-9 -6 -25 -6q-21 0 -60 45l-69 68v-260q0 -38 -46 -45h-172q-35 0 -47 35v629q0 29 34 42h193z" />
    <glyph glyph-name="acute" unicode="&#xb4;" horiz-adv-x="400" 
d="M348 1891q35 -12 35 -42q-1 -14 -99 -372q-11 -27 -47 -27h-173q-11 0 -19 4q-28 14 -28 36v9q0 3 95 358q11 35 47 35h173q8 0 16 -1z" />
    <glyph glyph-name="dieresis" unicode="&#xa8;" horiz-adv-x="700" 
d="M47 1705h167q41 0 50 -35q1 -2 1 -9v-178q0 -30 -34 -43q-10 -1 -17 -1h-167q-35 0 -47 35v189q0 27 32 40q5 2 15 2zM488 1705h167q41 0 50 -35q1 -2 1 -9v-178q0 -30 -34 -43q-10 -1 -17 -1h-167q-35 0 -47 35v189q0 27 32 40q5 2 15 2z" />
    <glyph glyph-name="notequal" unicode="&#x2260;" horiz-adv-x="1200" 
d="M597 1413h172q40 0 50 -35q1 -5 1 -10q0 -4 -62 -264h221q30 0 42 -36q1 -10 1 -16v-166q0 -33 -30 -45q-5 -2 -13 -2h-284l-42 -177h326q30 0 42 -35q1 -10 1 -16v-166q0 -33 -30 -45q-5 -2 -13 -2h-388q-2 0 -23 -94q-40 -169 -48 -195q-15 -21 -45 -21h-172
q-40 0 -49 36q-2 4 -2 9q0 4 62 265h-220q-31 0 -43 35q-1 10 -1 16v166q0 33 31 45q4 2 13 2h283l43 177h-326q-31 0 -43 35q-1 10 -1 17v165q0 33 31 45q4 3 13 3h387q3 0 23 94q40 169 49 194q14 21 44 21z" />
    <glyph glyph-name="AE" unicode="&#xc6;" horiz-adv-x="1350" 
d="M346 1500h203q111 0 211 -95q84 -98 84 -200v-1166q0 -25 -35 -38q-11 -1 -18 -1h-161q-35 0 -47 28q-4 7 -4 23v478h-263v-475q0 -54 -54 -54h-161q-36 0 -47 28q-4 7 -4 23v1120q0 124 58 200q28 42 83 81q82 48 155 48zM316 1194v-399h263v399q0 28 -31 40q-5 1 -10 1
h-181q-28 0 -40 -31q-1 -5 -1 -10zM1157 1500q29 0 40 -35v-191q0 -25 -35 -38q-11 -1 -18 -1h-299v-440h217q32 0 44 -28q4 -7 4 -22v-161q0 -55 -54 -55h-211v-263h305q38 0 47 -38v-189q0 -25 -35 -38q-11 -1 -18 -1h-518q-47 5 -47 47v1407q0 35 35 46h543z" />
    <glyph glyph-name="Oslash" unicode="&#xd8;" 
d="M352 1853h190q25 0 37 -35q2 -11 2 -18v-126q57 -9 99 -33q105 -57 148 -170q16 -50 16 -90v-908q0 -107 -89 -206q-64 -58 -125 -75q-24 -8 -49 -12v-129q0 -36 -29 -47q-7 -4 -22 -4h-161q-54 0 -54 54v126q-58 9 -103 34q-55 28 -104 93q-58 76 -58 200v840
q0 124 58 200q59 83 160 117q19 5 47 10v130q0 41 37 49zM316 1371v-887q0 -29 32 -40q4 -2 9 -2h181q28 0 40 32q1 5 1 10v887q0 28 -31 40q-5 1 -10 1h-181q-28 0 -40 -32q-1 -5 -1 -9z" />
    <glyph glyph-name="infinity" unicode="&#x221e;" horiz-adv-x="2050" 
d="M536 1236q255 0 441 -247h1q183 247 440 247q163 0 303 -105q61 -53 86 -89q97 -135 97 -291q0 -196 -146 -347q-150 -139 -340 -139q-257 0 -440 247h-1q-186 -247 -440 -247q-164 0 -303 106q-69 60 -93 97q-91 134 -91 283q0 194 146 347q151 138 340 138zM315 756
q1 -2 1 -4v-3q0 -3 -1 -3q0 -51 33 -112q40 -64 117 -93q44 -12 65 -12l7 2q3 0 5 -2q128 0 240 165q12 16 39 57q-51 80 -109 141q-57 54 -102 68q-44 12 -67 12l-7 -1q-3 0 -5 1q-62 0 -127 -44q-42 -36 -59 -66q-30 -58 -30 -106zM1134 751q43 -71 107 -142
q82 -80 170 -80q5 2 10 2q1 0 3 -2q51 0 111 33q104 73 104 190q0 106 -91 177q-59 42 -121 42q0 1 -3 1q-2 -1 -6 -1t-6 1q-127 0 -237 -161q-18 -22 -41 -60z" />
    <glyph glyph-name="plusminus" unicode="&#xb1;" horiz-adv-x="1200" 
d="M455 1416h164q36 0 47 -28q4 -7 4 -22v-302h299q54 0 54 -55v-161q0 -35 -28 -47q-8 -3 -23 -3h-302v-303q0 -35 -28 -47q-8 -3 -23 -3h-164q-36 0 -48 28q-3 7 -3 22v303h-299q-54 0 -54 54v161q0 35 28 47q7 4 23 4h302v302q0 35 28 47q7 3 23 3zM100 266h867
q54 0 54 -55v-161q0 -35 -28 -47q-8 -3 -23 -3h-867q-54 0 -54 54v161q0 35 28 47q7 4 23 4z" />
    <glyph glyph-name="lessequal" unicode="&#x2264;" horiz-adv-x="900" 
d="M429 1213h254q29 0 41 -35v-16q0 -17 -46 -58l-273 -274q310 -307 316 -316q3 -11 3 -14v-13q0 -23 -31 -37q-5 -1 -10 -1h-254q-23 0 -59 42q-316 315 -316 318q-5 14 -5 21v1q0 25 38 56q313 315 320 319q9 7 22 7zM100 266h567q54 0 54 -54v-161q0 -36 -28 -47
q-8 -4 -23 -4h-567q-54 0 -54 54v161q0 36 28 47q7 4 23 4z" />
    <glyph glyph-name="greaterequal" unicode="&#x2265;" horiz-adv-x="900" 
d="M367 1206q7 -4 320 -319q37 -31 37 -56v-1q0 -7 -4 -21q0 -3 -317 -318q-36 -42 -59 -42h-254q-5 0 -9 1q-32 14 -32 37v13q0 3 4 14q5 9 315 316l-273 274q-46 41 -46 58v16q13 35 41 35h254q13 0 23 -7zM100 266h567q54 0 54 -54v-161q0 -36 -28 -47q-8 -4 -23 -4h-567
q-54 0 -54 54v161q0 36 28 47q7 4 23 4z" />
    <glyph glyph-name="yen" unicode="&#xa5;" 
d="M41 1500h196q34 0 47 -55q6 -12 160 -432h2l173 467q16 20 32 20h201q23 0 37 -33v-14q0 -10 -39 -111l-267 -724h217q32 0 42 -39v-180q-5 -46 -46 -46h-218v-306q0 -35 -35 -46q-8 -1 -15 -1h-168q-33 0 -46 32q-2 10 -2 28v293h-219q-32 0 -44 31q-2 4 -2 13v179
q7 42 42 42h218q-306 827 -306 831q-1 5 -1 9q8 42 41 42z" />
    <glyph glyph-name="mu1" unicode="&#xb5;" 
d="M88 1500h190q38 -8 38 -49v-703q0 -28 32 -40q4 -1 9 -1h181q28 0 40 32q1 4 1 9v703q0 41 38 49h189q26 0 38 -35v-727q0 -99 -78 -193q-45 -47 -78 -64q-68 -40 -173 -40h-134q-41 0 -65 4v-394q0 -36 -28 -47q-8 -4 -23 -4h-164q-36 0 -47 28q-4 7 -4 23v1400
q0 41 38 49z" />
    <glyph glyph-name="partialdiff" unicode="&#x2202;" 
d="M626 1484q115 -42 168 -128q49 -73 49 -188v-838q0 -70 -13 -108q-38 -115 -126 -170q-73 -52 -191 -52h-134q-105 0 -172 40q-33 17 -79 63q-77 94 -77 193v378q0 101 82 198q55 52 93 67q55 30 163 30h189v222q0 9 -3 13q-14 28 -36 28h-185q-3 0 -12 -2
q-28 -13 -28 -50q-11 -36 -46 -36h-170q-10 0 -16 3q-31 12 -31 36v19q0 108 90 206q98 90 215 90q88 5 183 0q33 0 87 -14zM350 704q-35 -12 -35 -41v-357q0 -5 1 -9q12 -32 40 -32h181q4 0 9 1q32 12 32 40v398h-228z" />
    <glyph glyph-name="summation" unicode="&#x2211;" 
d="M89 1500h715q29 0 40 -35v-191q0 -25 -35 -38q-11 -1 -18 -1h-429v-1q214 -444 227 -473q1 -6 1 -12q0 -14 -38 -85l-190 -398h435q38 0 47 -38v-189q0 -25 -35 -38q-11 -1 -18 -1h-690q-36 0 -47 28q-4 7 -4 23v167q0 16 20 54l231 479l-250 518q-1 8 -1 13v165
q0 38 27 51q10 2 12 2z" />
    <glyph glyph-name="product" unicode="&#x220f;" 
d="M88 1500h716q29 0 40 -35v-1427q-8 -38 -49 -38h-165q-35 0 -47 28q-4 7 -4 23v1184h-263v-1184q0 -36 -28 -47q-8 -4 -23 -4h-164q-36 0 -47 28q-4 7 -4 23v1400q0 41 38 49z" />
    <glyph glyph-name="pi1" horiz-adv-x="1350" 
d="M68 1500h1071q26 0 38 -35v-192q-8 -38 -49 -38h-126v-894q0 -62 20 -67q9 -8 20 -8h88q32 0 45 -28q2 -5 2 -13v-184q0 -29 -35 -40q-6 -1 -14 -1h-57q-117 0 -182 45q-94 55 -132 159q-19 53 -19 94q-2 0 -2 17v920h-264v-1184q0 -36 -28 -47q-7 -4 -22 -4h-165
q-35 0 -47 28q-4 7 -4 23v1184h-122q-54 0 -54 54v162q0 41 38 49z" />
    <glyph glyph-name="integral" unicode="&#x222b;" horiz-adv-x="700" 
d="M473 1895h105q29 0 40 -35v-192q-8 -38 -49 -38h-85q-28 0 -40 -32q-1 -4 -1 -9v-1658q0 -118 -52 -192q-55 -88 -171 -126q-38 -13 -108 -13h-61q-36 0 -47 28q-4 7 -4 23v164q0 36 28 47q7 4 23 4h84q28 0 40 32q2 4 2 9v1658q0 125 57 201q29 42 84 81q82 48 155 48z
" />
    <glyph glyph-name="ordfeminine" unicode="&#xaa;" 
d="M344 1500h203q93 0 185 -71q57 -54 68 -81q42 -75 42 -147v-805q0 -32 -38 -42h-440q-173 0 -270 149q-45 75 -45 159v87q0 159 135 257q52 38 132 51q22 3 69 3h193v131q0 30 -28 42q-8 3 -11 3h-183q-31 0 -41 -36q0 -36 -30 -50q-13 -3 -19 -3h-166q-41 0 -50 36
q-1 4 -1 9q0 156 136 256q83 52 159 52zM364 669q0 -41 37 -49q21 -2 35 -2h193v177h-222q-32 0 -43 -39v-87z" />
    <glyph glyph-name="ordmasculine" unicode="&#xba;" 
d="M345 1500h204q95 0 190 -74q61 -62 71 -93q34 -67 34 -130v-6q0 -4 2 -4l-2 -6v-535q0 -113 -95 -214q-93 -84 -220 -84h-163q-173 0 -272 150q-43 74 -43 164v520q0 166 145 266q81 46 149 46zM315 1167v-478q0 -41 8 -51q11 -20 55 -20h131q52 0 52 10q19 12 19 34v529
q0 30 -28 42q-8 3 -11 3h-183q-32 0 -41 -37q-2 -16 -2 -32z" />
    <glyph glyph-name="Ohm" unicode="&#x2126;" horiz-adv-x="1250" 
d="M347 1500h467q111 0 211 -95q84 -98 84 -200v-556q0 -80 -55 -164q-51 -67 -103 -92q-17 -9 -17 -11v-116h128q38 0 47 -38v-189q0 -25 -35 -38q-11 -1 -18 -1h-341q-47 5 -47 47v521q0 36 28 47q7 4 22 4h85q28 0 40 32q1 4 1 9v534q0 28 -32 40q-4 1 -9 1h-446
q-28 0 -40 -31q-1 -5 -1 -10v-534q0 -28 32 -40q4 -1 9 -1h81q54 0 54 -54v-518q-5 -47 -47 -47h-344q-36 0 -47 28q-4 7 -4 23v161q0 54 54 54h123v116q-41 22 -78 53q-61 65 -79 118q-20 50 -20 131v487q0 124 58 200q28 42 83 81q82 48 156 48z" />
    <glyph glyph-name="ae" unicode="&#xe6;" horiz-adv-x="1550" 
d="M381 1236h134q118 0 191 -51q88 -56 126 -171q13 -40 13 -108v-858q0 -38 -37 -47q-5 -1 -11 -1h-416q-119 0 -192 52q-88 55 -126 170q-13 39 -13 109v134q0 118 52 191q55 88 170 126q40 13 109 13h198v134q0 29 -31 40q-5 2 -10 2h-181q-28 0 -40 -32q0 -57 -52 -57
h-163q-36 0 -48 29q-3 7 -4 17q0 131 105 231q68 57 141 70q29 7 85 7zM316 488v-181q0 -28 32 -40q4 -1 9 -1h222v263h-222q-28 0 -40 -31q-1 -5 -1 -10zM907 1236h134q124 0 200 -57q42 -29 81 -84q48 -82 48 -155v-202q0 -99 -78 -193q-45 -47 -78 -64q-68 -40 -173 -40
h-199v-134q0 -28 32 -40q4 -1 9 -1h181q28 0 40 32q0 56 52 56h161q38 0 51 -27q2 -9 2 -12v-19q0 -99 -78 -192q-45 -47 -78 -64q-68 -40 -173 -40h-134q-119 0 -192 52q-88 55 -126 170q-13 39 -13 109v575q0 118 52 192q55 87 170 126q40 12 109 12zM842 929v-222h222
q28 0 40 32q1 4 1 9v181q0 29 -31 40q-5 2 -10 2h-181q-28 0 -40 -32q-1 -5 -1 -10z" />
    <glyph glyph-name="oslash" unicode="&#xf8;" 
d="M353 1411h186q30 0 40 -35q2 -6 2 -12v-132q57 -9 99 -33q105 -57 148 -170q16 -50 16 -90v-643q0 -108 -89 -206q-64 -58 -125 -75q-24 -8 -49 -12v-129q0 -36 -29 -47q-7 -4 -22 -4h-161q-54 0 -54 54v126q-58 9 -103 34q-55 28 -104 93q-58 76 -58 200v575
q0 124 58 200q59 83 160 117q19 5 47 10v126q0 38 27 51q9 2 11 2zM316 929v-623q0 -28 32 -40q4 -1 9 -1h181q28 0 40 32q1 5 1 9v623q0 28 -31 40q-5 1 -10 1h-181q-28 0 -40 -32q-1 -4 -1 -9z" />
    <glyph glyph-name="questiondown" unicode="&#xbf;" 
d="M547 -264h-203q-111 0 -212 95q-83 98 -83 200v291q0 106 88 205q94 91 230 91q34 13 34 42v84q0 36 28 47q7 4 22 4h164q52 0 52 -54v-58q0 -129 -63 -206q-54 -79 -168 -114q-21 -7 -89 -12q-19 0 -32 -30q-1 -5 -1 -10v-269q0 -28 31 -40q5 -1 10 -1h181q28 0 40 31
q1 5 1 10v85q0 35 28 47q7 3 23 3h161q54 0 54 -54v-58q0 -124 -58 -200q-28 -42 -83 -81q-82 -48 -155 -48zM612 970h-163q-32 0 -45 28q-3 7 -3 23v161q0 54 54 54h161q35 0 47 -28q4 -7 4 -23v-161q0 -54 -55 -54z" />
    <glyph glyph-name="exclamdown" unicode="&#xa1;" horiz-adv-x="500" 
d="M277 -264h-187q-29 0 -40 35q-1 6 -1 12v961q0 36 28 47q7 4 23 4h164q36 0 47 -28q4 -8 4 -23v-959q0 -41 -38 -49zM261 970h-164q-32 0 -44 28q-4 7 -4 23v161q0 54 54 54h161q36 0 47 -28q4 -7 4 -23v-161q0 -54 -54 -54z" />
    <glyph glyph-name="logicalnot" unicode="&#xac;" horiz-adv-x="1250" 
d="M101 972h955q54 0 54 -54v-426q0 -36 -28 -47q-7 -4 -23 -4h-164q-36 0 -47 28q-4 8 -4 23v214h-742q-52 0 -52 54v161q0 36 28 47q7 4 23 4z" />
    <glyph glyph-name="radical" unicode="&#x221a;" horiz-adv-x="1200" 
d="M689 1500h382q26 0 38 -35q1 -11 1 -18v-161q0 -35 -28 -47q-7 -4 -22 -4h-188l-288 -1210q-16 -25 -43 -25h-179q-35 0 -46 35q-138 579 -138 583h-74q-54 0 -54 54v161q0 35 28 47q7 4 23 4h250q32 0 45 -29q2 -6 55 -230h1q199 843 204 853q16 22 33 22z" />
    <glyph glyph-name="florin" unicode="&#x192;" horiz-adv-x="800" 
d="M473 1492h105q29 0 40 -35v-192q-8 -38 -49 -38h-85q-28 0 -40 -32q-1 -4 -1 -9v-134h128q32 0 45 -28q2 -5 2 -13v-188q-8 -37 -49 -37h-126v-905q0 -118 -52 -192q-55 -88 -171 -126q-38 -13 -108 -13h-61q-36 0 -47 28q-4 7 -4 23v164q0 36 28 47q7 4 23 4h84
q28 0 40 32q2 4 2 9v929h-126q-36 0 -47 28q-4 7 -4 22v165q0 36 28 47q7 4 23 4h126v110q0 125 57 201q29 42 84 81q82 48 155 48z" />
    <glyph glyph-name="approxequal" unicode="&#x2248;" horiz-adv-x="850" 
d="M96 1007q17 0 52 -25q45 -26 90 -26q33 0 182 38q59 11 109 11h6q78 0 145 -27q19 -15 19 -37v-177q0 -28 -28 -41q-10 -5 -19 -5q-12 0 -57 24q-37 15 -77 15q-41 0 -174 -35q-66 -14 -118 -14h-10q-72 0 -145 29q-22 15 -22 37v190q0 31 36 41q4 2 11 2zM96 548
q17 0 52 -25q45 -26 90 -26q33 0 182 38q59 11 109 11h6q78 0 145 -27q19 -15 19 -37v-177q0 -28 -28 -41q-10 -5 -19 -5q-12 0 -57 24q-37 15 -77 15q-41 0 -174 -35q-66 -14 -118 -14h-10q-72 0 -145 29q-22 15 -22 37v190q0 31 36 41q4 2 11 2z" />
    <glyph glyph-name="uni2206" unicode="&#x2206;" horiz-adv-x="1150" 
d="M415 1500h198q28 0 40 -47q2 -13 335 -1254q39 -143 39 -151v-7q0 -29 -35 -40q-6 -1 -12 -1h-932q-33 0 -46 31q-2 11 -2 15q14 58 314 1176q66 249 71 258q15 20 30 20zM513 942l-180 -676h362l-180 676h-2z" />
    <glyph glyph-name="guillemotleft" unicode="&#xab;" horiz-adv-x="1500" 
d="M429 1151h254q29 0 41 -35v-16q0 -17 -46 -58l-273 -274q310 -307 316 -316q3 -11 3 -14v-13q0 -23 -31 -37q-5 -1 -10 -1h-254q-23 0 -59 42q-316 315 -316 318q-5 14 -5 21v1q0 25 38 56q313 315 320 319q9 7 22 7zM1023 1151h254q29 0 41 -35v-16q0 -17 -46 -58
l-273 -274q310 -307 316 -316q3 -11 3 -14v-13q0 -23 -31 -37q-5 -1 -10 -1h-254q-23 0 -59 42q-316 315 -316 318q-5 14 -5 21v1q0 25 38 56q313 315 320 319q9 7 22 7z" />
    <glyph glyph-name="guillemotright" unicode="&#xbb;" horiz-adv-x="1500" 
d="M367 1144q7 -4 320 -319q37 -31 37 -56v-1q0 -7 -4 -21q0 -3 -317 -318q-36 -42 -59 -42h-254q-5 0 -9 1q-32 14 -32 37v13q0 3 4 14q5 9 315 316l-273 274q-46 41 -46 58v16q13 35 41 35h254q13 0 23 -7zM961 1144q7 -4 320 -319q37 -31 37 -56v-1q0 -7 -4 -21
q0 -3 -317 -318q-36 -42 -59 -42h-254q-5 0 -9 1q-32 14 -32 37v13q0 3 4 14q5 9 315 316l-273 274q-46 41 -46 58v16q13 35 41 35h254q13 0 23 -7z" />
    <glyph glyph-name="ellipsis" unicode="&#x2026;" horiz-adv-x="1400" 
d="M97 266h167q41 0 50 -35q1 -2 1 -9v-178q0 -30 -34 -43q-10 -1 -17 -1h-167q-35 0 -47 35v189q0 27 32 40q5 2 15 2zM548 266h167q41 0 50 -35q1 -2 1 -9v-178q0 -30 -34 -43q-10 -1 -17 -1h-167q-35 0 -47 35v189q0 27 32 40q5 2 15 2zM997 266h167q41 0 50 -35
q1 -2 1 -9v-178q0 -30 -34 -43q-10 -1 -17 -1h-167q-35 0 -47 35v189q0 27 32 40q5 2 15 2z" />
    <glyph glyph-name="Agrave" unicode="&#xc0;" 
d="M346 1500h203q111 0 211 -95q84 -98 84 -200v-1166q0 -25 -35 -38q-11 -1 -18 -1h-161q-35 0 -47 28q-4 7 -4 23v478h-263v-475q0 -54 -54 -54h-161q-36 0 -47 28q-4 7 -4 23v1120q0 124 58 200q28 42 83 81q82 48 155 48zM316 1194v-399h263v399q0 28 -31 40q-5 1 -10 1
h-181q-28 0 -40 -31q-1 -5 -1 -10zM254 2156h173q36 0 47 -35q95 -355 95 -358v-9q0 -22 -28 -36q-8 -4 -19 -4h-173q-36 0 -47 27q-98 358 -99 372q0 30 35 42q8 1 16 1z" />
    <glyph glyph-name="Atilde" unicode="&#xc3;" 
d="M346 1500h203q111 0 211 -95q84 -98 84 -200v-1166q0 -25 -35 -38q-11 -1 -18 -1h-161q-35 0 -47 28q-4 7 -4 23v478h-263v-475q0 -54 -54 -54h-161q-36 0 -47 28q-4 7 -4 23v1120q0 124 58 200q28 42 83 81q82 48 155 48zM316 1194v-399h263v399q0 28 -31 40q-5 1 -10 1
h-181q-28 0 -40 -31q-1 -5 -1 -10zM183 2000q16 0 49 -25q42 -26 86 -26q31 0 173 38q56 11 103 11h6q74 0 138 -27q18 -15 18 -37v-177q0 -28 -26 -41q-10 -5 -19 -5q-12 0 -54 24q-35 15 -73 15q-39 0 -166 -35q-62 -14 -112 -14h-9q-69 0 -138 29q-21 15 -21 37v190
q0 31 34 41q4 2 11 2z" />
    <glyph glyph-name="Otilde" unicode="&#xd5;" 
d="M346 1500h203q111 0 211 -95q84 -98 84 -200v-909q0 -99 -78 -192q-45 -47 -78 -64q-68 -40 -173 -40h-134q-119 0 -192 52q-88 55 -126 170q-13 39 -13 109v840q0 124 58 200q28 42 83 81q82 48 155 48zM316 1194v-887q0 -28 32 -40q4 -1 9 -1h181q28 0 40 32q1 4 1 9
v887q0 28 -31 40q-5 1 -10 1h-181q-28 0 -40 -31q-1 -5 -1 -10zM183 2000q16 0 49 -25q42 -26 86 -26q31 0 173 38q56 11 103 11h6q74 0 138 -27q18 -15 18 -37v-177q0 -28 -26 -41q-10 -5 -19 -5q-12 0 -54 24q-35 15 -73 15q-39 0 -166 -35q-62 -14 -112 -14h-9
q-69 0 -138 29q-21 15 -21 37v190q0 31 34 41q4 2 11 2z" />
    <glyph glyph-name="OE" unicode="&#x152;" horiz-adv-x="1350" 
d="M346 1500h203q111 0 211 -95q84 -98 84 -200v-909q0 -99 -78 -192q-45 -47 -78 -64q-68 -40 -173 -40h-134q-119 0 -192 52q-88 55 -126 170q-13 39 -13 109v840q0 124 58 200q28 42 83 81q82 48 155 48zM316 1194v-887q0 -28 32 -40q4 -1 9 -1h181q28 0 40 32q1 4 1 9
v887q0 28 -31 40q-5 1 -10 1h-181q-28 0 -40 -31q-1 -5 -1 -10zM1156 1500q29 0 40 -35v-191q0 -25 -35 -38q-11 -1 -18 -1h-299v-440h217q32 0 44 -28q4 -7 4 -22v-161q0 -55 -54 -55h-211v-263h305q38 0 47 -38v-189q0 -25 -35 -38q-11 -1 -18 -1h-518q-47 5 -47 47v1407
q0 35 35 46h543z" />
    <glyph glyph-name="oe" unicode="&#x153;" horiz-adv-x="1550" 
d="M386 1236h134q124 0 200 -57q42 -29 81 -84q48 -82 48 -155v-644q0 -111 -95 -211q-78 -67 -160 -80q-29 -5 -78 -5h-127q-122 0 -188 48q-91 55 -130 164q-16 42 -16 119v575q0 118 52 192q55 87 170 126q40 12 109 12zM321 929v-622q0 -28 32 -40q4 -1 9 -1h181
q28 0 40 32q1 4 1 9v622q0 29 -31 40q-5 2 -10 2h-181q-28 0 -40 -32q-1 -5 -1 -10zM914 1236h134q124 0 200 -57q42 -29 81 -84q48 -82 48 -155v-202q0 -99 -78 -193q-45 -47 -78 -64q-68 -40 -173 -40h-199v-134q0 -28 32 -40q4 -1 9 -1h181q28 0 40 32q0 56 52 56h161
q38 0 51 -27q2 -9 2 -12v-19q0 -99 -78 -192q-45 -47 -78 -64q-68 -40 -173 -40h-134q-119 0 -192 52q-88 55 -126 170q-13 39 -13 109v575q0 118 52 192q55 87 170 126q40 12 109 12zM849 929v-222h222q28 0 40 32q1 4 1 9v181q0 29 -31 40q-5 2 -10 2h-181q-28 0 -40 -32
q-1 -5 -1 -10z" />
    <glyph glyph-name="endash" unicode="&#x2013;" horiz-adv-x="1100" 
d="M100 884h767q54 0 54 -55v-161q0 -35 -28 -47q-8 -3 -23 -3h-767q-54 0 -54 54v161q0 35 28 47q7 4 23 4z" />
    <glyph glyph-name="emdash" unicode="&#x2014;" horiz-adv-x="1300" 
d="M100 884h967q54 0 54 -55v-161q0 -35 -28 -47q-8 -3 -23 -3h-967q-54 0 -54 54v161q0 35 28 47q7 4 23 4z" />
    <glyph glyph-name="quotedblleft" unicode="&#x201c;" horiz-adv-x="1050" 
d="M568 1879h173q36 0 47 -35q95 -355 95 -358v-9q0 -22 -28 -36q-8 -4 -19 -4h-173q-36 0 -47 27q-98 358 -99 372q0 30 35 42q8 1 16 1zM105 1880h173q37 0 47 -36q95 -354 95 -357v-10q0 -22 -28 -36q-8 -4 -19 -4h-173q-35 0 -47 27q-98 358 -99 372q0 30 36 43
q7 1 15 1z" />
    <glyph glyph-name="quotedblright" unicode="&#x201d;" horiz-adv-x="1050" 
d="M385 1878q35 -12 35 -42q-1 -14 -99 -372q-11 -27 -47 -27h-173q-11 0 -19 4q-28 14 -28 36v9q0 3 95 358q11 35 47 35h173q8 0 16 -1zM847 1879q36 -13 36 -43q-1 -14 -99 -372q-12 -27 -47 -27h-173q-11 0 -19 4q-28 14 -28 36v10q0 3 95 357q10 36 47 36h173
q8 0 15 -1z" />
    <glyph glyph-name="quoteleft" unicode="&#x2018;" horiz-adv-x="550" 
d="M98 1892h173q36 0 47 -35q95 -355 95 -358v-9q0 -22 -28 -36q-8 -4 -19 -4h-173q-36 0 -47 27q-98 358 -99 372q0 30 35 42q8 1 16 1z" />
    <glyph glyph-name="quoteright" unicode="&#x2019;" horiz-adv-x="550" 
d="M378 1891q35 -12 35 -42q-1 -14 -99 -372q-11 -27 -47 -27h-173q-11 0 -19 4q-28 14 -28 36v9q0 3 95 358q11 35 47 35h173q8 0 16 -1z" />
    <glyph glyph-name="divide" unicode="&#xf7;" horiz-adv-x="1200" 
d="M100 884h867q54 0 54 -55v-161q0 -35 -28 -47q-8 -3 -23 -3h-867q-54 0 -54 54v161q0 35 28 47q7 4 23 4zM449 484h167q41 0 50 -35q1 -2 1 -9v-178q0 -30 -34 -43q-10 -1 -17 -1h-167q-35 0 -47 35v189q0 27 32 40q5 2 15 2zM449 1283h167q41 0 50 -35q1 -2 1 -8v-179
q0 -30 -34 -43q-10 -1 -17 -1h-167q-35 0 -47 36v188q0 28 32 40q5 2 15 2z" />
    <glyph glyph-name="lozenge" unicode="&#x25ca;" horiz-adv-x="1150" 
d="M418 1500h240q33 0 52 -58q316 -673 319 -681v-17q0 -9 -51 -111q0 -4 -287 -614q-13 -19 -43 -19h-220q-37 0 -51 42q-325 694 -325 696q-2 5 -2 14q0 12 40 93q292 626 301 641q15 14 27 14zM540 1175q-198 -423 -198 -426l198 -423h1l197 425v1l-197 423h-1z" />
    <glyph glyph-name="ydieresis" unicode="&#xff;" 
d="M89 1236h189q38 -8 38 -49v-879q0 -28 32 -40q4 -1 9 -1h181q28 0 40 32q1 4 1 9v879q0 41 38 49h187q29 0 40 -35v-1345q0 -99 -78 -192q-45 -47 -78 -64q-68 -40 -173 -40h-414q-36 0 -47 28q-4 7 -4 23v164q0 36 28 47q7 4 23 4h437q28 0 40 32q1 4 1 9v138
q-24 -4 -64 -4h-134q-119 0 -192 52q-88 55 -126 170q-13 39 -13 109v851q0 38 27 51q10 2 12 2zM141 1705h167q41 0 50 -35q1 -2 1 -9v-178q0 -30 -34 -43q-10 -1 -17 -1h-167q-35 0 -47 35v189q0 27 32 40q5 2 15 2zM582 1705h167q41 0 50 -35q1 -2 1 -9v-178
q0 -30 -34 -43q-10 -1 -17 -1h-167q-35 0 -47 35v189q0 27 32 40q5 2 15 2z" />
    <glyph glyph-name="Ydieresis" unicode="&#x178;" 
d="M61 1500h196q34 0 47 -55q6 -12 160 -432h2l173 467q16 20 32 20h201q23 0 37 -33v-14q0 -10 -40 -114q-271 -733 -271 -735v-557q0 -35 -35 -46q-8 -1 -15 -1h-168q-33 0 -46 32q-2 10 -2 28v543q-6 20 -266 723q-46 120 -46 130v2q8 42 41 42zM169 1969h167
q41 0 50 -35q1 -2 1 -9v-178q0 -30 -34 -43q-10 -1 -17 -1h-167q-35 0 -47 35v189q0 27 32 40q5 2 15 2zM610 1969h167q41 0 50 -35q1 -2 1 -9v-178q0 -30 -34 -43q-10 -1 -17 -1h-167q-35 0 -47 35v189q0 27 32 40q5 2 15 2z" />
    <glyph glyph-name="fraction" unicode="&#x2044;" horiz-adv-x="800" 
d="M458 1653h196q39 -10 39 -44l-211 -891l-214 -894q-15 -24 -46 -24h-171q-36 0 -49 28q-2 11 -2 16v2q0 6 263 1114l160 669q17 24 35 24z" />
    <glyph glyph-name="fraction" unicode="&#x2215;" horiz-adv-x="800" 
d="M458 1653h196q39 -10 39 -44l-211 -891l-214 -894q-15 -24 -46 -24h-171q-36 0 -49 28q-2 11 -2 16v2q0 6 263 1114l160 669q17 24 35 24z" />
    <glyph glyph-name="Euro" unicode="&#x20ac;" 
d="M415 1500h371q26 0 38 -35v-192q-8 -38 -49 -38h-350q-28 0 -40 -31q-1 -5 -1 -10v-399h299q54 0 54 -54v-161q0 -35 -28 -47q-7 -4 -23 -4h-302v-222q0 -28 32 -40q4 -1 9 -1h346q38 0 51 -27q2 -10 2 -12v-189q-8 -38 -49 -38h-326q-119 0 -192 52q-88 55 -126 170
q-13 39 -13 109v198h-34q-54 0 -54 55v161q0 35 28 47q7 3 23 3h37v376q0 124 58 200q29 42 83 81q82 48 156 48z" />
    <glyph glyph-name="guilsinglleft" unicode="&#x2039;" horiz-adv-x="900" 
d="M429 1151h254q29 0 41 -35v-16q0 -17 -46 -58l-273 -274q310 -307 316 -316q3 -11 3 -14v-13q0 -23 -31 -37q-5 -1 -10 -1h-254q-23 0 -59 42q-316 315 -316 318q-5 14 -5 21v1q0 25 38 56q313 315 320 319q9 7 22 7z" />
    <glyph glyph-name="guilsinglright" unicode="&#x203a;" horiz-adv-x="850" 
d="M367 1144q7 -4 320 -319q37 -31 37 -56v-1q0 -7 -4 -21q0 -3 -317 -318q-36 -42 -59 -42h-254q-5 0 -9 1q-32 14 -32 37v13q0 3 4 14q5 9 315 316l-273 274q-46 41 -46 58v16q13 35 41 35h254q13 0 23 -7z" />
    <glyph glyph-name="fi" unicode="&#xf001;" horiz-adv-x="1150" 
d="M393 1499h105q29 0 40 -35v-192q-8 -38 -49 -38h-85q-28 0 -40 -32q-1 -4 -1 -9v-134h128q32 0 45 -28q2 -5 2 -13v-188q-8 -37 -49 -37h-126v-905q0 -118 -52 -192q-55 -88 -171 -126q-38 -13 -108 -13h-61q-36 0 -47 28q-4 7 -4 23v164q0 36 28 47q7 4 23 4h84
q28 0 40 32q2 4 2 9v1305q0 125 57 201q29 42 84 81q82 48 155 48zM749 1685h187q29 0 40 -35v-192q0 -25 -35 -38q-11 -1 -18 -1h-162q-36 0 -47 28q-4 7 -4 23v162q0 38 27 51q10 2 12 2zM760 1243h165q38 0 47 -38v-1166q0 -25 -35 -38q-11 -1 -18 -1h-162q-36 0 -47 28
q-4 8 -4 23v1137q0 55 54 55z" />
    <glyph glyph-name="fi" unicode="&#xfb01;" horiz-adv-x="1150" 
d="M393 1499h105q29 0 40 -35v-192q-8 -38 -49 -38h-85q-28 0 -40 -32q-1 -4 -1 -9v-134h128q32 0 45 -28q2 -5 2 -13v-188q-8 -37 -49 -37h-126v-905q0 -118 -52 -192q-55 -88 -171 -126q-38 -13 -108 -13h-61q-36 0 -47 28q-4 7 -4 23v164q0 36 28 47q7 4 23 4h84
q28 0 40 32q2 4 2 9v1305q0 125 57 201q29 42 84 81q82 48 155 48zM749 1685h187q29 0 40 -35v-192q0 -25 -35 -38q-11 -1 -18 -1h-162q-36 0 -47 28q-4 7 -4 23v162q0 38 27 51q10 2 12 2zM760 1243h165q38 0 47 -38v-1166q0 -25 -35 -38q-11 -1 -18 -1h-162q-36 0 -47 28
q-4 8 -4 23v1137q0 55 54 55z" />
    <glyph glyph-name="fl" unicode="&#xf002;" horiz-adv-x="1137" 
d="M393 1499h105q29 0 40 -35v-192q-8 -38 -49 -38h-85q-28 0 -40 -32q-1 -4 -1 -9v-134h128q32 0 45 -28q2 -5 2 -13v-188q-8 -37 -49 -37h-126v-905q0 -118 -52 -192q-55 -88 -171 -126q-38 -13 -108 -13h-61q-36 0 -47 28q-4 7 -4 23v164q0 36 28 47q7 4 23 4h84
q28 0 40 32q2 4 2 9v1305q0 125 57 201q29 42 84 81q82 48 155 48zM740 1500h186q29 0 40 -35q1 -6 1 -14v-1397q0 -54 -54 -54h-158q-54 0 -54 54v1393q0 38 27 51q10 2 12 2z" />
    <glyph glyph-name="fl" unicode="&#xfb02;" horiz-adv-x="1137" 
d="M393 1499h105q29 0 40 -35v-192q-8 -38 -49 -38h-85q-28 0 -40 -32q-1 -4 -1 -9v-134h128q32 0 45 -28q2 -5 2 -13v-188q-8 -37 -49 -37h-126v-905q0 -118 -52 -192q-55 -88 -171 -126q-38 -13 -108 -13h-61q-36 0 -47 28q-4 7 -4 23v164q0 36 28 47q7 4 23 4h84
q28 0 40 32q2 4 2 9v1305q0 125 57 201q29 42 84 81q82 48 155 48zM740 1500h186q29 0 40 -35q1 -6 1 -14v-1397q0 -54 -54 -54h-158q-54 0 -54 54v1393q0 38 27 51q10 2 12 2z" />
    <glyph glyph-name="daggerdbl" unicode="&#x2021;" horiz-adv-x="850" 
d="M263 1500h187q30 0 40 -35q2 -6 2 -12v-217h128q32 0 45 -28q2 -4 2 -13v-187q-8 -38 -49 -38h-126v-175h128q32 0 45 -28q2 -5 2 -13v-187q-8 -38 -49 -38h-126v-920q0 -36 -29 -47q-7 -4 -22 -4h-165q-35 0 -47 28q-3 7 -3 23v920h-126q-36 0 -47 28q-4 7 -4 23v164
q0 36 28 47q7 4 23 4h126v175h-126q-36 0 -47 29q-4 7 -4 22v165q0 35 28 47q7 3 23 3h126v215q0 41 37 49z" />
    <glyph glyph-name="periodcentered" unicode="&#xb7;" horiz-adv-x="500" 
d="M104 903h167q41 0 50 -35q1 -2 1 -9v-178q0 -30 -34 -43q-10 -1 -17 -1h-167q-35 0 -47 35v189q0 27 32 40q5 2 15 2z" />
    <glyph glyph-name="periodcentered" unicode="&#x2219;" horiz-adv-x="500" 
d="M104 903h167q41 0 50 -35q1 -2 1 -9v-178q0 -30 -34 -43q-10 -1 -17 -1h-167q-35 0 -47 35v189q0 27 32 40q5 2 15 2z" />
    <glyph glyph-name="quotesinglbase" unicode="&#x201a;" horiz-adv-x="564" 
d="M378 199q35 -12 35 -42q-1 -14 -99 -372q-11 -27 -47 -27h-173q-11 0 -19 4q-28 14 -28 36v9q0 3 95 358q11 35 47 35h173q8 0 16 -1z" />
    <glyph glyph-name="quotedblbase" unicode="&#x201e;" horiz-adv-x="1050" 
d="M385 193q35 -12 35 -42q-1 -14 -99 -372q-11 -27 -47 -27h-173q-11 0 -19 4q-28 14 -28 36v9q0 3 95 358q11 35 47 35h173q8 0 16 -1zM847 194q36 -13 36 -43q-1 -14 -99 -372q-12 -27 -47 -27h-173q-11 0 -19 4q-28 14 -28 36v10q0 3 95 357q10 36 47 36h173q8 0 15 -1z
" />
    <glyph glyph-name="perthousand" unicode="&#x2030;" horiz-adv-x="3200" 
d="M346 1500h203q99 0 193 -78q46 -45 63 -78q40 -68 40 -173v-135q0 -118 -52 -191q-55 -88 -170 -126q-39 -13 -108 -13h-134q-119 0 -192 52q-88 55 -126 170q-13 39 -13 108v135q0 124 58 200q28 42 83 81q82 48 155 48zM1139 1500h198q22 0 35 -31q1 -1 2 -13
q0 -3 -164 -697q-5 -18 -174 -731q-15 -28 -45 -28h-175q-40 0 -50 35q-1 7 -1 11q6 28 261 1102l79 327q16 25 34 25zM316 1194v-181q0 -28 32 -40q4 -1 9 -1h181q28 0 40 32q1 4 1 9v181q0 28 -31 40q-5 1 -10 1h-181q-28 0 -40 -31q-1 -5 -1 -10zM1616 795h134
q124 0 200 -57q42 -29 81 -84q48 -82 48 -155v-203q0 -99 -78 -192q-45 -47 -78 -64q-68 -40 -173 -40h-134q-119 0 -192 52q-88 55 -126 170q-13 39 -13 109v134q0 118 52 191q55 88 170 126q40 13 109 13zM1551 488v-181q0 -28 32 -40q4 -1 9 -1h181q28 0 40 32q1 4 1 9
v181q0 28 -31 40q-5 1 -10 1h-181q-28 0 -40 -31q-1 -5 -1 -10zM2517 488v-181q0 -28 32 -40q4 -1 9 -1h181q28 0 40 32q1 4 1 9v181q0 28 -31 40q-5 1 -10 1h-181q-28 0 -40 -31q-1 -5 -1 -10zM2582 795h134q124 0 200 -57q42 -29 81 -84q48 -82 48 -155v-203
q0 -99 -78 -192q-45 -47 -78 -64q-68 -40 -173 -40h-134q-119 0 -192 52q-88 55 -126 170q-13 39 -13 109v134q0 118 52 191q55 88 170 126q40 13 109 13z" />
    <glyph glyph-name="Acircumflex" unicode="&#xc2;" 
d="M346 1500h203q111 0 211 -95q84 -98 84 -200v-1166q0 -25 -35 -38q-11 -1 -18 -1h-161q-35 0 -47 28q-4 7 -4 23v478h-263v-475q0 -54 -54 -54h-161q-36 0 -47 28q-4 7 -4 23v1120q0 124 58 200q28 42 83 81q82 48 155 48zM316 1194v-399h263v399q0 28 -31 40q-5 1 -10 1
h-181q-28 0 -40 -31q-1 -5 -1 -10zM448 2124q15 0 70 -36q238 -135 267 -155q12 -16 12 -32q0 -15 -39 -76q-56 -100 -63 -108q-15 -11 -31 -12q-14 0 -66 32q-138 80 -152 87q-187 -109 -204 -117q-9 -1 -12 -2q-32 0 -51 44q-82 137 -82 148v7q0 30 46 50q278 162 290 167
q10 3 15 3z" />
    <glyph glyph-name="Ecircumflex" unicode="&#xca;" horiz-adv-x="800" 
d="M628 1500q29 0 40 -35v-191q0 -25 -35 -38q-11 -1 -18 -1h-299v-440h217q32 0 44 -28q4 -7 4 -22v-161q0 -55 -54 -55h-211v-263h305q38 0 47 -38v-189q0 -25 -35 -38q-11 -1 -18 -1h-518q-47 5 -47 47v1407q0 35 35 46h543zM360 2124q15 0 70 -36q238 -135 267 -155
q12 -16 12 -32q0 -15 -39 -76q-56 -100 -63 -108q-15 -11 -31 -12q-14 0 -66 32q-138 80 -152 87q-187 -109 -204 -117q-9 -1 -12 -2q-32 0 -51 44q-82 137 -82 148v7q0 30 46 50q278 162 290 167q10 3 15 3z" />
    <glyph glyph-name="Aacute" unicode="&#xc1;" 
d="M346 1500h203q111 0 211 -95q84 -98 84 -200v-1166q0 -25 -35 -38q-11 -1 -18 -1h-161q-35 0 -47 28q-4 7 -4 23v478h-263v-475q0 -54 -54 -54h-161q-36 0 -47 28q-4 7 -4 23v1120q0 124 58 200q28 42 83 81q82 48 155 48zM316 1194v-399h263v399q0 28 -31 40q-5 1 -10 1
h-181q-28 0 -40 -31q-1 -5 -1 -10zM656 2155q35 -12 35 -42q-1 -14 -99 -372q-11 -27 -47 -27h-173q-11 0 -19 4q-28 14 -28 36v9q0 3 95 358q11 35 47 35h173q8 0 16 -1z" />
    <glyph glyph-name="Edieresis" unicode="&#xcb;" horiz-adv-x="800" 
d="M628 1500q29 0 40 -35v-191q0 -25 -35 -38q-11 -1 -18 -1h-299v-440h217q32 0 44 -28q4 -7 4 -22v-161q0 -55 -54 -55h-211v-263h305q38 0 47 -38v-189q0 -25 -35 -38q-11 -1 -18 -1h-518q-47 5 -47 47v1407q0 35 35 46h543zM53 1969h167q41 0 50 -35q1 -2 1 -9v-178
q0 -30 -34 -43q-10 -1 -17 -1h-167q-35 0 -47 35v189q0 27 32 40q5 2 15 2zM494 1969h167q41 0 50 -35q1 -2 1 -9v-178q0 -30 -34 -43q-10 -1 -17 -1h-167q-35 0 -47 35v189q0 27 32 40q5 2 15 2z" />
    <glyph glyph-name="Egrave" unicode="&#xc8;" horiz-adv-x="800" 
d="M628 1500q29 0 40 -35v-191q0 -25 -35 -38q-11 -1 -18 -1h-299v-440h217q32 0 44 -28q4 -7 4 -22v-161q0 -55 -54 -55h-211v-263h305q38 0 47 -38v-189q0 -25 -35 -38q-11 -1 -18 -1h-518q-47 5 -47 47v1407q0 35 35 46h543zM166 2156h173q36 0 47 -35q95 -355 95 -358
v-9q0 -22 -28 -36q-8 -4 -19 -4h-173q-36 0 -47 27q-98 358 -99 372q0 30 35 42q8 1 16 1z" />
    <glyph glyph-name="Iacute" unicode="&#xcd;" horiz-adv-x="483" 
d="M88 1500h189q26 0 38 -35v-1427q-8 -38 -49 -38h-162q-54 0 -54 54v1397q0 41 38 49zM392 2155q35 -12 35 -42q-1 -14 -99 -372q-11 -27 -47 -27h-173q-11 0 -19 4q-28 14 -28 36v9q0 3 95 358q11 35 47 35h173q8 0 16 -1z" />
    <glyph glyph-name="Icircumflex" unicode="&#xce;" horiz-adv-x="483" 
d="M89 1500h189q26 0 38 -35v-1427q-8 -38 -49 -38h-162q-54 0 -54 54v1397q0 41 38 49zM184 2124q15 0 70 -36q238 -135 267 -155q12 -16 12 -32q0 -15 -39 -76q-56 -100 -63 -108q-15 -11 -31 -12q-14 0 -66 32q-138 80 -152 87q-187 -109 -204 -117q-9 -1 -12 -2
q-32 0 -51 44q-82 137 -82 148v7q0 30 46 50q278 162 290 167q10 3 15 3z" />
    <glyph glyph-name="Idieresis" unicode="&#xcf;" horiz-adv-x="483" 
d="M89 1500h189q26 0 38 -35v-1427q-8 -38 -49 -38h-162q-54 0 -54 54v1397q0 41 38 49zM-123 1969h167q41 0 50 -35q1 -2 1 -9v-178q0 -30 -34 -43q-10 -1 -17 -1h-167q-35 0 -47 35v189q0 27 32 40q5 2 15 2zM318 1969h167q41 0 50 -35q1 -2 1 -9v-178q0 -30 -34 -43
q-10 -1 -17 -1h-167q-35 0 -47 35v189q0 27 32 40q5 2 15 2z" />
    <glyph glyph-name="Igrave" unicode="&#xcc;" horiz-adv-x="483" 
d="M88 1500h189q26 0 38 -35v-1427q-8 -38 -49 -38h-162q-54 0 -54 54v1397q0 41 38 49zM-10 2156h173q36 0 47 -35q95 -355 95 -358v-9q0 -22 -28 -36q-8 -4 -19 -4h-173q-36 0 -47 27q-98 358 -99 372q0 30 35 42q8 1 16 1z" />
    <glyph glyph-name="Oacute" unicode="&#xd3;" 
d="M346 1500h203q111 0 211 -95q84 -98 84 -200v-909q0 -99 -78 -192q-45 -47 -78 -64q-68 -40 -173 -40h-134q-119 0 -192 52q-88 55 -126 170q-13 39 -13 109v840q0 124 58 200q28 42 83 81q82 48 155 48zM316 1194v-887q0 -28 32 -40q4 -1 9 -1h181q28 0 40 32q1 4 1 9
v887q0 28 -31 40q-5 1 -10 1h-181q-28 0 -40 -31q-1 -5 -1 -10zM656 2155q35 -12 35 -42q-1 -14 -99 -372q-11 -27 -47 -27h-173q-11 0 -19 4q-28 14 -28 36v9q0 3 95 358q11 35 47 35h173q8 0 16 -1z" />
    <glyph glyph-name="Ocircumflex" unicode="&#xd4;" 
d="M346 1500h203q111 0 211 -95q84 -98 84 -200v-909q0 -99 -78 -192q-45 -47 -78 -64q-68 -40 -173 -40h-134q-119 0 -192 52q-88 55 -126 170q-13 39 -13 109v840q0 124 58 200q28 42 83 81q82 48 155 48zM316 1194v-887q0 -28 32 -40q4 -1 9 -1h181q28 0 40 32q1 4 1 9
v887q0 28 -31 40q-5 1 -10 1h-181q-28 0 -40 -31q-1 -5 -1 -10zM448 2124q15 0 70 -36q238 -135 267 -155q12 -16 12 -32q0 -15 -39 -76q-56 -100 -63 -108q-15 -11 -31 -12q-14 0 -66 32q-138 80 -152 87q-187 -109 -204 -117q-9 -1 -12 -2q-32 0 -51 44q-82 137 -82 148v7
q0 30 46 50q278 162 290 167q10 3 15 3z" />
    <glyph glyph-name="Ograve" unicode="&#xd2;" 
d="M346 1500h203q111 0 211 -95q84 -98 84 -200v-909q0 -99 -78 -192q-45 -47 -78 -64q-68 -40 -173 -40h-134q-119 0 -192 52q-88 55 -126 170q-13 39 -13 109v840q0 124 58 200q28 42 83 81q82 48 155 48zM316 1194v-887q0 -28 32 -40q4 -1 9 -1h181q28 0 40 32q1 4 1 9
v887q0 28 -31 40q-5 1 -10 1h-181q-28 0 -40 -31q-1 -5 -1 -10zM254 2156h173q36 0 47 -35q95 -355 95 -358v-9q0 -22 -28 -36q-8 -4 -19 -4h-173q-36 0 -47 27q-98 358 -99 372q0 30 35 42q8 1 16 1z" />
    <glyph glyph-name="Uacute" unicode="&#xda;" 
d="M89 1500h189q38 -8 38 -49v-1144q0 -28 32 -40q4 -1 9 -1h181q28 0 40 32q1 4 1 9v1144q0 41 38 49h187q29 0 40 -35v-1169q0 -99 -78 -192q-45 -47 -78 -64q-68 -40 -173 -40h-134q-119 0 -192 52q-88 55 -126 170q-13 39 -13 109v1116q0 38 27 51q10 2 12 2zM656 2155
q35 -12 35 -42q-1 -14 -99 -372q-11 -27 -47 -27h-173q-11 0 -19 4q-28 14 -28 36v9q0 3 95 358q11 35 47 35h173q8 0 16 -1z" />
    <glyph glyph-name="Ucircumflex" unicode="&#xdb;" 
d="M89 1500h189q38 -8 38 -49v-1144q0 -28 32 -40q4 -1 9 -1h181q28 0 40 32q1 4 1 9v1144q0 41 38 49h187q29 0 40 -35v-1169q0 -99 -78 -192q-45 -47 -78 -64q-68 -40 -173 -40h-134q-119 0 -192 52q-88 55 -126 170q-13 39 -13 109v1116q0 38 27 51q10 2 12 2zM448 2124
q15 0 70 -36q238 -135 267 -155q12 -16 12 -32q0 -15 -39 -76q-56 -100 -63 -108q-15 -11 -31 -12q-14 0 -66 32q-138 80 -152 87q-187 -109 -204 -117q-9 -1 -12 -2q-32 0 -51 44q-82 137 -82 148v7q0 30 46 50q278 162 290 167q10 3 15 3z" />
    <glyph glyph-name="Ugrave" unicode="&#xd9;" 
d="M89 1500h189q38 -8 38 -49v-1144q0 -28 32 -40q4 -1 9 -1h181q28 0 40 32q1 4 1 9v1144q0 41 38 49h187q29 0 40 -35v-1169q0 -99 -78 -192q-45 -47 -78 -64q-68 -40 -173 -40h-134q-119 0 -192 52q-88 55 -126 170q-13 39 -13 109v1116q0 38 27 51q10 2 12 2zM254 2156
h173q36 0 47 -35q95 -355 95 -358v-9q0 -22 -28 -36q-8 -4 -19 -4h-173q-36 0 -47 27q-98 358 -99 372q0 30 35 42q8 1 16 1z" />
    <glyph glyph-name="dotlessi" unicode="&#x131;" horiz-adv-x="500" 
d="M104 1243h165q38 0 47 -38v-1166q0 -25 -35 -38q-11 -1 -18 -1h-162q-36 0 -47 28q-4 8 -4 23v1137q0 55 54 55z" />
    <glyph glyph-name="circumflex" unicode="&#x2c6;" horiz-adv-x="700" 
d="M351 1860q15 0 70 -36q238 -135 267 -155q12 -16 12 -32q0 -15 -39 -76q-56 -100 -63 -108q-15 -11 -31 -12q-14 0 -66 32q-138 80 -152 87q-187 -109 -204 -117q-9 -1 -12 -2q-32 0 -51 44q-82 137 -82 148v7q0 30 46 50q278 162 290 167q10 3 15 3z" />
    <glyph glyph-name="tilde" unicode="&#x2dc;" horiz-adv-x="650" 
d="M61 1736q16 0 49 -25q42 -26 86 -26q31 0 173 38q56 11 103 11h6q74 0 138 -27q18 -15 18 -37v-177q0 -28 -26 -41q-10 -5 -19 -5q-12 0 -54 24q-35 15 -73 15q-39 0 -166 -35q-62 -14 -112 -14h-9q-69 0 -138 29q-21 15 -21 37v190q0 31 34 41q4 2 11 2z" />
    <glyph glyph-name="macron" unicode="&#x2c9;" horiz-adv-x="650" 
d="M64 1703h520q33 0 45 -32q3 -9 3 -22v-158q0 -38 -26 -49q-10 -5 -22 -5h-520q-36 0 -47 28q-4 8 -4 19v172q0 35 35 46q8 1 16 1z" />
    <glyph glyph-name="breve" unicode="&#x2d8;" horiz-adv-x="650" 
d="M61 1804h178q39 0 44 -49q0 -26 34 -38q6 -1 11 -1q29 0 41 33q0 40 29 53q11 2 15 2h179q30 0 41 -32l3 -10q0 -148 -125 -249q-85 -61 -180 -61h-9q-141 0 -244 123q-61 87 -61 186q8 43 44 43z" />
    <glyph glyph-name="dotaccent" unicode="&#x2d9;" horiz-adv-x="500" 
d="M104 1752h167q41 0 50 -35q1 -2 1 -9v-178q0 -30 -34 -43q-10 -1 -17 -1h-167q-35 0 -47 35v189q0 27 32 40q5 2 15 2z" />
    <glyph glyph-name="ring" unicode="&#x2da;" horiz-adv-x="550" 
d="M271 1892q106 0 179 -93q41 -59 41 -127v-3q0 -114 -105 -187q-57 -33 -116 -33q-103 0 -176 87q-44 63 -44 130v9q0 107 100 181q60 36 121 36zM225 1669q0 -28 32 -41q4 -2 13 -2h1q33 0 43 37v10q0 31 -37 42h-7q-39 0 -45 -46z" />
    <glyph glyph-name="cedilla" unicode="&#xb8;" horiz-adv-x="450" 
d="M146 -150h162q38 0 49 -33q1 -7 1 -11v-91q0 -146 -125 -247q-46 -32 -85 -44q-44 -17 -123 -17h-55q-44 0 -52 36q-1 1 -1 8v180q0 28 32 40q5 2 15 2h91q25 0 37 34q1 8 1 16v83q0 30 35 42q12 2 18 2z" />
    <glyph glyph-name="hungarumlaut" unicode="&#x2dd;" horiz-adv-x="900" 
d="M455 1878q35 -12 35 -42q-1 -14 -99 -372q-11 -27 -47 -27h-173q-11 0 -19 4q-28 14 -28 36v9q0 3 95 358q11 35 47 35h173q8 0 16 -1zM917 1879q36 -13 36 -43q-1 -14 -99 -372q-12 -27 -47 -27h-173q-11 0 -19 4q-28 14 -28 36v10q0 3 95 357q10 36 47 36h173
q8 0 15 -1z" />
    <glyph glyph-name="ogonek" unicode="&#x2db;" horiz-adv-x="450" 
d="M408 88q34 -12 34 -42v-83q0 -8 1 -16q12 -34 38 -34h90q10 0 15 -2q32 -12 32 -40v-180q0 -7 -1 -8q-8 -36 -52 -36h-55q-79 0 -122 17q-40 12 -86 44q-125 101 -125 247v91q0 4 1 11q11 33 50 33h161q7 0 19 -2z" />
    <glyph glyph-name="caron" unicode="&#x2c7;" horiz-adv-x="700" 
d="M336 1443q-12 5 -290 167q-46 20 -46 51v7q0 10 82 147q19 45 51 45q3 -2 12 -3q17 -7 204 -116q14 7 152 87q52 32 66 32q16 -2 31 -12q7 -9 63 -108q39 -62 39 -77t-12 -32q-29 -19 -267 -155q-55 -35 -70 -35q-5 0 -15 2z" />
    <glyph glyph-name="Lslash" unicode="&#x141;" horiz-adv-x="1050" 
d="M545 1500q23 0 37 -32q1 -4 1 -9v-451q214 52 222 52q30 0 43 -36v-196q0 -40 -69 -48q-17 -5 -196 -47v-467h306q38 0 47 -39v-185q0 -28 -34 -41q-12 -1 -19 -1h-518q-47 5 -47 45v624h-1q-218 -51 -222 -51q-33 0 -44 36q-1 6 -1 14v176q0 34 33 45q231 56 235 56v511
q0 32 36 44h191z" />
    <glyph glyph-name="lslash" unicode="&#x142;" horiz-adv-x="950" 
d="M542 1500q21 0 35 -29q3 -5 3 -13v-450q217 52 222 52q33 0 43 -36v-199q0 -30 -45 -40l-220 -52v-691q0 -27 -32 -40q-5 -2 -15 -2h-166q-42 0 -51 35q-1 5 -1 10v624q-212 -50 -224 -51q-31 0 -42 37v194q0 40 65 47q18 6 201 49v513q0 29 34 42h193z" />
    <glyph glyph-name="Scaron" unicode="&#x160;" 
d="M346 1500h203q111 0 211 -95q84 -98 84 -200v-109q-8 -37 -49 -37h-165q-35 0 -47 28q-4 7 -4 22v85q0 28 -31 40q-5 1 -10 1h-181q-28 0 -40 -31q-1 -5 -1 -10v-269q0 -28 32 -40q4 -1 9 -1h158q124 0 200 -58q42 -29 81 -84q48 -82 48 -155v-291q0 -99 -78 -192
q-45 -47 -78 -64q-68 -40 -173 -40h-134q-119 0 -192 52q-88 55 -126 170q-13 39 -13 109v57q0 54 54 54h161q36 0 47 -28q4 -7 4 -22v-85q0 -28 32 -40q4 -1 9 -1h181q28 0 40 32q1 4 1 9v269q0 29 -31 40q-5 2 -10 2h-157q-119 0 -192 51q-88 56 -126 171q-13 38 -13 108
v223q0 124 58 200q28 42 83 81q82 48 155 48zM433 1707q-12 5 -290 167q-46 20 -46 51v7q0 10 82 147q19 45 51 45q3 -2 12 -3q17 -7 204 -116q14 7 152 87q52 32 66 32q16 -2 31 -12q7 -9 63 -108q39 -62 39 -77t-12 -32q-29 -19 -267 -155q-55 -35 -70 -35q-5 0 -15 2z
" />
    <glyph glyph-name="scaron" unicode="&#x161;" 
d="M384 1236h135q115 0 188 -49q89 -58 127 -165q15 -51 15 -94q0 -36 -40 -45q-4 -1 -14 -1h-161q-37 0 -48 31q-5 44 -16 44q-10 13 -28 13h-181q-28 0 -40 -32q-1 -4 -1 -9v-140q0 -24 30 -36q6 -3 16 -3h178q135 0 234 -113q38 -46 51 -89q20 -43 20 -131v-87
q0 -118 -52 -191q-55 -88 -170 -126q-39 -13 -108 -13h-135q-115 0 -188 49q-89 58 -127 165q-15 51 -15 94q0 36 40 45q4 1 14 1h161q37 0 48 -31q5 -44 16 -44q10 -13 28 -13h181q28 0 40 32q1 4 1 9v140q0 24 -30 36q-6 3 -16 3h-178q-135 0 -234 113q-38 46 -51 89
q-20 42 -20 131v87q0 118 52 191q55 88 170 126q40 13 108 13zM438 1443q-12 5 -290 167q-46 20 -46 51v7q0 10 82 147q19 45 51 45q3 -2 12 -3q17 -7 204 -116q14 7 152 87q52 32 66 32q16 -2 31 -12q7 -9 63 -108q39 -62 39 -77t-12 -32q-29 -19 -267 -155
q-55 -35 -70 -35q-5 0 -15 2z" />
    <glyph glyph-name="Zcaron" unicode="&#x17d;" 
d="M88 1500h718q26 0 38 -35v-192q0 -7 -64 -137q-409 -849 -418 -870h429q38 0 51 -27q2 -10 2 -12v-189q-8 -38 -49 -38h-691q-54 0 -54 54v165q0 17 25 62l458 954h-429q-54 0 -54 54v162q0 41 38 49zM433 1707q-12 5 -290 167q-46 20 -46 51v7q0 10 82 147q19 45 51 45
q3 -2 12 -3q17 -7 204 -116q14 7 152 87q52 32 66 32q16 -2 31 -12q7 -9 63 -108q39 -62 39 -77t-12 -32q-29 -19 -267 -155q-55 -35 -70 -35q-5 0 -15 2z" />
    <glyph glyph-name="zcaron" unicode="&#x17e;" 
d="M102 1236h706q38 0 52 -28q2 -10 2 -12v-194q0 -10 -29 -51l-439 -680v-1h428q26 0 40 -35v-197q0 -23 -32 -37q-9 -1 -14 -1h-718q-36 0 -47 36q-1 10 -1 17v170q0 21 26 56l443 685h-414q-55 0 -55 55v165q0 36 29 48q7 4 23 4zM442 1443q-12 5 -290 167q-46 20 -46 51
v7q0 10 82 147q19 45 51 45q3 -2 12 -3q17 -7 204 -116q14 7 152 87q52 32 66 32q16 -2 31 -12q7 -9 63 -108q39 -62 39 -77t-12 -32q-29 -19 -267 -155q-55 -35 -70 -35q-5 0 -15 2z" />
    <glyph glyph-name="brokenbar" unicode="&#xa6;" horiz-adv-x="500" 
d="M88 1706.49h190q26 0 38 -15.0498v-845.365q-8 -16.3398 -50 -16.3398h-162q-54 0 -54 23.2197v832.035q0 18.0596 38 21.5zM88 679.487h190q26 0 38 -15.0498v-845.365q-8 -16.3398 -50 -16.3398h-162q-54 0 -54 23.2197v832.035q0 18.0596 38 21.5z" />
    <glyph glyph-name="Eth" unicode="&#xd0;" horiz-adv-x="1050" 
d="M599 1500q111 0 211 -95q84 -98 84 -200v-909q0 -99 -78 -192q-45 -47 -78 -64q-68 -40 -173 -40h-411q-54 0 -54 54v1400q0 35 35 46h464zM366 1235v-969h222q28 0 40 32q1 4 1 9v887q0 28 -31 40q-5 1 -10 1h-222zM51 884h397q54 0 54 -55v-161q0 -35 -28 -47
q-8 -3 -23 -3h-397q-54 0 -54 54v161q0 35 28 47q7 4 23 4z" />
    <glyph glyph-name="eth" unicode="&#xf0;" 
d="M619 1500h187q30 0 40 -35q1 -6 1 -12v-1406q-5 -47 -47 -47h-417q-119 0 -192 52q-88 55 -126 170q-13 39 -13 109v225q0 118 52 192q55 87 170 126q40 12 109 12h198v565q0 41 38 49zM318 579v-272q0 -28 32 -40q4 -1 9 -1h222v355h-222q-28 0 -40 -32q-1 -5 -1 -10z
M87 1300h775q29 0 40 -35v-193q-8 -38 -50 -38h-752q-36 0 -47 28q-4 8 -4 23v165q0 42 38 50z" />
    <glyph glyph-name="Yacute" unicode="&#xdd;" 
d="M61 1500h196q34 0 47 -55q6 -12 160 -432h2l173 467q16 20 32 20h201q23 0 37 -33v-14q0 -10 -40 -114q-271 -733 -271 -735v-557q0 -35 -35 -46q-8 -1 -15 -1h-168q-33 0 -46 32q-2 10 -2 28v543q-6 20 -266 723q-46 120 -46 130v2q8 42 41 42zM684 2155q35 -12 35 -42
q-1 -14 -99 -372q-11 -27 -47 -27h-173q-11 0 -19 4q-28 14 -28 36v9q0 3 95 358q11 35 47 35h173q8 0 16 -1z" />
    <glyph glyph-name="yacute" unicode="&#xfd;" 
d="M89 1236h189q38 -8 38 -49v-879q0 -28 32 -40q4 -1 9 -1h181q28 0 40 32q1 4 1 9v879q0 41 38 49h187q29 0 40 -35v-1345q0 -99 -78 -192q-45 -47 -78 -64q-68 -40 -173 -40h-414q-36 0 -47 28q-4 7 -4 23v164q0 36 28 47q7 4 23 4h437q28 0 40 32q1 4 1 9v138
q-24 -4 -64 -4h-134q-119 0 -192 52q-88 55 -126 170q-13 39 -13 109v851q0 38 27 51q10 2 12 2zM656 1891q35 -12 35 -42q-1 -14 -99 -372q-11 -27 -47 -27h-173q-11 0 -19 4q-28 14 -28 36v9q0 3 95 358q11 35 47 35h173q8 0 16 -1z" />
    <glyph glyph-name="Thorn" unicode="&#xde;" 
d="M89 1300h460q111 0 211 -95q84 -98 84 -200v-467q0 -99 -78 -193q-45 -47 -78 -64q-68 -40 -173 -40h-199v-387q0 -54 -54 -54h-161q-36 0 -47 28q-4 7 -4 23v1396q0 38 27 51q10 2 12 2zM316 1035v-528h222q28 0 40 32q1 4 1 9v446q0 28 -31 40q-5 1 -10 1h-222z
M88 1500h189q26 0 38 -35v-1427q-8 -38 -49 -38h-162q-54 0 -54 54v1397q0 41 38 49z" />
    <glyph glyph-name="thorn" unicode="&#xfe;" 
d="M551 1233q111 0 211 -95q84 -98 84 -200v-644q0 -99 -78 -192q-45 -47 -78 -64q-68 -40 -173 -40h-199v-390q0 -36 -28 -47q-8 -4 -23 -4h-164q-36 0 -47 28q-4 7 -4 23v1579q0 35 35 46h464zM318 968v-704h222q28 0 40 32q1 4 1 9v622q0 28 -31 40q-5 1 -10 1h-222z
M90 1500h186q29 0 40 -35q1 -6 1 -14v-1397q0 -54 -54 -54h-158q-54 0 -54 54v1393q0 38 27 51q10 2 12 2z" />
    <glyph glyph-name="minus" unicode="&#x2212;" horiz-adv-x="1200" 
d="M100 884h867q54 0 54 -55v-161q0 -35 -28 -47q-8 -3 -23 -3h-867q-54 0 -54 54v161q0 35 28 47q7 4 23 4z" />
    <glyph glyph-name="multiply" unicode="&#xd7;" horiz-adv-x="1124" 
d="M67 1064l116 117q25 25 54 13q7 -3 18 -13l242 -242l240 239q38 38 76 0l114 -114q25 -25 13 -53q-2 -8 -13 -18l-242 -242l242 -242q25 -26 13 -54q-2 -7 -13 -18l-116 -116q-25 -26 -54 -14q-7 3 -18 14l-242 242l-239 -240q-39 -38 -77 0l-114 114q-25 25 -13 53
q2 8 13 19l242 242l-242 242q-25 25 -13 53q2 7 13 18z" />
    <glyph glyph-name="onesuperior" unicode="&#xb9;" horiz-adv-x="800" 
d="M453 1500q38 -10 38 -43q-1 -297 -1 -445v-391q0 -3 2 -3h121q4 0 11 2q42 -9 42 -43q1 0 1 -15v-149q0 -45 -27 -56q-10 -3 -23 -3h-522q-46 5 -46 46v172q0 32 29 44q5 2 13 2h134v618h-129q-47 5 -47 44v174q0 35 35 46h369z" />
    <glyph glyph-name="twosuperior" unicode="&#xb2;" 
d="M345 1500h202q97 0 191 -75q59 -60 68 -87q38 -72 38 -142q-2 -12 -2 -19v-59q0 -8 2 -15q0 -146 -132 -255l-247 -230h325q4 0 10 2q29 0 42 -36q2 -12 2 -19v-151q0 -39 -17 -50q-12 -10 -34 -10h-699q-31 0 -43 32q-2 4 -2 13v177q0 25 42 56l476 442q11 14 11 29v90
q0 31 -35 43h-187q-32 0 -41 -38v-85q0 -39 -29 -50q-7 -4 -18 -4h-172q-36 0 -47 38v88q0 181 161 279q73 36 135 36z" />
    <glyph glyph-name="threesuperior" unicode="&#xb3;" 
d="M346 1500h202q113 0 213 -96q66 -80 75 -146q9 -24 9 -93v-31q0 -108 -31 -163q-9 -18 -25 -45v-1q9 -9 24 -39q32 -57 32 -162v-30q0 -112 -33 -169q-56 -110 -179 -156q-49 -15 -107 -15h-161q-164 0 -262 136q-53 81 -53 174q0 28 33 41q10 3 26 3h153q55 0 55 -59
q7 -18 25 -27q12 -4 44 -4h122q53 0 57 13q14 11 14 30v95q0 25 -35 39l-14 -2h-74q-38 0 -50 26q-3 9 -3 17v181q0 32 38 42h67q53 0 57 13q14 12 14 27v98q0 26 -36 39h-186q-28 0 -40 -32q0 -42 -32 -54q-9 -3 -16 -3h-167q-38 0 -50 31q-2 12 -2 14q0 144 121 246
q89 62 175 62z" />
    <glyph glyph-name="onehalf" unicode="&#xbd;" horiz-adv-x="2550" 
d="M453 1500q38 -10 38 -43q-1 -297 -1 -445v-391q0 -3 2 -3h121q4 0 11 2q42 -9 42 -43q1 0 1 -15v-149q0 -45 -27 -56q-10 -3 -23 -3h-522q-46 5 -46 46v172q0 32 29 44q5 2 13 2h134v618h-129q-47 5 -47 44v174q0 35 35 46h369zM1258 1653h196q39 -10 39 -44l-211 -891
l-214 -894q-15 -24 -46 -24h-171q-36 0 -49 28q-2 11 -2 16v2q0 6 263 1114l160 669q17 24 35 24zM1895 1146h202q97 0 191 -75q59 -60 68 -87q38 -72 38 -142q-2 -12 -2 -19v-59q0 -8 2 -15q0 -146 -132 -255l-247 -230h325q4 0 10 2q29 0 42 -36q2 -12 2 -19v-151
q0 -39 -17 -50q-12 -10 -34 -10h-699q-31 0 -43 32q-2 4 -2 13v177q0 25 42 56l476 442q11 14 11 29v90q0 31 -35 43h-187q-32 0 -41 -38v-85q0 -39 -29 -50q-7 -4 -18 -4h-172q-36 0 -47 38v88q0 181 161 279q73 36 135 36z" />
    <glyph glyph-name="onequarter" unicode="&#xbc;" horiz-adv-x="2550" 
d="M453 1500q38 -10 38 -43q-1 -297 -1 -445v-391q0 -3 2 -3h121q4 0 11 2q42 -9 42 -43q1 0 1 -15v-149q0 -45 -27 -56q-10 -3 -23 -3h-522q-46 5 -46 46v172q0 32 29 44q5 2 13 2h134v618h-129q-47 5 -47 44v174q0 35 35 46h369zM1258 1653h196q39 -10 39 -44l-211 -891
l-214 -894q-15 -24 -46 -24h-171q-36 0 -49 28q-2 11 -2 16v2q0 6 263 1114l160 669q17 24 35 24zM1638 1146h187q29 0 40 -35q1 -6 1 -12v-531q0 -25 35 -38q22 -1 39 -1h189v566q0 44 39 51h186q29 0 40 -35v-1072q0 -26 -35 -38q-5 -1 -11 -1h-174q-32 0 -43 35
q-2 8 -2 15v214h-209q-182 0 -277 154q-43 68 -43 173v509q0 37 38 46z" />
    <glyph glyph-name="threequarters" unicode="&#xbe;" horiz-adv-x="2650" 
d="M1358 1653h196q39 -10 39 -44l-211 -891l-214 -894q-15 -24 -46 -24h-171q-36 0 -49 28q-2 11 -2 16v2q0 6 263 1114l160 669q17 24 35 24zM1738 1146h187q29 0 40 -35q1 -6 1 -12v-531q0 -25 35 -38q22 -1 39 -1h189v566q0 44 39 51h186q29 0 40 -35v-1072
q0 -26 -35 -38q-5 -1 -11 -1h-174q-32 0 -43 35q-2 8 -2 15v214h-209q-182 0 -277 154q-43 68 -43 173v509q0 37 38 46zM346 1500h202q113 0 213 -96q66 -80 75 -146q9 -24 9 -93v-31q0 -108 -31 -163q-9 -18 -25 -45v-1q9 -9 24 -39q32 -57 32 -162v-30q0 -112 -33 -169
q-56 -110 -179 -156q-49 -15 -107 -15h-161q-164 0 -262 136q-53 81 -53 174q0 28 33 41q10 3 26 3h153q55 0 55 -59q7 -18 25 -27q12 -4 44 -4h122q53 0 57 13q14 11 14 30v95q0 25 -35 39l-14 -2h-74q-38 0 -50 26q-3 9 -3 17v181q0 32 38 42h67q53 0 57 13q14 12 14 27
v98q0 26 -36 39h-186q-28 0 -40 -32q0 -42 -32 -54q-9 -3 -16 -3h-167q-38 0 -50 31q-2 12 -2 14q0 144 121 246q89 62 175 62z" />
    <glyph glyph-name="franc" unicode="&#x20a3;" horiz-adv-x="850" 
d="M678 1500q29 0 40 -35v-191q0 -25 -35 -38q-11 -1 -18 -1h-299v-440h217q32 0 44 -28q4 -7 4 -22v-161q0 -55 -54 -55h-211v-478q0 -36 -28 -47q-7 -4 -23 -4h-161q-54 0 -54 54v1400q0 35 35 46h543zM38 408h545q29 0 40 -35v-193q-8 -38 -50 -38h-522q-36 0 -47 28
q-4 8 -4 23v165q0 42 38 50z" />
    <glyph glyph-name="Gbreve" unicode="&#x11e;" 
d="M346 1500h203q111 0 211 -95q84 -98 84 -200v-197q-8 -37 -49 -37h-165q-35 0 -47 28q-4 7 -4 22v173q0 28 -31 40q-5 1 -10 1h-181q-28 0 -40 -31q-1 -5 -1 -10v-887q0 -28 32 -40q4 -1 9 -1h181q28 0 40 32q1 4 1 9v222h-126q-35 0 -47 29q-3 7 -3 22v165q0 35 28 47
q7 3 22 3h344q38 0 47 -37v-462q0 -99 -78 -192q-45 -47 -78 -64q-68 -40 -173 -40h-134q-119 0 -192 52q-88 55 -126 170q-13 39 -13 109v840q0 124 58 200q28 42 83 81q82 48 155 48zM182 2068h178q39 0 44 -49q0 -26 34 -38q6 -1 11 -1q29 0 41 33q0 40 29 53q11 2 15 2
h179q30 0 41 -32l3 -10q0 -148 -125 -249q-85 -61 -180 -61h-9q-141 0 -244 123q-61 87 -61 186q8 43 44 43z" />
    <glyph glyph-name="gbreve" unicode="&#x11f;" 
d="M346 1237h203q21 0 52 -6q10 6 17 6h186q29 0 40 -35v-1345q0 -99 -78 -192q-45 -47 -78 -64q-68 -40 -173 -40h-414q-36 0 -47 28q-4 7 -4 23v164q0 36 28 47q7 4 23 4h437q28 0 40 32q1 4 1 9v134h-198q-119 0 -192 52q-88 55 -126 170q-13 39 -13 109v575
q0 124 58 200q28 42 83 81q82 48 155 48zM316 931v-622q0 -28 32 -40q4 -1 9 -1h222v663q0 28 -31 40q-5 1 -10 1h-181q-28 0 -40 -31q-1 -5 -1 -10zM182 1804h178q39 0 44 -49q0 -26 34 -38q6 -1 11 -1q29 0 41 33q0 40 29 53q11 2 15 2h179q30 0 41 -32l3 -10
q0 -148 -125 -249q-85 -61 -180 -61h-9q-141 0 -244 123q-61 87 -61 186q8 43 44 43z" />
    <glyph glyph-name="Idotaccent" unicode="&#x130;" horiz-adv-x="483" 
d="M88 1500h189q26 0 38 -35v-1427q-8 -38 -49 -38h-162q-54 0 -54 54v1397q0 41 38 49zM97 2016h167q41 0 50 -35q1 -2 1 -9v-178q0 -30 -34 -43q-10 -1 -17 -1h-167q-35 0 -47 35v189q0 27 32 40q5 2 15 2z" />
    <glyph glyph-name="Scedilla" unicode="&#x15e;" 
d="M346 1500h203q111 0 211 -95q84 -98 84 -200v-109q-8 -37 -49 -37h-165q-35 0 -47 28q-4 7 -4 22v85q0 28 -31 40q-5 1 -10 1h-181q-28 0 -40 -31q-1 -5 -1 -10v-269q0 -28 32 -40q4 -1 9 -1h158q124 0 200 -58q42 -29 81 -84q48 -82 48 -155v-291q0 -99 -78 -192
q-45 -47 -78 -64q-68 -40 -173 -40h-134q-119 0 -192 52q-88 55 -126 170q-13 39 -13 109v57q0 54 54 54h161q36 0 47 -28q4 -7 4 -22v-85q0 -28 32 -40q4 -1 9 -1h181q28 0 40 32q1 4 1 9v269q0 29 -31 40q-5 2 -10 2h-157q-119 0 -192 51q-88 56 -126 171q-13 38 -13 108
v223q0 124 58 200q28 42 83 81q82 48 155 48zM456 -150h162q38 0 49 -33q1 -7 1 -11v-91q0 -146 -125 -247q-46 -32 -85 -44q-44 -17 -123 -17h-55q-44 0 -52 36q-1 1 -1 8v180q0 28 32 40q5 2 15 2h91q25 0 37 34q1 8 1 16v83q0 30 35 42q12 2 18 2z" />
    <glyph glyph-name="scedilla" unicode="&#x15f;" 
d="M384 1236h135q115 0 188 -49q89 -58 127 -165q15 -51 15 -94q0 -36 -40 -45q-4 -1 -14 -1h-161q-37 0 -48 31q-5 44 -16 44q-10 13 -28 13h-181q-28 0 -40 -32q-1 -4 -1 -9v-140q0 -24 30 -36q6 -3 16 -3h178q135 0 234 -113q38 -46 51 -89q20 -43 20 -131v-87
q0 -118 -52 -191q-55 -88 -170 -126q-39 -13 -108 -13h-135q-115 0 -188 49q-89 58 -127 165q-15 51 -15 94q0 36 40 45q4 1 14 1h161q37 0 48 -31q5 -44 16 -44q10 -13 28 -13h181q28 0 40 32q1 4 1 9v140q0 24 -30 36q-6 3 -16 3h-178q-135 0 -234 113q-38 46 -51 89
q-20 42 -20 131v87q0 118 52 191q55 88 170 126q40 13 108 13zM460 -150h162q38 0 49 -33q1 -7 1 -11v-91q0 -146 -125 -247q-46 -32 -85 -44q-44 -17 -123 -17h-55q-44 0 -52 36q-1 1 -1 8v180q0 28 32 40q5 2 15 2h91q25 0 37 34q1 8 1 16v83q0 30 35 42q12 2 18 2z" />
    <glyph glyph-name="Cacute" unicode="&#x106;" 
d="M346 1500h203q111 0 211 -95q84 -98 84 -200v-197q-8 -37 -49 -37h-165q-35 0 -47 28q-4 7 -4 22v173q0 28 -31 40q-5 1 -10 1h-181q-28 0 -40 -31q-1 -5 -1 -10v-887q0 -28 32 -40q4 -1 9 -1h181q28 0 40 32q1 4 1 9v173q0 35 29 47q7 4 22 4h167q38 0 47 -38v-197
q0 -99 -78 -192q-45 -47 -78 -64q-68 -40 -173 -40h-134q-119 0 -192 52q-88 55 -126 170q-13 39 -13 109v840q0 124 58 200q28 42 83 81q82 48 155 48zM656 2155q35 -12 35 -42q-1 -14 -99 -372q-11 -27 -47 -27h-173q-11 0 -19 4q-28 14 -28 36v9q0 3 95 358q11 35 47 35
h173q8 0 16 -1z" />
    <glyph glyph-name="cacute" unicode="&#x107;" 
d="M381 1236h134q118 0 191 -51q88 -56 126 -171q13 -40 13 -108v-61q0 -36 -28 -47q-7 -4 -22 -4h-165q-35 0 -47 28q-4 7 -4 23v84q0 29 -31 40q-5 2 -10 2h-181q-28 0 -40 -32q-1 -5 -1 -10v-622q0 -28 32 -40q4 -1 9 -1h181q28 0 40 32q1 4 1 9v85q0 35 29 47q7 3 22 3
h167q32 0 45 -28q3 -7 3 -22v-61q0 -119 -51 -192q-56 -88 -171 -126q-39 -13 -108 -13h-134q-119 0 -192 52q-88 55 -126 170q-13 39 -13 109v575q0 118 52 192q55 87 170 126q40 12 109 12zM657 1891q35 -12 35 -42q-1 -14 -99 -372q-11 -27 -47 -27h-173q-11 0 -19 4
q-28 14 -28 36v9q0 3 95 358q11 35 47 35h173q8 0 16 -1z" />
    <glyph glyph-name="Ccaron" unicode="&#x10c;" 
d="M346 1500h203q111 0 211 -95q84 -98 84 -200v-197q-8 -37 -49 -37h-165q-35 0 -47 28q-4 7 -4 22v173q0 28 -31 40q-5 1 -10 1h-181q-28 0 -40 -31q-1 -5 -1 -10v-887q0 -28 32 -40q4 -1 9 -1h181q28 0 40 32q1 4 1 9v173q0 35 29 47q7 4 22 4h167q38 0 47 -38v-197
q0 -99 -78 -192q-45 -47 -78 -64q-68 -40 -173 -40h-134q-119 0 -192 52q-88 55 -126 170q-13 39 -13 109v840q0 124 58 200q28 42 83 81q82 48 155 48zM433 1707q-12 5 -290 167q-46 20 -46 51v7q0 10 82 147q19 45 51 45q3 -2 12 -3q17 -7 204 -116q14 7 152 87
q52 32 66 32q16 -2 31 -12q7 -9 63 -108q39 -62 39 -77t-12 -32q-29 -19 -267 -155q-55 -35 -70 -35q-5 0 -15 2z" />
    <glyph glyph-name="ccaron" unicode="&#x10d;" 
d="M381 1236h134q118 0 191 -51q88 -56 126 -171q13 -40 13 -108v-61q0 -36 -28 -47q-7 -4 -22 -4h-165q-35 0 -47 28q-4 7 -4 23v84q0 29 -31 40q-5 2 -10 2h-181q-28 0 -40 -32q-1 -5 -1 -10v-622q0 -28 32 -40q4 -1 9 -1h181q28 0 40 32q1 4 1 9v85q0 35 29 47q7 3 22 3
h167q32 0 45 -28q3 -7 3 -22v-61q0 -119 -51 -192q-56 -88 -171 -126q-39 -13 -108 -13h-134q-119 0 -192 52q-88 55 -126 170q-13 39 -13 109v575q0 118 52 192q55 87 170 126q40 12 109 12zM434 1443q-12 5 -290 167q-46 20 -46 51v7q0 10 82 147q19 45 51 45q3 -2 12 -3
q17 -7 204 -116q14 7 152 87q52 32 66 32q16 -2 31 -12q7 -9 63 -108q39 -62 39 -77t-12 -32q-29 -19 -267 -155q-55 -35 -70 -35q-5 0 -15 2z" />
    <glyph glyph-name="dmacron" unicode="&#x111;" 
d="M619 1500h187q30 0 40 -35q1 -6 1 -12v-1406q-5 -47 -47 -47h-417q-119 0 -192 52q-88 55 -126 170q-13 39 -13 109v225q0 118 52 192q55 87 170 126q40 12 109 12h198v565q0 41 38 49zM318 579v-272q0 -28 32 -40q4 -1 9 -1h222v355h-222q-28 0 -40 -32q-1 -5 -1 -10z
M87 1300h775q29 0 40 -35v-193q-8 -38 -50 -38h-752q-36 0 -47 28q-4 8 -4 23v165q0 42 38 50z" />
    <glyph glyph-name="currency" unicode="&#xa4;" horiz-adv-x="1173" 
d="M219 1232q25 0 55 -37l72 -71q87 61 186 61q98 0 184 -61q103 103 108 103q8 5 21 5q22 0 58 -43q106 -103 106 -108q3 -10 3 -17v-3q0 -23 -38 -55l-70 -71q61 -84 61 -186q0 -98 -61 -183q105 -105 105 -108q3 -11 3 -18v-2q0 -24 -35 -52q-110 -113 -118 -114
q-11 -3 -17 -3q-23 0 -59 43l-67 66q-86 -62 -185 -62q-97 0 -185 62h-1q-101 -105 -108 -105q-11 -4 -18 -4q-24 0 -55 38q-108 106 -108 111q-6 10 -6 22q0 23 42 59l66 67v1q-61 86 -61 184q0 97 61 183v1q-103 103 -103 109q-5 10 -5 18q0 25 40 58q104 107 112 108
q10 4 17 4zM363 752v-3q0 -23 36 -53q109 -110 113 -110q9 -4 17 -4h8q19 0 67 54q94 91 94 100q3 12 3 16q0 22 -37 53q-107 111 -116 111q-8 3 -11 3h-8q-22 0 -58 -43q-104 -101 -106 -109q-2 -11 -2 -15z" />
    <glyph glyph-name="overscore" unicode="&#xaf;" horiz-adv-x="1378" 
d="M88 1500h1075q29 0 40 -35v-193q-8 -38 -50 -38h-1052q-36 0 -47 28q-4 8 -4 23v165q0 42 38 50z" />
    <glyph glyph-name="Amacron" unicode="&#x100;" 
d="M346 1500h203q111 0 211 -95q84 -98 84 -200v-1166q0 -25 -35 -38q-11 -1 -18 -1h-161q-35 0 -47 28q-4 7 -4 23v478h-263v-475q0 -54 -54 -54h-161q-36 0 -47 28q-4 7 -4 23v1120q0 124 58 200q28 42 83 81q82 48 155 48zM316 1194v-399h263v399q0 28 -31 40q-5 1 -10 1
h-181q-28 0 -40 -31q-1 -5 -1 -10zM189 1967h520q33 0 45 -32q3 -9 3 -22v-158q0 -38 -26 -49q-10 -5 -22 -5h-520q-36 0 -47 28q-4 8 -4 19v172q0 35 35 46q8 1 16 1z" />
    <glyph glyph-name="amacron" unicode="&#x101;" horiz-adv-x="1024" 
d="M381 1236h134q118 0 191 -51q88 -56 126 -171q13 -40 13 -108v-858q0 -38 -37 -47q-5 -1 -11 -1h-416q-119 0 -192 52q-88 55 -126 170q-13 39 -13 109v134q0 118 52 191q55 88 170 126q40 13 109 13h198v134q0 29 -31 40q-5 2 -10 2h-181q-28 0 -40 -32q0 -57 -52 -57
h-163q-36 0 -48 29q-3 7 -4 17q0 131 105 231q68 57 141 70q29 7 85 7zM316 488v-181q0 -28 32 -40q4 -1 9 -1h222v263h-222q-28 0 -40 -31q-1 -5 -1 -10zM189 1703h520q33 0 45 -32q3 -9 3 -22v-158q0 -38 -26 -49q-10 -5 -22 -5h-520q-36 0 -47 28q-4 8 -4 19v172
q0 35 35 46q8 1 16 1z" />
    <glyph glyph-name="Abreve" unicode="&#x102;" 
d="M346 1500h203q111 0 211 -95q84 -98 84 -200v-1166q0 -25 -35 -38q-11 -1 -18 -1h-161q-35 0 -47 28q-4 7 -4 23v478h-263v-475q0 -54 -54 -54h-161q-36 0 -47 28q-4 7 -4 23v1120q0 124 58 200q28 42 83 81q82 48 155 48zM316 1194v-399h263v399q0 28 -31 40q-5 1 -10 1
h-181q-28 0 -40 -31q-1 -5 -1 -10zM182 2068h178q39 0 44 -49q0 -26 34 -38q6 -1 11 -1q29 0 41 33q0 40 29 53q11 2 15 2h179q30 0 41 -32l3 -10q0 -148 -125 -249q-85 -61 -180 -61h-9q-141 0 -244 123q-61 87 -61 186q8 43 44 43z" />
    <glyph glyph-name="abreve" unicode="&#x103;" horiz-adv-x="1024" 
d="M381 1236h134q118 0 191 -51q88 -56 126 -171q13 -40 13 -108v-858q0 -38 -37 -47q-5 -1 -11 -1h-416q-119 0 -192 52q-88 55 -126 170q-13 39 -13 109v134q0 118 52 191q55 88 170 126q40 13 109 13h198v134q0 29 -31 40q-5 2 -10 2h-181q-28 0 -40 -32q0 -57 -52 -57
h-163q-36 0 -48 29q-3 7 -4 17q0 131 105 231q68 57 141 70q29 7 85 7zM316 488v-181q0 -28 32 -40q4 -1 9 -1h222v263h-222q-28 0 -40 -31q-1 -5 -1 -10zM182 1804h178q39 0 44 -49q0 -26 34 -38q6 -1 11 -1q29 0 41 33q0 40 29 53q11 2 15 2h179q30 0 41 -32l3 -10
q0 -148 -125 -249q-85 -61 -180 -61h-9q-141 0 -244 123q-61 87 -61 186q8 43 44 43z" />
    <glyph glyph-name="Aogonek" unicode="&#x104;" 
d="M346 1500h203q111 0 211 -95q84 -98 84 -200v-1166q0 -25 -35 -38q-11 -1 -18 -1h-161q-35 0 -47 28q-4 7 -4 23v478h-263v-475q0 -54 -54 -54h-161q-36 0 -47 28q-4 7 -4 23v1120q0 124 58 200q28 42 83 81q82 48 155 48zM316 1194v-399h263v399q0 28 -31 40q-5 1 -10 1
h-181q-28 0 -40 -31q-1 -5 -1 -10zM814 88q34 -12 34 -42v-83q0 -8 1 -16q12 -34 38 -34h90q10 0 15 -2q32 -12 32 -40v-180q0 -7 -1 -8q-8 -36 -52 -36h-55q-79 0 -122 17q-40 12 -86 44q-125 101 -125 247v91q0 4 1 11q11 33 50 33h161q7 0 19 -2z" />
    <glyph glyph-name="aogonek" unicode="&#x105;" 
d="M381 1236h134q118 0 191 -51q88 -56 126 -171q13 -40 13 -108v-858q0 -38 -37 -47q-5 -1 -11 -1h-416q-119 0 -192 52q-88 55 -126 170q-13 39 -13 109v134q0 118 52 191q55 88 170 126q40 13 109 13h198v134q0 29 -31 40q-5 2 -10 2h-181q-28 0 -40 -32q0 -57 -52 -57
h-163q-36 0 -48 29q-3 7 -4 17q0 131 105 231q68 57 141 70q29 7 85 7zM316 488v-181q0 -28 32 -40q4 -1 9 -1h222v263h-222q-28 0 -40 -31q-1 -5 -1 -10zM815 88q34 -12 34 -42v-83q0 -8 1 -16q12 -34 38 -34h90q10 0 15 -2q32 -12 32 -40v-180q0 -7 -1 -8q-8 -36 -52 -36
h-55q-79 0 -122 17q-40 12 -86 44q-125 101 -125 247v91q0 4 1 11q11 33 50 33h161q7 0 19 -2z" />
    <glyph glyph-name="Ccircumflex" unicode="&#x108;" 
d="M346 1500h203q111 0 211 -95q84 -98 84 -200v-197q-8 -37 -49 -37h-165q-35 0 -47 28q-4 7 -4 22v173q0 28 -31 40q-5 1 -10 1h-181q-28 0 -40 -31q-1 -5 -1 -10v-887q0 -28 32 -40q4 -1 9 -1h181q28 0 40 32q1 4 1 9v173q0 35 29 47q7 4 22 4h167q38 0 47 -38v-197
q0 -99 -78 -192q-45 -47 -78 -64q-68 -40 -173 -40h-134q-119 0 -192 52q-88 55 -126 170q-13 39 -13 109v840q0 124 58 200q28 42 83 81q82 48 155 48zM448 2124q15 0 70 -36q238 -135 267 -155q12 -16 12 -32q0 -15 -39 -76q-56 -100 -63 -108q-15 -11 -31 -12
q-14 0 -66 32q-138 80 -152 87q-187 -109 -204 -117q-9 -1 -12 -2q-32 0 -51 44q-82 137 -82 148v7q0 30 46 50q278 162 290 167q10 3 15 3z" />
    <glyph glyph-name="ccircumflex" unicode="&#x109;" 
d="M381 1236h134q118 0 191 -51q88 -56 126 -171q13 -40 13 -108v-61q0 -36 -28 -47q-7 -4 -22 -4h-165q-35 0 -47 28q-4 7 -4 23v84q0 29 -31 40q-5 2 -10 2h-181q-28 0 -40 -32q-1 -5 -1 -10v-622q0 -28 32 -40q4 -1 9 -1h181q28 0 40 32q1 4 1 9v85q0 35 29 47q7 3 22 3
h167q32 0 45 -28q3 -7 3 -22v-61q0 -119 -51 -192q-56 -88 -171 -126q-39 -13 -108 -13h-134q-119 0 -192 52q-88 55 -126 170q-13 39 -13 109v575q0 118 52 192q55 87 170 126q40 12 109 12zM449 1860q15 0 70 -36q238 -135 267 -155q12 -16 12 -32q0 -15 -39 -76
q-56 -100 -63 -108q-15 -11 -31 -12q-14 0 -66 32q-138 80 -152 87q-187 -109 -204 -117q-9 -1 -12 -2q-32 0 -51 44q-82 137 -82 148v7q0 30 46 50q278 162 290 167q10 3 15 3z" />
    <glyph glyph-name="Cdot" unicode="&#x10a;" 
d="M346 1500h203q111 0 211 -95q84 -98 84 -200v-197q-8 -37 -49 -37h-165q-35 0 -47 28q-4 7 -4 22v173q0 28 -31 40q-5 1 -10 1h-181q-28 0 -40 -31q-1 -5 -1 -10v-887q0 -28 32 -40q4 -1 9 -1h181q28 0 40 32q1 4 1 9v173q0 35 29 47q7 4 22 4h167q38 0 47 -38v-197
q0 -99 -78 -192q-45 -47 -78 -64q-68 -40 -173 -40h-134q-119 0 -192 52q-88 55 -126 170q-13 39 -13 109v840q0 124 58 200q28 42 83 81q82 48 155 48zM362 2016h167q41 0 50 -35q1 -2 1 -9v-178q0 -30 -34 -43q-10 -1 -17 -1h-167q-35 0 -47 35v189q0 27 32 40q5 2 15 2z
" />
    <glyph glyph-name="cdot" unicode="&#x10b;" 
d="M381 1236h134q118 0 191 -51q88 -56 126 -171q13 -40 13 -108v-61q0 -36 -28 -47q-7 -4 -22 -4h-165q-35 0 -47 28q-4 7 -4 23v84q0 29 -31 40q-5 2 -10 2h-181q-28 0 -40 -32q-1 -5 -1 -10v-622q0 -28 32 -40q4 -1 9 -1h181q28 0 40 32q1 4 1 9v85q0 35 29 47q7 3 22 3
h167q32 0 45 -28q3 -7 3 -22v-61q0 -119 -51 -192q-56 -88 -171 -126q-39 -13 -108 -13h-134q-119 0 -192 52q-88 55 -126 170q-13 39 -13 109v575q0 118 52 192q55 87 170 126q40 12 109 12zM362 1752h167q41 0 50 -35q1 -2 1 -9v-178q0 -30 -34 -43q-10 -1 -17 -1h-167
q-35 0 -47 35v189q0 27 32 40q5 2 15 2z" />
    <glyph glyph-name="Dcaron" unicode="&#x10e;" 
d="M549 1500q111 0 211 -95q84 -98 84 -200v-909q0 -99 -78 -192q-45 -47 -78 -64q-68 -40 -173 -40h-411q-54 0 -54 54v1400q0 35 35 46h464zM316 1235v-969h222q28 0 40 32q1 4 1 9v887q0 28 -31 40q-5 1 -10 1h-222zM433 1707q-12 5 -290 167q-46 20 -46 51v7
q0 10 82 147q19 45 51 45q3 -2 12 -3q17 -7 204 -116q14 7 152 87q52 32 66 32q16 -2 31 -12q7 -9 63 -108q39 -62 39 -77t-12 -32q-29 -19 -267 -155q-55 -35 -70 -35q-5 0 -15 2z" />
    <glyph glyph-name="dcaron" unicode="&#x10f;" horiz-adv-x="1550" 
d="M619 1500h187q30 0 40 -35q1 -6 1 -12v-1406q-5 -47 -47 -47h-417q-119 0 -192 52q-88 55 -126 170q-13 39 -13 109v575q0 118 52 192q55 87 170 126q40 12 109 12h198v215q0 41 38 49zM318 929v-622q0 -28 32 -40q4 -1 9 -1h222v705h-222q-28 0 -40 -32q-1 -5 -1 -10z
M1380 1499q36 -13 36 -43q-1 -14 -99 -372q-12 -27 -47 -27h-173q-11 0 -19 4q-28 14 -28 36v10q0 3 95 357q10 36 47 36h173q8 0 15 -1z" />
    <glyph glyph-name="Dslash" unicode="&#x110;" horiz-adv-x="1075" 
d="M619 1500q111 0 211 -95q84 -98 84 -200v-909q0 -99 -78 -192q-45 -47 -78 -64q-68 -40 -173 -40h-411q-54 0 -54 54v1400q0 35 35 46h464zM386 1235v-969h222q28 0 40 32q1 4 1 9v887q0 28 -31 40q-5 1 -10 1h-222zM71 884h397q54 0 54 -55v-161q0 -35 -28 -47
q-8 -3 -23 -3h-397q-54 0 -54 54v161q0 35 28 47q7 4 23 4z" />
    <glyph glyph-name="Emacron" unicode="&#x112;" horiz-adv-x="800" 
d="M629 1500q29 0 40 -35v-191q0 -25 -35 -38q-11 -1 -18 -1h-299v-440h217q32 0 44 -28q4 -7 4 -22v-161q0 -55 -54 -55h-211v-263h305q38 0 47 -38v-189q0 -25 -35 -38q-11 -1 -18 -1h-518q-47 5 -47 47v1407q0 35 35 46h543zM101 1967h520q33 0 45 -32q3 -9 3 -22v-158
q0 -38 -26 -49q-10 -5 -22 -5h-520q-36 0 -47 28q-4 8 -4 19v172q0 35 35 46q8 1 16 1z" />
    <glyph glyph-name="emacron" unicode="&#x113;" 
d="M381 1236h134q124 0 200 -57q42 -29 81 -84q48 -82 48 -155v-202q0 -99 -78 -193q-45 -47 -78 -64q-68 -40 -173 -40h-199v-134q0 -28 32 -40q4 -1 9 -1h181q28 0 40 32q0 56 52 56h161q38 0 51 -27q2 -9 2 -12v-19q0 -99 -78 -192q-45 -47 -78 -64q-68 -40 -173 -40
h-134q-119 0 -192 52q-88 55 -126 170q-13 39 -13 109v575q0 118 52 192q55 87 170 126q40 12 109 12zM316 929v-222h222q28 0 40 32q1 4 1 9v181q0 29 -31 40q-5 2 -10 2h-181q-28 0 -40 -32q-1 -5 -1 -10zM189 1703h520q33 0 45 -32q3 -9 3 -22v-158q0 -38 -26 -49
q-10 -5 -22 -5h-520q-36 0 -47 28q-4 8 -4 19v172q0 35 35 46q8 1 16 1z" />
    <glyph glyph-name="Ebreve" unicode="&#x114;" horiz-adv-x="800" 
d="M628 1500q29 0 40 -35v-191q0 -25 -35 -38q-11 -1 -18 -1h-299v-440h217q32 0 44 -28q4 -7 4 -22v-161q0 -55 -54 -55h-211v-263h305q38 0 47 -38v-189q0 -25 -35 -38q-11 -1 -18 -1h-518q-47 5 -47 47v1407q0 35 35 46h543zM94 2068h178q39 0 44 -49q0 -26 34 -38
q6 -1 11 -1q29 0 41 33q0 40 29 53q11 2 15 2h179q30 0 41 -32l3 -10q0 -148 -125 -249q-85 -61 -180 -61h-9q-141 0 -244 123q-61 87 -61 186q8 43 44 43z" />
    <glyph glyph-name="ebreve" unicode="&#x115;" 
d="M381 1236h134q124 0 200 -57q42 -29 81 -84q48 -82 48 -155v-202q0 -99 -78 -193q-45 -47 -78 -64q-68 -40 -173 -40h-199v-134q0 -28 32 -40q4 -1 9 -1h181q28 0 40 32q0 56 52 56h161q38 0 51 -27q2 -9 2 -12v-19q0 -99 -78 -192q-45 -47 -78 -64q-68 -40 -173 -40
h-134q-119 0 -192 52q-88 55 -126 170q-13 39 -13 109v575q0 118 52 192q55 87 170 126q40 12 109 12zM316 929v-222h222q28 0 40 32q1 4 1 9v181q0 29 -31 40q-5 2 -10 2h-181q-28 0 -40 -32q-1 -5 -1 -10zM182 1804h178q39 0 44 -49q0 -26 34 -38q6 -1 11 -1q29 0 41 33
q0 40 29 53q11 2 15 2h179q30 0 41 -32l3 -10q0 -148 -125 -249q-85 -61 -180 -61h-9q-141 0 -244 123q-61 87 -61 186q8 43 44 43z" />
    <glyph glyph-name="Edot" unicode="&#x116;" horiz-adv-x="800" 
d="M628 1500q29 0 40 -35v-191q0 -25 -35 -38q-11 -1 -18 -1h-299v-440h217q32 0 44 -28q4 -7 4 -22v-161q0 -55 -54 -55h-211v-263h305q38 0 47 -38v-189q0 -25 -35 -38q-11 -1 -18 -1h-518q-47 5 -47 47v1407q0 35 35 46h543zM313 2016h167q41 0 50 -35q1 -2 1 -9v-178
q0 -30 -34 -43q-10 -1 -17 -1h-167q-35 0 -47 35v189q0 27 32 40q5 2 15 2z" />
    <glyph glyph-name="edot" unicode="&#x117;" 
d="M381 1236h134q124 0 200 -57q42 -29 81 -84q48 -82 48 -155v-202q0 -99 -78 -193q-45 -47 -78 -64q-68 -40 -173 -40h-199v-134q0 -28 32 -40q4 -1 9 -1h181q28 0 40 32q0 56 52 56h161q38 0 51 -27q2 -9 2 -12v-19q0 -99 -78 -192q-45 -47 -78 -64q-68 -40 -173 -40
h-134q-119 0 -192 52q-88 55 -126 170q-13 39 -13 109v575q0 118 52 192q55 87 170 126q40 12 109 12zM316 929v-222h222q28 0 40 32q1 4 1 9v181q0 29 -31 40q-5 2 -10 2h-181q-28 0 -40 -32q-1 -5 -1 -10zM401 1752h167q41 0 50 -35q1 -2 1 -9v-178q0 -30 -34 -43
q-10 -1 -17 -1h-167q-35 0 -47 35v189q0 27 32 40q5 2 15 2z" />
    <glyph glyph-name="Eogonek" unicode="&#x118;" horiz-adv-x="800" 
d="M628 1500q29 0 40 -35v-191q0 -25 -35 -38q-11 -1 -18 -1h-299v-440h217q32 0 44 -28q4 -7 4 -22v-161q0 -55 -54 -55h-211v-263h305q38 0 47 -38v-189q0 -25 -35 -38q-11 -1 -18 -1h-518q-47 5 -47 47v1407q0 35 35 46h543zM638 88q34 -12 34 -42v-83q0 -8 1 -16
q12 -34 38 -34h90q10 0 15 -2q32 -12 32 -40v-180q0 -7 -1 -8q-8 -36 -52 -36h-55q-79 0 -122 17q-40 12 -86 44q-125 101 -125 247v91q0 4 1 11q11 33 50 33h161q7 0 19 -2z" />
    <glyph glyph-name="eogonek" unicode="&#x119;" 
d="M381 1236h134q124 0 200 -57q42 -29 81 -84q48 -82 48 -155v-202q0 -99 -78 -193q-45 -47 -78 -64q-68 -40 -173 -40h-199v-134q0 -28 32 -40q4 -1 9 -1h181q28 0 40 32q0 56 52 56h161q38 0 51 -27q2 -9 2 -12v-19q0 -99 -78 -192q-45 -47 -78 -64q-68 -40 -173 -40
h-134q-119 0 -192 52q-88 55 -126 170q-13 39 -13 109v575q0 118 52 192q55 87 170 126q40 12 109 12zM316 929v-222h222q28 0 40 32q1 4 1 9v181q0 29 -31 40q-5 2 -10 2h-181q-28 0 -40 -32q-1 -5 -1 -10zM744 175q34 -12 34 -42v-83q0 -8 1 -16q12 -34 38 -34h90
q10 0 15 -2q32 -12 32 -40v-180q0 -7 -1 -8q-8 -36 -52 -36h-55q-79 0 -122 17q-40 12 -86 44q-125 101 -125 247v91q0 4 1 11q11 33 50 33h161q7 0 19 -2z" />
    <glyph glyph-name="Ecaron" unicode="&#x11a;" horiz-adv-x="800" 
d="M628 1500q29 0 40 -35v-191q0 -25 -35 -38q-11 -1 -18 -1h-299v-440h217q32 0 44 -28q4 -7 4 -22v-161q0 -55 -54 -55h-211v-263h305q38 0 47 -38v-189q0 -25 -35 -38q-11 -1 -18 -1h-518q-47 5 -47 47v1407q0 35 35 46h543zM345 1707q-12 5 -290 167q-46 20 -46 51v7
q0 10 82 147q19 45 51 45q3 -2 12 -3q17 -7 204 -116q14 7 152 87q52 32 66 32q16 -2 31 -12q7 -9 63 -108q39 -62 39 -77t-12 -32q-29 -19 -267 -155q-55 -35 -70 -35q-5 0 -15 2z" />
    <glyph glyph-name="ecaron" unicode="&#x11b;" 
d="M381 1236h134q124 0 200 -57q42 -29 81 -84q48 -82 48 -155v-202q0 -99 -78 -193q-45 -47 -78 -64q-68 -40 -173 -40h-199v-134q0 -28 32 -40q4 -1 9 -1h181q28 0 40 32q0 56 52 56h161q38 0 51 -27q2 -9 2 -12v-19q0 -99 -78 -192q-45 -47 -78 -64q-68 -40 -173 -40
h-134q-119 0 -192 52q-88 55 -126 170q-13 39 -13 109v575q0 118 52 192q55 87 170 126q40 12 109 12zM316 929v-222h222q28 0 40 32q1 4 1 9v181q0 29 -31 40q-5 2 -10 2h-181q-28 0 -40 -32q-1 -5 -1 -10zM433 1443q-12 5 -290 167q-46 20 -46 51v7q0 10 82 147
q19 45 51 45q3 -2 12 -3q17 -7 204 -116q14 7 152 87q52 32 66 32q16 -2 31 -12q7 -9 63 -108q39 -62 39 -77t-12 -32q-29 -19 -267 -155q-55 -35 -70 -35q-5 0 -15 2z" />
    <glyph glyph-name="Gcircumflex" unicode="&#x11c;" 
d="M346 1500h203q111 0 211 -95q84 -98 84 -200v-197q-8 -37 -49 -37h-165q-35 0 -47 28q-4 7 -4 22v173q0 28 -31 40q-5 1 -10 1h-181q-28 0 -40 -31q-1 -5 -1 -10v-887q0 -28 32 -40q4 -1 9 -1h181q28 0 40 32q1 4 1 9v222h-126q-35 0 -47 29q-3 7 -3 22v165q0 35 28 47
q7 3 22 3h344q38 0 47 -37v-462q0 -99 -78 -192q-45 -47 -78 -64q-68 -40 -173 -40h-134q-119 0 -192 52q-88 55 -126 170q-13 39 -13 109v840q0 124 58 200q28 42 83 81q82 48 155 48zM448 2124q15 0 70 -36q238 -135 267 -155q12 -16 12 -32q0 -15 -39 -76
q-56 -100 -63 -108q-15 -11 -31 -12q-14 0 -66 32q-138 80 -152 87q-187 -109 -204 -117q-9 -1 -12 -2q-32 0 -51 44q-82 137 -82 148v7q0 30 46 50q278 162 290 167q10 3 15 3z" />
    <glyph glyph-name="gcircumflex" unicode="&#x11d;" 
d="M346 1237h203q21 0 52 -6q10 6 17 6h186q29 0 40 -35v-1345q0 -99 -78 -192q-45 -47 -78 -64q-68 -40 -173 -40h-414q-36 0 -47 28q-4 7 -4 23v164q0 36 28 47q7 4 23 4h437q28 0 40 32q1 4 1 9v134h-198q-119 0 -192 52q-88 55 -126 170q-13 39 -13 109v575
q0 124 58 200q28 42 83 81q82 48 155 48zM316 931v-622q0 -28 32 -40q4 -1 9 -1h222v663q0 28 -31 40q-5 1 -10 1h-181q-28 0 -40 -31q-1 -5 -1 -10zM448 1860q15 0 70 -36q238 -135 267 -155q12 -16 12 -32q0 -15 -39 -76q-56 -100 -63 -108q-15 -11 -31 -12q-14 0 -66 32
q-138 80 -152 87q-187 -109 -204 -117q-9 -1 -12 -2q-32 0 -51 44q-82 137 -82 148v7q0 30 46 50q278 162 290 167q10 3 15 3z" />
    <glyph glyph-name="Gdot" unicode="&#x120;" 
d="M346 1500h203q111 0 211 -95q84 -98 84 -200v-197q-8 -37 -49 -37h-165q-35 0 -47 28q-4 7 -4 22v173q0 28 -31 40q-5 1 -10 1h-181q-28 0 -40 -31q-1 -5 -1 -10v-887q0 -28 32 -40q4 -1 9 -1h181q28 0 40 32q1 4 1 9v222h-126q-35 0 -47 29q-3 7 -3 22v165q0 35 28 47
q7 3 22 3h344q38 0 47 -37v-462q0 -99 -78 -192q-45 -47 -78 -64q-68 -40 -173 -40h-134q-119 0 -192 52q-88 55 -126 170q-13 39 -13 109v840q0 124 58 200q28 42 83 81q82 48 155 48zM401 2016h167q41 0 50 -35q1 -2 1 -9v-178q0 -30 -34 -43q-10 -1 -17 -1h-167
q-35 0 -47 35v189q0 27 32 40q5 2 15 2z" />
    <glyph glyph-name="gdot" unicode="&#x121;" 
d="M346 1237h203q21 0 52 -6q10 6 17 6h186q29 0 40 -35v-1345q0 -99 -78 -192q-45 -47 -78 -64q-68 -40 -173 -40h-414q-36 0 -47 28q-4 7 -4 23v164q0 36 28 47q7 4 23 4h437q28 0 40 32q1 4 1 9v134h-198q-119 0 -192 52q-88 55 -126 170q-13 39 -13 109v575
q0 124 58 200q28 42 83 81q82 48 155 48zM316 931v-622q0 -28 32 -40q4 -1 9 -1h222v663q0 28 -31 40q-5 1 -10 1h-181q-28 0 -40 -31q-1 -5 -1 -10zM401 1752h167q41 0 50 -35q1 -2 1 -9v-178q0 -30 -34 -43q-10 -1 -17 -1h-167q-35 0 -47 35v189q0 27 32 40q5 2 15 2z" />
    <glyph glyph-name="Gcedilla" unicode="&#x122;" 
d="M345 1500h203q111 0 211 -95q84 -98 84 -200v-197q-8 -37 -49 -37h-165q-35 0 -47 28q-4 7 -4 22v173q0 28 -31 40q-5 1 -10 1h-181q-28 0 -40 -31q-1 -5 -1 -10v-887q0 -28 32 -40q4 -1 9 -1h181q28 0 40 32q1 4 1 9v222h-126q-35 0 -47 29q-3 7 -3 22v165q0 35 28 47
q7 3 22 3h344q38 0 47 -37v-462q0 -99 -78 -192q-45 -47 -78 -64q-68 -40 -173 -40h-134q-119 0 -192 52q-88 55 -126 170q-13 39 -13 109v840q0 124 58 200q28 42 83 81q82 48 155 48zM349 -150h162q38 0 49 -33q1 -7 1 -11v-91q0 -146 -125 -247q-46 -32 -85 -44
q-44 -17 -123 -17h-55q-44 0 -52 36q-1 1 -1 8v180q0 28 32 40q5 2 15 2h91q25 0 37 34q1 8 1 16v83q0 30 35 42q12 2 18 2z" />
    <glyph glyph-name="gcedilla" unicode="&#x123;" 
d="M346 1237h203q21 0 52 -6q10 6 17 6h186q29 0 40 -35v-1345q0 -99 -78 -192q-45 -47 -78 -64q-68 -40 -173 -40h-414q-36 0 -47 28q-4 7 -4 23v164q0 36 28 47q7 4 23 4h437q28 0 40 32q1 4 1 9v134h-198q-119 0 -192 52q-88 55 -126 170q-13 39 -13 109v575
q0 124 58 200q28 42 83 81q82 48 155 48zM316 931v-622q0 -28 32 -40q4 -1 9 -1h222v663q0 28 -31 40q-5 1 -10 1h-181q-28 0 -40 -31q-1 -5 -1 -10zM361 1449q-35 12 -35 42v83q0 8 -1 16q-12 34 -37 34h-91q-10 0 -15 2q-32 12 -32 40v180q0 7 1 8q8 36 52 36h55
q79 0 123 -17q39 -12 85 -44q125 -101 125 -247v-91q0 -4 -1 -11q-11 -33 -49 -33h-162q-6 0 -18 2z" />
    <glyph glyph-name="Hcircumflex" unicode="&#x124;" 
d="M87 1500h189q25 0 37 -35q2 -11 2 -18v-652h262v656q0 41 37 49h189q25 0 37 -35v-1427q-8 -38 -49 -38h-160q-54 0 -54 54v475h-262v-478q0 -36 -29 -47q-7 -4 -22 -4h-160q-54 0 -54 54v1397q0 41 37 49zM446 2124q15 0 70 -36q238 -135 267 -155q12 -16 12 -32
q0 -15 -39 -76q-56 -100 -63 -108q-15 -11 -31 -12q-14 0 -66 32q-138 80 -152 87q-187 -109 -204 -117q-9 -1 -12 -2q-32 0 -51 44q-82 137 -82 148v7q0 30 46 50q278 162 290 167q10 3 15 3z" />
    <glyph glyph-name="hcircumflex" unicode="&#x125;" 
d="M88 1500h190q38 -8 38 -49v-215h199q118 0 191 -51q88 -56 126 -171q13 -40 13 -108v-852q0 -54 -54 -54h-163q-32 0 -45 28q-4 7 -4 23v878q0 29 -31 40q-5 2 -10 2h-222v-920q0 -42 -38 -50q-4 -1 -10 -1h-170q-32 0 -44 28q-4 7 -4 23v1400q0 41 38 49zM449 2118
q15 0 70 -36q238 -135 267 -155q12 -16 12 -32q0 -15 -39 -76q-56 -100 -63 -108q-15 -11 -31 -12q-14 0 -66 32q-138 80 -152 87q-187 -109 -204 -117q-9 -1 -12 -2q-32 0 -51 44q-82 137 -82 148v7q0 30 46 50q278 162 290 167q10 3 15 3z" />
    <glyph glyph-name="Hbar" unicode="&#x126;" horiz-adv-x="1150" 
d="M137 1500h189q25 0 37 -35q2 -11 2 -18v-652h262v656q0 41 37 49h189q25 0 37 -35v-1427q-8 -38 -49 -38h-160q-54 0 -54 54v475h-262v-478q0 -36 -29 -47q-7 -4 -22 -4h-160q-54 0 -54 54v1397q0 41 37 49zM88 1300h925q29 0 40 -35v-193q-8 -38 -50 -38h-902
q-36 0 -47 28q-4 8 -4 23v165q0 42 38 50z" />
    <glyph glyph-name="hbar" unicode="&#x127;" horiz-adv-x="1050" 
d="M138 1500h190q38 -8 38 -49v-545h199q118 0 191 -51q88 -56 126 -171q13 -40 13 -108v-522q0 -54 -54 -54h-163q-32 0 -45 28q-4 7 -4 23v548q0 29 -31 40q-5 2 -10 2h-222v-590q0 -42 -38 -50q-4 -1 -10 -1h-170q-32 0 -44 28q-4 7 -4 23v1400q0 41 38 49zM88 1300h775
q29 0 40 -35v-193q-8 -38 -50 -38h-752q-36 0 -47 28q-4 8 -4 23v165q0 42 38 50z" />
    <glyph glyph-name="Itilde" unicode="&#x128;" horiz-adv-x="483" 
d="M89 1500h189q26 0 38 -35v-1427q-8 -38 -49 -38h-162q-54 0 -54 54v1397q0 41 38 49zM-81 2000q16 0 49 -25q42 -26 86 -26q31 0 173 38q56 11 103 11h6q74 0 138 -27q18 -15 18 -37v-177q0 -28 -26 -41q-10 -5 -19 -5q-12 0 -54 24q-35 15 -73 15q-39 0 -166 -35
q-62 -14 -112 -14h-9q-69 0 -138 29q-21 15 -21 37v190q0 31 34 41q4 2 11 2z" />
    <glyph glyph-name="itilde" unicode="&#x129;" horiz-adv-x="500" 
d="M104 1243h165q38 0 47 -38v-1166q0 -25 -35 -38q-11 -1 -18 -1h-162q-36 0 -47 28q-4 8 -4 23v1137q0 55 54 55zM-81 1736q16 0 49 -25q42 -26 86 -26q31 0 173 38q56 11 103 11h6q74 0 138 -27q18 -15 18 -37v-177q0 -28 -26 -41q-10 -5 -19 -5q-12 0 -54 24
q-35 15 -73 15q-39 0 -166 -35q-62 -14 -112 -14h-9q-69 0 -138 29q-21 15 -21 37v190q0 31 34 41q4 2 11 2z" />
    <glyph glyph-name="Imacron" unicode="&#x12a;" horiz-adv-x="483" 
d="M88 1500h189q26 0 38 -35v-1427q-8 -38 -49 -38h-162q-54 0 -54 54v1397q0 41 38 49zM-76 1967h520q33 0 45 -32q3 -9 3 -22v-158q0 -38 -26 -49q-10 -5 -22 -5h-520q-36 0 -47 28q-4 8 -4 19v172q0 35 35 46q8 1 16 1z" />
    <glyph glyph-name="imacron" unicode="&#x12b;" horiz-adv-x="500" 
d="M105 1243h165q38 0 47 -38v-1166q0 -25 -35 -38q-11 -1 -18 -1h-162q-36 0 -47 28q-4 8 -4 23v1137q0 55 54 55zM-75 1703h520q33 0 45 -32q3 -9 3 -22v-158q0 -38 -26 -49q-10 -5 -22 -5h-520q-36 0 -47 28q-4 8 -4 19v172q0 35 35 46q8 1 16 1z" />
    <glyph glyph-name="Ibreve" unicode="&#x12c;" horiz-adv-x="483" 
d="M88 1500h189q26 0 38 -35v-1427q-8 -38 -49 -38h-162q-54 0 -54 54v1397q0 41 38 49zM-83 2068h178q39 0 44 -49q0 -26 34 -38q6 -1 11 -1q29 0 41 33q0 40 29 53q11 2 15 2h179q30 0 41 -32l3 -10q0 -148 -125 -249q-85 -61 -180 -61h-9q-141 0 -244 123q-61 87 -61 186
q8 43 44 43z" />
    <glyph glyph-name="ibreve" unicode="&#x12d;" horiz-adv-x="500" 
d="M105 1243h165q38 0 47 -38v-1166q0 -25 -35 -38q-11 -1 -18 -1h-162q-36 0 -47 28q-4 8 -4 23v1137q0 55 54 55zM-82 1804h178q39 0 44 -49q0 -26 34 -38q6 -1 11 -1q29 0 41 33q0 40 29 53q11 2 15 2h179q30 0 41 -32l3 -10q0 -148 -125 -249q-85 -61 -180 -61h-9
q-141 0 -244 123q-61 87 -61 186q8 43 44 43z" />
    <glyph glyph-name="Iogonek" unicode="&#x12e;" horiz-adv-x="487" 
d="M90 1500h186q29 0 40 -35q1 -6 1 -14v-1397q0 -54 -54 -54h-158q-54 0 -54 54v1393q0 38 27 51q10 2 12 2zM277 -152q35 -12 35 -42v-83q0 -8 1 -16q12 -34 37 -34h91q10 0 15 -2q32 -12 32 -40v-180q0 -7 -1 -8q-8 -36 -52 -36h-55q-79 0 -123 17q-39 12 -85 44
q-125 101 -125 247v91q0 4 1 11q11 33 49 33h162q6 0 18 -2z" />
    <glyph glyph-name="iogonek" unicode="&#x12f;" horiz-adv-x="500" 
d="M99 1685h187q29 0 40 -35v-192q0 -25 -35 -38q-11 -1 -18 -1h-162q-36 0 -47 28q-4 7 -4 23v162q0 38 27 51q10 2 12 2zM110 1243h165q38 0 47 -38v-1166q0 -25 -35 -38q-11 -1 -18 -1h-162q-36 0 -47 28q-4 8 -4 23v1137q0 55 54 55zM277 -152q35 -12 35 -42v-83
q0 -8 1 -16q12 -34 37 -34h91q10 0 15 -2q32 -12 32 -40v-180q0 -7 -1 -8q-8 -36 -52 -36h-55q-79 0 -123 17q-39 12 -85 44q-125 101 -125 247v91q0 4 1 11q11 33 49 33h162q6 0 18 -2z" />
    <glyph glyph-name="IJ" unicode="&#x132;" 
d="M87 1500h189q26 0 38 -35v-1427q-8 -38 -49 -38h-162q-54 0 -54 54v1397q0 41 38 49zM598 1500h189q26 0 38 -35v-1169q0 -113 -98 -214q-95 -82 -211 -82q-43 9 -43 40q-1 0 -1 11v164q0 37 31 49q44 4 44 15q13 10 13 28v1144q0 41 38 49z" />
    <glyph glyph-name="ij" unicode="&#x133;" horiz-adv-x="909" 
d="M90 1685h187q29 0 40 -35v-192q0 -25 -35 -38q-11 -1 -18 -1h-162q-36 0 -47 28q-4 7 -4 23v162q0 38 27 51q10 2 12 2zM101 1243h165q38 0 47 -38v-1166q0 -25 -35 -38q-11 -1 -18 -1h-162q-36 0 -47 28q-4 8 -4 23v1137q0 55 54 55zM435 1667h186q29 0 40 -35v-191
q0 -25 -35 -37q-11 -2 -18 -2h-161q-35 0 -47 29q-4 7 -4 22v161q0 38 27 51q10 2 12 2zM449 1234h164q38 0 47 -38v-1343q0 -99 -78 -193q-45 -46 -78 -63q-68 -40 -173 -40h-61q-36 0 -47 28q-4 7 -4 23v164q0 36 28 47q7 4 23 4h84q28 0 40 32q1 4 1 9v1316q0 54 54 54z
" />
    <glyph glyph-name="Jcircumflex" unicode="&#x134;" horiz-adv-x="550" 
d="M152 1500h189q26 0 38 -35v-1169q0 -113 -98 -214q-95 -82 -211 -82q-43 9 -43 40q-1 0 -1 11v164q0 37 31 49q44 4 44 15q13 10 13 28v1144q0 41 38 49zM258 2124q15 0 70 -36q238 -135 267 -155q12 -16 12 -32q0 -15 -39 -76q-56 -100 -63 -108q-15 -11 -31 -12
q-14 0 -66 32q-138 80 -152 87q-187 -109 -204 -117q-9 -1 -12 -2q-32 0 -51 44q-82 137 -82 148v7q0 30 46 50q278 162 290 167q10 3 15 3z" />
    <glyph glyph-name="jcircumflex" unicode="&#x135;" horiz-adv-x="600" 
d="M230 1234h164q38 0 47 -38v-1343q0 -99 -78 -193q-45 -46 -78 -63q-68 -40 -173 -40h-61q-36 0 -47 28q-4 7 -4 23v164q0 36 28 47q7 4 23 4h84q28 0 40 32q1 4 1 9v1316q0 54 54 54zM301 1860q15 0 70 -36q238 -135 267 -155q12 -16 12 -32q0 -15 -39 -76
q-56 -100 -63 -108q-15 -11 -31 -12q-14 0 -66 32q-138 80 -152 87q-187 -109 -204 -117q-9 -1 -12 -2q-32 0 -51 44q-82 137 -82 148v7q0 30 46 50q278 162 290 167q10 3 15 3z" />
    <glyph glyph-name="Kcedilla" unicode="&#x136;" horiz-adv-x="1050" 
d="M88 1500h189q39 -7 39 -51v-536h1q325 567 332 574q14 13 25 13h217q21 0 35 -28q2 -5 2 -13v-5q0 -15 -27 -56q-354 -615 -363 -632v-1q392 -678 407 -707q1 -2 1 -6v-14q-8 -38 -49 -38h-191q-38 0 -52 33l-337 586h-1v-572q0 -35 -36 -46q-7 -1 -15 -1h-161
q-54 0 -54 54v1397q0 41 38 49zM406 -150h162q38 0 49 -33q1 -7 1 -11v-91q0 -146 -125 -247q-46 -32 -85 -44q-44 -17 -123 -17h-55q-44 0 -52 36q-1 1 -1 8v180q0 28 32 40q5 2 15 2h91q25 0 37 34q1 8 1 16v83q0 30 35 42q12 2 18 2z" />
    <glyph glyph-name="kcedilla" unicode="&#x137;" horiz-adv-x="1100" 
d="M84 1500h190q38 -8 38 -49v-493q74 -99 76 -104q10 9 220 277q72 90 82 98q9 7 22 7h233q25 0 37 -32q2 -5 2 -10v-2q0 -21 -37 -60q-5 -7 -393 -497v-1l425 -569q5 -9 5 -19v-2q0 -30 -35 -43q-12 -1 -18 -1h-220q-34 0 -56 42q-5 6 -342 466v1h-1v-458q0 -42 -38 -50
q-4 -1 -10 -1h-170q-32 0 -44 28q-4 7 -4 23v1400q0 41 38 49zM406 -150h162q38 0 49 -33q1 -7 1 -11v-91q0 -146 -125 -247q-46 -32 -85 -44q-44 -17 -123 -17h-55q-44 0 -52 36q-1 1 -1 8v180q0 28 32 40q5 2 15 2h91q25 0 37 34q1 8 1 16v83q0 30 35 42q12 2 18 2z" />
    <glyph glyph-name="kgreenlandic" unicode="&#x138;" horiz-adv-x="1100" 
d="M87 1240h190q38 -8 38 -49v-233q74 -99 76 -104q10 9 220 277q72 90 82 98q9 7 22 7h233q25 0 37 -32q2 -5 2 -10v-2q0 -21 -37 -60q-5 -7 -393 -497v-1l425 -569q5 -9 5 -19v-2q0 -30 -35 -43q-12 -1 -18 -1h-220q-34 0 -56 42q-5 6 -342 466v1h-1v-458q0 -42 -38 -50
q-4 -1 -10 -1h-170q-32 0 -44 28q-4 7 -4 23v1140q0 41 38 49z" />
    <glyph glyph-name="Lacute" unicode="&#x139;" horiz-adv-x="750" 
d="M88 1500h189q25 0 38 -35q1 -11 1 -18v-1181h305q38 0 47 -38v-189q0 -25 -35 -38q-11 -1 -18 -1h-518q-47 5 -47 47v1404q0 41 38 49zM568 2155q35 -12 35 -42q-1 -14 -99 -372q-11 -27 -47 -27h-173q-11 0 -19 4q-28 14 -28 36v9q0 3 95 358q11 35 47 35h173q8 0 16 -1
z" />
    <glyph glyph-name="lacute" unicode="&#x13a;" horiz-adv-x="487" 
d="M90 1500h186q29 0 40 -35q1 -6 1 -14v-1397q0 -54 -54 -54h-158q-54 0 -54 54v1393q0 38 27 51q10 2 12 2zM381 2141q35 -12 35 -42q-1 -14 -99 -372q-11 -27 -47 -27h-173q-11 0 -19 4q-28 14 -28 36v9q0 3 95 358q11 35 47 35h173q8 0 16 -1z" />
    <glyph glyph-name="Lcedilla" unicode="&#x13b;" horiz-adv-x="750" 
d="M88 1500h189q25 0 38 -35q1 -11 1 -18v-1181h305q38 0 47 -38v-189q0 -25 -35 -38q-11 -1 -18 -1h-518q-47 5 -47 47v1404q0 41 38 49zM236 -150h162q38 0 49 -33q1 -7 1 -11v-91q0 -146 -125 -247q-46 -32 -85 -44q-44 -17 -123 -17h-55q-44 0 -52 36q-1 1 -1 8v180
q0 28 32 40q5 2 15 2h91q25 0 37 34q1 8 1 16v83q0 30 35 42q12 2 18 2z" />
    <glyph glyph-name="lcedilla" unicode="&#x13c;" horiz-adv-x="487" 
d="M90 1500h186q29 0 40 -35q1 -6 1 -14v-1397q0 -54 -54 -54h-158q-54 0 -54 54v1393q0 38 27 51q10 2 12 2zM96 -150h162q38 0 49 -33q1 -7 1 -11v-91q0 -146 -125 -247q-46 -32 -85 -44q-44 -17 -123 -17h-55q-44 0 -52 36q-1 1 -1 8v180q0 28 32 40q5 2 15 2h91
q25 0 37 34q1 8 1 16v83q0 30 35 42q12 2 18 2z" />
    <glyph glyph-name="Lcaron" unicode="&#x13d;" horiz-adv-x="1050" 
d="M88 1500h189q25 0 38 -35q1 -11 1 -18v-1181h305q38 0 47 -38v-189q0 -25 -35 -38q-11 -1 -18 -1h-518q-47 5 -47 47v1404q0 41 38 49zM931 1499q35 -12 35 -42q-1 -14 -99 -372q-11 -27 -47 -27h-173q-11 0 -19 4q-28 14 -28 36v9q0 3 95 358q11 35 47 35h173q8 0 16 -1
z" />
    <glyph glyph-name="lcaron" unicode="&#x13e;" 
d="M89 1500h186q29 0 40 -35q1 -6 1 -14v-1397q0 -54 -54 -54h-158q-54 0 -54 54v1393q0 38 27 51q10 2 12 2zM835 1499q35 -12 35 -42q-1 -14 -99 -372q-11 -27 -47 -27h-173q-11 0 -19 4q-28 14 -28 36v9q0 3 95 358q11 35 47 35h173q8 0 16 -1z" />
    <glyph glyph-name="Ldot" unicode="&#x13f;" horiz-adv-x="850" 
d="M88 1500h189q25 0 38 -35q1 -11 1 -18v-1181h305q38 0 47 -38v-189q0 -25 -35 -38q-11 -1 -18 -1h-518q-47 5 -47 47v1404q0 41 38 49zM546 932h167q41 0 50 -35q1 -2 1 -9v-178q0 -30 -34 -43q-10 -1 -17 -1h-167q-35 0 -47 35v189q0 27 32 40q5 2 15 2z" />
    <glyph glyph-name="ldot" unicode="&#x140;" horiz-adv-x="850" 
d="M89 1500h186q29 0 40 -35q1 -6 1 -14v-1397q0 -54 -54 -54h-158q-54 0 -54 54v1393q0 38 27 51q10 2 12 2zM547 932h167q41 0 50 -35q1 -2 1 -9v-178q0 -30 -34 -43q-10 -1 -17 -1h-167q-35 0 -47 35v189q0 27 32 40q5 2 15 2z" />
    <glyph glyph-name="Nacute" unicode="&#x143;" horiz-adv-x="1100" 
d="M283 1500q29 0 47 -56q4 -4 336 -785h1v788q0 38 27 51q10 2 12 2h188q26 0 38 -35v-1427q-8 -38 -49 -38h-167q-40 0 -53 48q-6 12 -346 791h-1v-788q0 -36 -28 -47q-8 -4 -23 -4h-161q-54 0 -54 54v1400q0 35 35 46h198zM700 2155q35 -12 35 -42q-1 -14 -99 -372
q-11 -27 -47 -27h-173q-11 0 -19 4q-28 14 -28 36v9q0 3 95 358q11 35 47 35h173q8 0 16 -1z" />
    <glyph glyph-name="nacute" unicode="&#x144;" horiz-adv-x="1026" 
d="M103 1236h167q15 0 27 -7q32 7 86 7h134q118 0 191 -51q88 -56 126 -171q13 -40 13 -108v-852q0 -54 -54 -54h-163q-32 0 -45 28q-4 7 -4 23v878q0 29 -31 40q-5 2 -10 2h-181q-28 0 -40 -32q-1 -5 -1 -10v-881q0 -38 -38 -47q-4 -1 -10 -1h-170q-32 0 -44 28q-4 7 -4 23
v1135q0 35 28 47q7 3 23 3zM659 1891q35 -12 35 -42q-1 -14 -99 -372q-11 -27 -47 -27h-173q-11 0 -19 4q-28 14 -28 36v9q0 3 95 358q11 35 47 35h173q8 0 16 -1z" />
    <glyph glyph-name="Ncedilla" unicode="&#x145;" horiz-adv-x="1100" 
d="M289 1500q29 0 47 -56q4 -4 326 -745h1v748q0 38 27 51q10 2 12 2h188q26 0 38 -35v-1427q-8 -38 -49 -38h-167q-40 0 -53 48q-6 12 -346 791h-1v-788q0 -36 -28 -47q-8 -4 -23 -4h-161q-54 0 -54 54v1400q0 35 35 46h208zM416 -150h162q38 0 49 -33q1 -7 1 -11v-91
q0 -146 -125 -247q-46 -32 -85 -44q-44 -17 -123 -17h-55q-44 0 -52 36q-1 1 -1 8v180q0 28 32 40q5 2 15 2h91q25 0 37 34q1 8 1 16v83q0 30 35 42q12 2 18 2z" />
    <glyph glyph-name="ncedilla" unicode="&#x146;" 
d="M106 1236h167q15 0 27 -7q32 7 86 7h134q118 0 191 -51q88 -56 126 -171q13 -40 13 -108v-852q0 -54 -54 -54h-163q-32 0 -45 28q-4 7 -4 23v878q0 29 -31 40q-5 2 -10 2h-181q-28 0 -40 -32q-1 -5 -1 -10v-881q0 -38 -38 -47q-4 -1 -10 -1h-170q-32 0 -44 28q-4 7 -4 23
v1135q0 35 28 47q7 3 23 3zM376 -150h162q38 0 49 -33q1 -7 1 -11v-91q0 -146 -125 -247q-46 -32 -85 -44q-44 -17 -123 -17h-55q-44 0 -52 36q-1 1 -1 8v180q0 28 32 40q5 2 15 2h91q25 0 37 34q1 8 1 16v83q0 30 35 42q12 2 18 2z" />
    <glyph glyph-name="Ncaron" unicode="&#x147;" horiz-adv-x="1100" 
d="M283 1500q29 0 47 -56q4 -4 336 -785h1v788q0 38 27 51q10 2 12 2h188q26 0 38 -35v-1427q-8 -38 -49 -38h-167q-40 0 -53 48q-6 12 -346 791h-1v-788q0 -36 -28 -47q-8 -4 -23 -4h-161q-54 0 -54 54v1400q0 35 35 46h198zM477 1707q-12 5 -290 167q-46 20 -46 51v7
q0 10 82 147q19 45 51 45q3 -2 12 -3q17 -7 204 -116q14 7 152 87q52 32 66 32q16 -2 31 -12q7 -9 63 -108q39 -62 39 -77t-12 -32q-29 -19 -267 -155q-55 -35 -70 -35q-5 0 -15 2z" />
    <glyph glyph-name="ncaron" unicode="&#x148;" horiz-adv-x="1026" 
d="M103 1236h167q15 0 27 -7q32 7 86 7h134q118 0 191 -51q88 -56 126 -171q13 -40 13 -108v-852q0 -54 -54 -54h-163q-32 0 -45 28q-4 7 -4 23v878q0 29 -31 40q-5 2 -10 2h-181q-28 0 -40 -32q-1 -5 -1 -10v-881q0 -38 -38 -47q-4 -1 -10 -1h-170q-32 0 -44 28q-4 7 -4 23
v1135q0 35 28 47q7 3 23 3zM436 1443q-12 5 -290 167q-46 20 -46 51v7q0 10 82 147q19 45 51 45q3 -2 12 -3q17 -7 204 -116q14 7 152 87q52 32 66 32q16 -2 31 -12q7 -9 63 -108q39 -62 39 -77t-12 -32q-29 -19 -267 -155q-55 -35 -70 -35q-5 0 -15 2z" />
    <glyph glyph-name="napostrophe" unicode="&#x149;" horiz-adv-x="1150" 
d="M257 1236h167q15 0 27 -7q32 7 86 7h134q118 0 191 -51q88 -56 126 -171q13 -40 13 -108v-852q0 -54 -54 -54h-163q-32 0 -45 28q-4 7 -4 23v878q0 29 -31 40q-5 2 -10 2h-181q-28 0 -40 -32q-1 -5 -1 -10v-881q0 -38 -38 -47q-4 -1 -10 -1h-170q-32 0 -44 28q-4 7 -4 23
v1135q0 35 28 47q7 3 23 3zM292 1891q35 -12 35 -42q-1 -14 -99 -372q-11 -27 -47 -27h-173q-11 0 -19 4q-28 14 -28 36v9q0 3 95 358q11 35 47 35h173q8 0 16 -1z" />
    <glyph glyph-name="Eng" unicode="&#x14a;" horiz-adv-x="1029" 
d="M106 1501h167q15 0 27 -7q32 7 86 7h134q118 0 191 -51q88 -56 126 -171q13 -40 13 -108v-1247q0 -54 -54 -54h-163q-32 0 -45 28q-4 7 -4 23v1273q0 29 -31 40q-5 2 -10 2h-181q-28 0 -40 -32q-1 -5 -1 -10v-1146q0 -38 -38 -47q-4 -1 -10 -1h-170q-32 0 -44 28
q-4 7 -4 23v1400q0 35 28 47q7 3 23 3zM638 -2h162q38 0 49 -33q1 -7 1 -11v-91q0 -146 -125 -247q-46 -32 -85 -44q-44 -17 -123 -17h-55q-44 0 -52 36q-1 1 -1 8v180q0 28 32 40q5 2 15 2h91q25 0 37 34q1 8 1 16v83q0 30 35 42q12 2 18 2z" />
    <glyph glyph-name="eng" unicode="&#x14b;" horiz-adv-x="1029" 
d="M106 1236h167q15 0 27 -7q32 7 86 7h134q118 0 191 -51q88 -56 126 -171q13 -40 13 -108v-982q0 -54 -54 -54h-163q-32 0 -45 28q-4 7 -4 23v1008q0 29 -31 40q-5 2 -10 2h-181q-28 0 -40 -32q-1 -5 -1 -10v-881q0 -38 -38 -47q-4 -1 -10 -1h-170q-32 0 -44 28
q-4 7 -4 23v1135q0 35 28 47q7 3 23 3zM638 -2h162q38 0 49 -33q1 -7 1 -11v-91q0 -146 -125 -247q-46 -32 -85 -44q-44 -17 -123 -17h-55q-44 0 -52 36q-1 1 -1 8v180q0 28 32 40q5 2 15 2h91q25 0 37 34q1 8 1 16v83q0 30 35 42q12 2 18 2z" />
    <glyph glyph-name="Omacron" unicode="&#x14c;" 
d="M346 1500h203q111 0 211 -95q84 -98 84 -200v-909q0 -99 -78 -192q-45 -47 -78 -64q-68 -40 -173 -40h-134q-119 0 -192 52q-88 55 -126 170q-13 39 -13 109v840q0 124 58 200q28 42 83 81q82 48 155 48zM316 1194v-887q0 -28 32 -40q4 -1 9 -1h181q28 0 40 32q1 4 1 9
v887q0 28 -31 40q-5 1 -10 1h-181q-28 0 -40 -31q-1 -5 -1 -10zM189 1967h520q33 0 45 -32q3 -9 3 -22v-158q0 -38 -26 -49q-10 -5 -22 -5h-520q-36 0 -47 28q-4 8 -4 19v172q0 35 35 46q8 1 16 1z" />
    <glyph glyph-name="omacron" unicode="&#x14d;" horiz-adv-x="1023" 
d="M386 1236h134q124 0 200 -57q42 -29 81 -84q48 -82 48 -155v-644q0 -111 -95 -211q-78 -67 -160 -80q-29 -5 -78 -5h-127q-122 0 -188 48q-91 55 -130 164q-16 42 -16 119v575q0 118 52 192q55 87 170 126q40 12 109 12zM321 929v-622q0 -28 32 -40q4 -1 9 -1h181
q28 0 40 32q1 4 1 9v622q0 29 -31 40q-5 2 -10 2h-181q-28 0 -40 -32q-1 -5 -1 -10zM194 1703h520q33 0 45 -32q3 -9 3 -22v-158q0 -38 -26 -49q-10 -5 -22 -5h-520q-36 0 -47 28q-4 8 -4 19v172q0 35 35 46q8 1 16 1z" />
    <glyph glyph-name="Obreve" unicode="&#x14e;" 
d="M346 1500h203q111 0 211 -95q84 -98 84 -200v-909q0 -99 -78 -192q-45 -47 -78 -64q-68 -40 -173 -40h-134q-119 0 -192 52q-88 55 -126 170q-13 39 -13 109v840q0 124 58 200q28 42 83 81q82 48 155 48zM316 1194v-887q0 -28 32 -40q4 -1 9 -1h181q28 0 40 32q1 4 1 9
v887q0 28 -31 40q-5 1 -10 1h-181q-28 0 -40 -31q-1 -5 -1 -10zM182 2068h178q39 0 44 -49q0 -26 34 -38q6 -1 11 -1q29 0 41 33q0 40 29 53q11 2 15 2h179q30 0 41 -32l3 -10q0 -148 -125 -249q-85 -61 -180 -61h-9q-141 0 -244 123q-61 87 -61 186q8 43 44 43z" />
    <glyph glyph-name="obreve" unicode="&#x14f;" 
d="M386 1236h134q124 0 200 -57q42 -29 81 -84q48 -82 48 -155v-644q0 -111 -95 -211q-78 -67 -160 -80q-29 -5 -78 -5h-127q-122 0 -188 48q-91 55 -130 164q-16 42 -16 119v575q0 118 52 192q55 87 170 126q40 12 109 12zM321 929v-622q0 -28 32 -40q4 -1 9 -1h181
q28 0 40 32q1 4 1 9v622q0 29 -31 40q-5 2 -10 2h-181q-28 0 -40 -32q-1 -5 -1 -10zM187 1804h178q39 0 44 -49q0 -26 34 -38q6 -1 11 -1q29 0 41 33q0 40 29 53q11 2 15 2h179q30 0 41 -32l3 -10q0 -148 -125 -249q-85 -61 -180 -61h-9q-141 0 -244 123q-61 87 -61 186
q8 43 44 43z" />
    <glyph glyph-name="Odblacute" unicode="&#x150;" 
d="M319 1500h203q111 0 211 -95q84 -98 84 -200v-909q0 -99 -78 -192q-45 -47 -78 -64q-68 -40 -173 -40h-134q-119 0 -192 52q-88 55 -126 170q-13 39 -13 109v840q0 124 58 200q28 42 83 81q82 48 155 48zM289 1194v-887q0 -28 32 -40q4 -1 9 -1h181q28 0 40 32q1 4 1 9
v887q0 28 -31 40q-5 1 -10 1h-181q-28 0 -40 -31q-1 -5 -1 -10zM424 2142q35 -12 35 -42q-1 -14 -99 -372q-11 -27 -47 -27h-173q-11 0 -19 4q-28 14 -28 36v9q0 3 95 358q11 35 47 35h173q8 0 16 -1zM886 2143q36 -13 36 -43q-1 -14 -99 -372q-12 -27 -47 -27h-173
q-11 0 -19 4q-28 14 -28 36v10q0 3 95 357q10 36 47 36h173q8 0 15 -1z" />
    <glyph glyph-name="odblacute" unicode="&#x151;" 
d="M364 1236h134q124 0 200 -57q42 -29 81 -84q48 -82 48 -155v-644q0 -111 -95 -211q-78 -67 -160 -80q-29 -5 -78 -5h-127q-122 0 -188 48q-91 55 -130 164q-16 42 -16 119v575q0 118 52 192q55 87 170 126q40 12 109 12zM299 929v-622q0 -28 32 -40q4 -1 9 -1h181
q28 0 40 32q1 4 1 9v622q0 29 -31 40q-5 2 -10 2h-181q-28 0 -40 -32q-1 -5 -1 -10zM382 1878q35 -12 35 -42q-1 -14 -99 -372q-11 -27 -47 -27h-173q-11 0 -19 4q-28 14 -28 36v9q0 3 95 358q11 35 47 35h173q8 0 16 -1zM844 1879q36 -13 36 -43q-1 -14 -99 -372
q-12 -27 -47 -27h-173q-11 0 -19 4q-28 14 -28 36v10q0 3 95 357q10 36 47 36h173q8 0 15 -1z" />
    <glyph glyph-name="Racute" unicode="&#x154;" 
d="M89 1500h460q111 0 211 -95q84 -98 84 -200v-467q0 -79 -54 -164q54 -84 54 -163v-373q-8 -38 -49 -38h-165q-35 0 -47 28q-4 7 -4 23v349q0 28 -31 40q-5 1 -10 1h-222v-387q0 -54 -54 -54h-161q-36 0 -47 28q-4 7 -4 23v1396q0 38 27 51q10 2 12 2zM316 1235v-528h222
q28 0 40 32q1 4 1 9v446q0 28 -31 40q-5 1 -10 1h-222zM656 2155q35 -12 35 -42q-1 -14 -99 -372q-11 -27 -47 -27h-173q-11 0 -19 4q-28 14 -28 36v9q0 3 95 358q11 35 47 35h173q8 0 16 -1z" />
    <glyph glyph-name="racute" unicode="&#x155;" horiz-adv-x="650" 
d="M381 1236h146q54 0 54 -54v-161q0 -36 -28 -47q-7 -4 -23 -4h-173q-28 0 -40 -32q-1 -4 -1 -9v-878q0 -36 -28 -47q-7 -4 -23 -4h-164q-36 0 -47 28q-4 7 -4 23v855q0 118 52 191q55 88 171 126q39 13 108 13zM525 1891q35 -12 35 -42q-1 -14 -99 -372q-11 -27 -47 -27
h-173q-11 0 -19 4q-28 14 -28 36v9q0 3 95 358q11 35 47 35h173q8 0 16 -1z" />
    <glyph glyph-name="Rcedilla" unicode="&#x156;" 
d="M89 1500h460q111 0 211 -95q84 -98 84 -200v-467q0 -79 -54 -164q54 -84 54 -163v-373q-8 -38 -49 -38h-165q-35 0 -47 28q-4 7 -4 23v349q0 28 -31 40q-5 1 -10 1h-222v-387q0 -54 -54 -54h-161q-36 0 -47 28q-4 7 -4 23v1396q0 38 27 51q10 2 12 2zM316 1235v-528h222
q28 0 40 32q1 4 1 9v446q0 28 -31 40q-5 1 -10 1h-222zM366 -150h162q38 0 49 -33q1 -7 1 -11v-91q0 -146 -125 -247q-46 -32 -85 -44q-44 -17 -123 -17h-55q-44 0 -52 36q-1 1 -1 8v180q0 28 32 40q5 2 15 2h91q25 0 37 34q1 8 1 16v83q0 30 35 42q12 2 18 2z" />
    <glyph glyph-name="rcedilla" unicode="&#x157;" horiz-adv-x="650" 
d="M381 1236h146q54 0 54 -54v-161q0 -36 -28 -47q-7 -4 -23 -4h-173q-28 0 -40 -32q-1 -4 -1 -9v-878q0 -36 -28 -47q-7 -4 -23 -4h-164q-36 0 -47 28q-4 7 -4 23v855q0 118 52 191q55 88 171 126q39 13 108 13zM106 -150h162q38 0 49 -33q1 -7 1 -11v-91q0 -146 -125 -247
q-46 -32 -85 -44q-44 -17 -123 -17h-55q-44 0 -52 36q-1 1 -1 8v180q0 28 32 40q5 2 15 2h91q25 0 37 34q1 8 1 16v83q0 30 35 42q12 2 18 2z" />
    <glyph glyph-name="Rcaron" unicode="&#x158;" 
d="M89 1500h460q111 0 211 -95q84 -98 84 -200v-467q0 -79 -54 -164q54 -84 54 -163v-373q-8 -38 -49 -38h-165q-35 0 -47 28q-4 7 -4 23v349q0 28 -31 40q-5 1 -10 1h-222v-387q0 -54 -54 -54h-161q-36 0 -47 28q-4 7 -4 23v1396q0 38 27 51q10 2 12 2zM316 1235v-528h222
q28 0 40 32q1 4 1 9v446q0 28 -31 40q-5 1 -10 1h-222zM433 1707q-12 5 -290 167q-46 20 -46 51v7q0 10 82 147q19 45 51 45q3 -2 12 -3q17 -7 204 -116q14 7 152 87q52 32 66 32q16 -2 31 -12q7 -9 63 -108q39 -62 39 -77t-12 -32q-29 -19 -267 -155q-55 -35 -70 -35
q-5 0 -15 2z" />
    <glyph glyph-name="rcaron" unicode="&#x159;" horiz-adv-x="650" 
d="M381 1236h146q54 0 54 -54v-161q0 -36 -28 -47q-7 -4 -23 -4h-173q-28 0 -40 -32q-1 -4 -1 -9v-878q0 -36 -28 -47q-7 -4 -23 -4h-164q-36 0 -47 28q-4 7 -4 23v855q0 118 52 191q55 88 171 126q39 13 108 13zM301 1443q-12 5 -290 167q-46 20 -46 51v7q0 10 82 147
q19 45 51 45q3 -2 12 -3q17 -7 204 -116q14 7 152 87q52 32 66 32q16 -2 31 -12q7 -9 63 -108q39 -62 39 -77t-12 -32q-29 -19 -267 -155q-55 -35 -70 -35q-5 0 -15 2z" />
    <glyph glyph-name="Sacute" unicode="&#x15a;" 
d="M346 1500h203q111 0 211 -95q84 -98 84 -200v-109q-8 -37 -49 -37h-165q-35 0 -47 28q-4 7 -4 22v85q0 28 -31 40q-5 1 -10 1h-181q-28 0 -40 -31q-1 -5 -1 -10v-269q0 -28 32 -40q4 -1 9 -1h158q124 0 200 -58q42 -29 81 -84q48 -82 48 -155v-291q0 -99 -78 -192
q-45 -47 -78 -64q-68 -40 -173 -40h-134q-119 0 -192 52q-88 55 -126 170q-13 39 -13 109v57q0 54 54 54h161q36 0 47 -28q4 -7 4 -22v-85q0 -28 32 -40q4 -1 9 -1h181q28 0 40 32q1 4 1 9v269q0 29 -31 40q-5 2 -10 2h-157q-119 0 -192 51q-88 56 -126 171q-13 38 -13 108
v223q0 124 58 200q28 42 83 81q82 48 155 48zM656 2155q35 -12 35 -42q-1 -14 -99 -372q-11 -27 -47 -27h-173q-11 0 -19 4q-28 14 -28 36v9q0 3 95 358q11 35 47 35h173q8 0 16 -1z" />
    <glyph glyph-name="sacute" unicode="&#x15b;" 
d="M384 1236h135q115 0 188 -49q89 -58 127 -165q15 -51 15 -94q0 -36 -40 -45q-4 -1 -14 -1h-161q-37 0 -48 31q-5 44 -16 44q-10 13 -28 13h-181q-28 0 -40 -32q-1 -4 -1 -9v-140q0 -24 30 -36q6 -3 16 -3h178q135 0 234 -113q38 -46 51 -89q20 -43 20 -131v-87
q0 -118 -52 -191q-55 -88 -170 -126q-39 -13 -108 -13h-135q-115 0 -188 49q-89 58 -127 165q-15 51 -15 94q0 36 40 45q4 1 14 1h161q37 0 48 -31q5 -44 16 -44q10 -13 28 -13h181q28 0 40 32q1 4 1 9v140q0 24 -30 36q-6 3 -16 3h-178q-135 0 -234 113q-38 46 -51 89
q-20 42 -20 131v87q0 118 52 191q55 88 170 126q40 13 108 13zM661 1891q35 -12 35 -42q-1 -14 -99 -372q-11 -27 -47 -27h-173q-11 0 -19 4q-28 14 -28 36v9q0 3 95 358q11 35 47 35h173q8 0 16 -1z" />
    <glyph glyph-name="Scircumflex" unicode="&#x15c;" 
d="M346 1500h203q111 0 211 -95q84 -98 84 -200v-109q-8 -37 -49 -37h-165q-35 0 -47 28q-4 7 -4 22v85q0 28 -31 40q-5 1 -10 1h-181q-28 0 -40 -31q-1 -5 -1 -10v-269q0 -28 32 -40q4 -1 9 -1h158q124 0 200 -58q42 -29 81 -84q48 -82 48 -155v-291q0 -99 -78 -192
q-45 -47 -78 -64q-68 -40 -173 -40h-134q-119 0 -192 52q-88 55 -126 170q-13 39 -13 109v57q0 54 54 54h161q36 0 47 -28q4 -7 4 -22v-85q0 -28 32 -40q4 -1 9 -1h181q28 0 40 32q1 4 1 9v269q0 29 -31 40q-5 2 -10 2h-157q-119 0 -192 51q-88 56 -126 171q-13 38 -13 108
v223q0 124 58 200q28 42 83 81q82 48 155 48zM448 2124q15 0 70 -36q238 -135 267 -155q12 -16 12 -32q0 -15 -39 -76q-56 -100 -63 -108q-15 -11 -31 -12q-14 0 -66 32q-138 80 -152 87q-187 -109 -204 -117q-9 -1 -12 -2q-32 0 -51 44q-82 137 -82 148v7q0 30 46 50
q278 162 290 167q10 3 15 3z" />
    <glyph glyph-name="scircumflex" unicode="&#x15d;" 
d="M384 1236h135q115 0 188 -49q89 -58 127 -165q15 -51 15 -94q0 -36 -40 -45q-4 -1 -14 -1h-161q-37 0 -48 31q-5 44 -16 44q-10 13 -28 13h-181q-28 0 -40 -32q-1 -4 -1 -9v-140q0 -24 30 -36q6 -3 16 -3h178q135 0 234 -113q38 -46 51 -89q20 -43 20 -131v-87
q0 -118 -52 -191q-55 -88 -170 -126q-39 -13 -108 -13h-135q-115 0 -188 49q-89 58 -127 165q-15 51 -15 94q0 36 40 45q4 1 14 1h161q37 0 48 -31q5 -44 16 -44q10 -13 28 -13h181q28 0 40 32q1 4 1 9v140q0 24 -30 36q-6 3 -16 3h-178q-135 0 -234 113q-38 46 -51 89
q-20 42 -20 131v87q0 118 52 191q55 88 170 126q40 13 108 13zM452 1860q15 0 70 -36q238 -135 267 -155q12 -16 12 -32q0 -15 -39 -76q-56 -100 -63 -108q-15 -11 -31 -12q-14 0 -66 32q-138 80 -152 87q-187 -109 -204 -117q-9 -1 -12 -2q-32 0 -51 44q-82 137 -82 148v7
q0 30 46 50q278 162 290 167q10 3 15 3z" />
    <glyph glyph-name="Tcedilla" unicode="&#x162;" horiz-adv-x="950" 
d="M88 1500h718q26 0 38 -35v-192q-8 -38 -49 -38h-214v-1181q0 -54 -55 -54h-161q-35 0 -47 28q-3 7 -3 23v1184h-211q-54 0 -54 54v162q0 41 38 49zM415 -150h162q38 0 49 -33q1 -7 1 -11v-91q0 -146 -125 -247q-46 -32 -85 -44q-44 -17 -123 -17h-55q-44 0 -52 36
q-1 1 -1 8v180q0 28 32 40q5 2 15 2h91q25 0 37 34q1 8 1 16v83q0 30 35 42q12 2 18 2z" />
    <glyph glyph-name="tcedilla" unicode="&#x163;" horiz-adv-x="650" 
d="M165 1500h202q40 -8 40 -52v-134h134q38 0 50 -30q4 -8 4 -24v-175q0 -38 -30 -50q-8 -4 -24 -4h-134v-705q0 -30 34 -42q5 -1 10 -1h90q38 0 50 -30q4 -8 4 -24v-175q0 -38 -30 -50q-8 -4 -24 -4h-65q-126 0 -204 55q-93 59 -133 181q-14 41 -14 115v1097q0 44 40 52z
M278 -150h162q38 0 49 -33q1 -7 1 -11v-91q0 -146 -125 -247q-46 -32 -85 -44q-44 -17 -123 -17h-55q-44 0 -52 36q-1 1 -1 8v180q0 28 32 40q5 2 15 2h91q25 0 37 34q1 8 1 16v83q0 30 35 42q12 2 18 2z" />
    <glyph glyph-name="Tcaron" unicode="&#x164;" horiz-adv-x="950" 
d="M88 1500h718q26 0 38 -35v-192q-8 -38 -49 -38h-214v-1181q0 -54 -55 -54h-161q-35 0 -47 28q-3 7 -3 23v1184h-211q-54 0 -54 54v162q0 41 38 49zM483 1707q-12 5 -290 167q-46 20 -46 51v7q0 10 82 147q19 45 51 45q3 -2 12 -3q17 -7 204 -116q14 7 152 87q52 32 66 32
q16 -2 31 -12q7 -9 63 -108q39 -62 39 -77t-12 -32q-29 -19 -267 -155q-55 -35 -70 -35q-5 0 -15 2z" />
    <glyph glyph-name="tcaron" unicode="&#x165;" horiz-adv-x="1150" 
d="M115 1500h202q40 -8 40 -52v-134h134q38 0 50 -30q4 -8 4 -24v-175q0 -38 -30 -50q-8 -4 -24 -4h-134v-705q0 -30 34 -42q5 -1 10 -1h90q38 0 50 -30q4 -8 4 -24v-175q0 -38 -30 -50q-8 -4 -24 -4h-65q-126 0 -204 55q-93 59 -133 181q-14 41 -14 115v1097q0 44 40 52z
M1015 1488q35 -12 35 -42q-1 -14 -99 -372q-11 -27 -47 -27h-173q-11 0 -19 4q-28 14 -28 36v9q0 3 95 358q11 35 47 35h173q8 0 16 -1z" />
    <glyph glyph-name="Tbar" unicode="&#x166;" horiz-adv-x="900" 
d="M88 1500h718q26 0 38 -35v-192q-8 -38 -49 -38h-214v-1181q0 -54 -55 -54h-161q-35 0 -47 28q-3 7 -3 23v1184h-211q-54 0 -54 54v162q0 41 38 49zM88 903h715q30 0 41 -35v-193q-8 -38 -50 -38h-693q-35 0 -47 28q-3 8 -3 23v165q0 42 37 50z" />
    <glyph glyph-name="tbar" unicode="&#x167;" horiz-adv-x="650" 
d="M90 1500h202q40 -8 40 -52v-134h134q38 0 50 -30q4 -8 4 -24v-175q0 -38 -30 -50q-8 -4 -24 -4h-134v-705q0 -30 34 -42q5 -1 10 -1h90q38 0 50 -30q4 -8 4 -24v-175q0 -38 -30 -50q-8 -4 -24 -4h-65q-126 0 -204 55q-93 59 -133 181q-14 41 -14 115v1097q0 44 40 52z
M36 803h435q29 0 40 -35v-193q-8 -38 -50 -38h-412q-36 0 -47 28q-4 8 -4 23v165q0 42 38 50z" />
    <glyph glyph-name="Utilde" unicode="&#x168;" 
d="M89 1500h189q38 -8 38 -49v-1144q0 -28 32 -40q4 -1 9 -1h181q28 0 40 32q1 4 1 9v1144q0 41 38 49h187q29 0 40 -35v-1169q0 -99 -78 -192q-45 -47 -78 -64q-68 -40 -173 -40h-134q-119 0 -192 52q-88 55 -126 170q-13 39 -13 109v1116q0 38 27 51q10 2 12 2zM183 2000
q16 0 49 -25q42 -26 86 -26q31 0 173 38q56 11 103 11h6q74 0 138 -27q18 -15 18 -37v-177q0 -28 -26 -41q-10 -5 -19 -5q-12 0 -54 24q-35 15 -73 15q-39 0 -166 -35q-62 -14 -112 -14h-9q-69 0 -138 29q-21 15 -21 37v190q0 31 34 41q4 2 11 2z" />
    <glyph glyph-name="utilde" unicode="&#x169;" 
d="M102 1235h161q35 0 47 -28q3 -7 3 -23v-877q0 -28 32 -40q5 -1 10 -1h180q28 0 40 31q2 5 2 10v877q0 36 28 47q7 4 22 4h167q32 0 44 -28q4 -7 4 -23v-1133q0 -36 -28 -47q-7 -4 -23 -4h-164q-19 0 -29 7q-33 -7 -86 -7h-134q-118 0 -191 52q-88 55 -126 170
q-13 38 -13 108v851q0 54 54 54zM181 1736q16 0 49 -25q42 -26 86 -26q31 0 173 38q56 11 103 11h6q74 0 138 -27q18 -15 18 -37v-177q0 -28 -26 -41q-10 -5 -19 -5q-12 0 -54 24q-35 15 -73 15q-39 0 -166 -35q-62 -14 -112 -14h-9q-69 0 -138 29q-21 15 -21 37v190
q0 31 34 41q4 2 11 2z" />
    <glyph glyph-name="Umacron" unicode="&#x16a;" 
d="M89 1500h189q38 -8 38 -49v-1144q0 -28 32 -40q4 -1 9 -1h181q28 0 40 32q1 4 1 9v1144q0 41 38 49h187q29 0 40 -35v-1169q0 -99 -78 -192q-45 -47 -78 -64q-68 -40 -173 -40h-134q-119 0 -192 52q-88 55 -126 170q-13 39 -13 109v1116q0 38 27 51q10 2 12 2zM189 1967
h520q33 0 45 -32q3 -9 3 -22v-158q0 -38 -26 -49q-10 -5 -22 -5h-520q-36 0 -47 28q-4 8 -4 19v172q0 35 35 46q8 1 16 1z" />
    <glyph glyph-name="umacron" unicode="&#x16b;" 
d="M102 1235h161q35 0 47 -28q3 -7 3 -23v-877q0 -28 32 -40q5 -1 10 -1h180q28 0 40 31q2 5 2 10v877q0 36 28 47q7 4 22 4h167q32 0 44 -28q4 -7 4 -23v-1133q0 -36 -28 -47q-7 -4 -23 -4h-164q-19 0 -29 7q-33 -7 -86 -7h-134q-118 0 -191 52q-88 55 -126 170
q-13 38 -13 108v851q0 54 54 54zM187 1703h520q33 0 45 -32q3 -9 3 -22v-158q0 -38 -26 -49q-10 -5 -22 -5h-520q-36 0 -47 28q-4 8 -4 19v172q0 35 35 46q8 1 16 1z" />
    <glyph glyph-name="Ubreve" unicode="&#x16c;" 
d="M89 1500h189q38 -8 38 -49v-1144q0 -28 32 -40q4 -1 9 -1h181q28 0 40 32q1 4 1 9v1144q0 41 38 49h187q29 0 40 -35v-1169q0 -99 -78 -192q-45 -47 -78 -64q-68 -40 -173 -40h-134q-119 0 -192 52q-88 55 -126 170q-13 39 -13 109v1116q0 38 27 51q10 2 12 2zM182 2068
h178q39 0 44 -49q0 -26 34 -38q6 -1 11 -1q29 0 41 33q0 40 29 53q11 2 15 2h179q30 0 41 -32l3 -10q0 -148 -125 -249q-85 -61 -180 -61h-9q-141 0 -244 123q-61 87 -61 186q8 43 44 43z" />
    <glyph glyph-name="ubreve" unicode="&#x16d;" 
d="M102 1235h161q35 0 47 -28q3 -7 3 -23v-877q0 -28 32 -40q5 -1 10 -1h180q28 0 40 31q2 5 2 10v877q0 36 28 47q7 4 22 4h167q32 0 44 -28q4 -7 4 -23v-1133q0 -36 -28 -47q-7 -4 -23 -4h-164q-19 0 -29 7q-33 -7 -86 -7h-134q-118 0 -191 52q-88 55 -126 170
q-13 38 -13 108v851q0 54 54 54zM180 1804h178q39 0 44 -49q0 -26 34 -38q6 -1 11 -1q29 0 41 33q0 40 29 53q11 2 15 2h179q30 0 41 -32l3 -10q0 -148 -125 -249q-85 -61 -180 -61h-9q-141 0 -244 123q-61 87 -61 186q8 43 44 43z" />
    <glyph glyph-name="Uring" unicode="&#x16e;" 
d="M89 1500h189q38 -8 38 -49v-1144q0 -28 32 -40q4 -1 9 -1h181q28 0 40 32q1 4 1 9v1144q0 41 38 49h187q29 0 40 -35v-1169q0 -99 -78 -192q-45 -47 -78 -64q-68 -40 -173 -40h-134q-119 0 -192 52q-88 55 -126 170q-13 39 -13 109v1116q0 38 27 51q10 2 12 2zM448 2156
q106 0 179 -93q41 -59 41 -127v-3q0 -114 -105 -187q-57 -33 -116 -33q-103 0 -176 87q-44 63 -44 130v9q0 107 100 181q60 36 121 36zM402 1933q0 -28 32 -41q4 -2 13 -2h1q33 0 43 37v10q0 31 -37 42h-7q-39 0 -45 -46z" />
    <glyph glyph-name="uring" unicode="&#x16f;" 
d="M102 1235h161q35 0 47 -28q3 -7 3 -23v-877q0 -28 32 -40q5 -1 10 -1h180q28 0 40 31q2 5 2 10v877q0 36 28 47q7 4 22 4h167q32 0 44 -28q4 -7 4 -23v-1133q0 -36 -28 -47q-7 -4 -23 -4h-164q-19 0 -29 7q-33 -7 -86 -7h-134q-118 0 -191 52q-88 55 -126 170
q-13 38 -13 108v851q0 54 54 54zM446 1892q106 0 179 -93q41 -59 41 -127v-3q0 -114 -105 -187q-57 -33 -116 -33q-103 0 -176 87q-44 63 -44 130v9q0 107 100 181q60 36 121 36zM400 1669q0 -28 32 -41q4 -2 13 -2h1q33 0 43 37v10q0 31 -37 42h-7q-39 0 -45 -46z" />
    <glyph glyph-name="Udblacute" unicode="&#x170;" 
d="M92 1500h189q38 -8 38 -49v-1144q0 -28 32 -40q4 -1 9 -1h181q28 0 40 32q1 4 1 9v1144q0 41 38 49h187q29 0 40 -35v-1169q0 -99 -78 -192q-45 -47 -78 -64q-68 -40 -173 -40h-134q-119 0 -192 52q-88 55 -126 170q-13 39 -13 109v1116q0 38 27 51q10 2 12 2zM424 2142
q35 -12 35 -42q-1 -14 -99 -372q-11 -27 -47 -27h-173q-11 0 -19 4q-28 14 -28 36v9q0 3 95 358q11 35 47 35h173q8 0 16 -1zM886 2143q36 -13 36 -43q-1 -14 -99 -372q-12 -27 -47 -27h-173q-11 0 -19 4q-28 14 -28 36v10q0 3 95 357q10 36 47 36h173q8 0 15 -1z" />
    <glyph glyph-name="udblacute" unicode="&#x171;" 
d="M105 1235h161q35 0 47 -28q3 -7 3 -23v-877q0 -28 32 -40q5 -1 10 -1h180q28 0 40 31q2 5 2 10v877q0 36 28 47q7 4 22 4h167q32 0 44 -28q4 -7 4 -23v-1133q0 -36 -28 -47q-7 -4 -23 -4h-164q-19 0 -29 7q-33 -7 -86 -7h-134q-118 0 -191 52q-88 55 -126 170
q-13 38 -13 108v851q0 54 54 54zM422 1878q35 -12 35 -42q-1 -14 -99 -372q-11 -27 -47 -27h-173q-11 0 -19 4q-28 14 -28 36v9q0 3 95 358q11 35 47 35h173q8 0 16 -1zM884 1879q36 -13 36 -43q-1 -14 -99 -372q-12 -27 -47 -27h-173q-11 0 -19 4q-28 14 -28 36v10
q0 3 95 357q10 36 47 36h173q8 0 15 -1z" />
    <glyph glyph-name="Uogonek" unicode="&#x172;" 
d="M102 1498h161q35 0 47 -28q3 -7 3 -23v-1140q0 -28 32 -40q5 -1 10 -1h180q28 0 40 31q2 5 2 10v1140q0 36 28 47q7 4 22 4h167q32 0 44 -28q4 -7 4 -23v-1396q0 -36 -28 -47q-7 -4 -23 -4h-164q-19 0 -29 7q-33 -7 -86 -7h-134q-118 0 -191 52q-88 55 -126 170
q-13 38 -13 108v1114q0 54 54 54zM810 78q35 -12 35 -42v-83q0 -8 1 -16q12 -34 37 -34h91q10 0 15 -2q32 -12 32 -40v-180q0 -7 -1 -8q-8 -36 -52 -36h-55q-79 0 -123 17q-39 12 -85 44q-125 101 -125 247v91q0 4 1 11q11 33 49 33h162q6 0 18 -2z" />
    <glyph glyph-name="uogonek" unicode="&#x173;" 
d="M102 1235h161q35 0 47 -28q3 -7 3 -23v-877q0 -28 32 -40q5 -1 10 -1h180q28 0 40 31q2 5 2 10v877q0 36 28 47q7 4 22 4h167q32 0 44 -28q4 -7 4 -23v-1133q0 -36 -28 -47q-7 -4 -23 -4h-164q-19 0 -29 7q-33 -7 -86 -7h-134q-118 0 -191 52q-88 55 -126 170
q-13 38 -13 108v851q0 54 54 54zM810 78q35 -12 35 -42v-83q0 -8 1 -16q12 -34 37 -34h91q10 0 15 -2q32 -12 32 -40v-180q0 -7 -1 -8q-8 -36 -52 -36h-55q-79 0 -123 17q-39 12 -85 44q-125 101 -125 247v91q0 4 1 11q11 33 49 33h162q6 0 18 -2z" />
    <glyph glyph-name="Wcircumflex" unicode="&#x174;" horiz-adv-x="1700" 
d="M235 1500q24 0 37 -33q200 -839 200 -842h1q199 840 203 853q16 22 33 22h198q36 0 46 -75q2 -5 190 -800h1q195 826 204 853q16 22 33 22h196q26 0 38 -35v-13q0 -6 -276 -1168l-63 -259q-15 -25 -43 -25h-179q-43 0 -51 56q-194 816 -194 819h-2l-187 -791
q-15 -66 -24 -70q-13 -14 -34 -14h-179q-33 0 -45 32l-337 1414l-1 10q0 33 36 44h199zM808 2124q15 0 70 -36q238 -135 267 -155q12 -16 12 -32q0 -15 -39 -76q-56 -100 -63 -108q-15 -11 -31 -12q-14 0 -66 32q-138 80 -152 87q-187 -109 -204 -117q-9 -1 -12 -2
q-32 0 -51 44q-82 137 -82 148v7q0 30 46 50q278 162 290 167q10 3 15 3z" />
    <glyph glyph-name="wcircumflex" unicode="&#x175;" horiz-adv-x="1600" 
d="M50 1236h175q30 0 43 -27q5 -11 169 -706h2l168 708q15 25 43 25h179q36 0 46 -35q157 -658 166 -700h1q163 695 171 713q14 22 45 22h171q36 0 49 -28q2 -11 2 -16v-2q0 -5 -267 -1129q-9 -41 -21 -50q-14 -11 -32 -11h-236q-34 0 -46 33l-138 579h-1
q-135 -578 -141 -590q-14 -22 -45 -22h-231q-35 0 -47 28q-276 1155 -276 1163q0 33 36 44q7 1 15 1zM740 1860q15 0 70 -36q238 -135 267 -155q12 -16 12 -32q0 -15 -39 -76q-56 -100 -63 -108q-15 -11 -31 -12q-14 0 -66 32q-138 80 -152 87q-187 -109 -204 -117
q-9 -1 -12 -2q-32 0 -51 44q-82 137 -82 148v7q0 30 46 50q278 162 290 167q10 3 15 3z" />
    <glyph glyph-name="Ycircumflex" unicode="&#x176;" 
d="M61 1500h196q34 0 47 -55q6 -12 160 -432h2l173 467q16 20 32 20h201q23 0 37 -33v-14q0 -10 -40 -114q-271 -733 -271 -735v-557q0 -35 -35 -46q-8 -1 -15 -1h-168q-33 0 -46 32q-2 10 -2 28v543q-6 20 -266 723q-46 120 -46 130v2q8 42 41 42zM475 2124q15 0 70 -36
q238 -135 267 -155q12 -16 12 -32q0 -15 -39 -76q-56 -100 -63 -108q-15 -11 -31 -12q-14 0 -66 32q-138 80 -152 87q-187 -109 -204 -117q-9 -1 -12 -2q-32 0 -51 44q-82 137 -82 148v7q0 30 46 50q278 162 290 167q10 3 15 3z" />
    <glyph glyph-name="ycircumflex" unicode="&#x177;" 
d="M89 1236h189q38 -8 38 -49v-879q0 -28 32 -40q4 -1 9 -1h181q28 0 40 32q1 4 1 9v879q0 41 38 49h187q29 0 40 -35v-1345q0 -99 -78 -192q-45 -47 -78 -64q-68 -40 -173 -40h-414q-36 0 -47 28q-4 7 -4 23v164q0 36 28 47q7 4 23 4h437q28 0 40 32q1 4 1 9v138
q-24 -4 -64 -4h-134q-119 0 -192 52q-88 55 -126 170q-13 39 -13 109v851q0 38 27 51q10 2 12 2zM448 1860q15 0 70 -36q238 -135 267 -155q12 -16 12 -32q0 -15 -39 -76q-56 -100 -63 -108q-15 -11 -31 -12q-14 0 -66 32q-138 80 -152 87q-187 -109 -204 -117q-9 -1 -12 -2
q-32 0 -51 44q-82 137 -82 148v7q0 30 46 50q278 162 290 167q10 3 15 3z" />
    <glyph glyph-name="Zacute" unicode="&#x179;" 
d="M88 1500h718q26 0 38 -35v-192q0 -7 -64 -137q-409 -849 -418 -870h429q38 0 51 -27q2 -10 2 -12v-189q-8 -38 -49 -38h-691q-54 0 -54 54v165q0 17 25 62l458 954h-429q-54 0 -54 54v162q0 41 38 49zM656 2155q35 -12 35 -42q-1 -14 -99 -372q-11 -27 -47 -27h-173
q-11 0 -19 4q-28 14 -28 36v9q0 3 95 358q11 35 47 35h173q8 0 16 -1z" />
    <glyph glyph-name="zacute" unicode="&#x17a;" 
d="M102 1236h706q38 0 52 -28q2 -10 2 -12v-194q0 -10 -29 -51l-439 -680v-1h428q26 0 40 -35v-197q0 -23 -32 -37q-9 -1 -14 -1h-718q-36 0 -47 36q-1 10 -1 17v170q0 21 26 56l443 685h-414q-55 0 -55 55v165q0 36 29 48q7 4 23 4zM665 1891q35 -12 35 -42
q-1 -14 -99 -372q-11 -27 -47 -27h-173q-11 0 -19 4q-28 14 -28 36v9q0 3 95 358q11 35 47 35h173q8 0 16 -1z" />
    <glyph glyph-name="Zdot" unicode="&#x17b;" 
d="M88 1500h718q26 0 38 -35v-192q0 -7 -64 -137q-409 -849 -418 -870h429q38 0 51 -27q2 -10 2 -12v-189q-8 -38 -49 -38h-691q-54 0 -54 54v165q0 17 25 62l458 954h-429q-54 0 -54 54v162q0 41 38 49zM401 2016h167q41 0 50 -35q1 -2 1 -9v-178q0 -30 -34 -43
q-10 -1 -17 -1h-167q-35 0 -47 35v189q0 27 32 40q5 2 15 2z" />
    <glyph glyph-name="zdot" unicode="&#x17c;" 
d="M102 1236h706q38 0 52 -28q2 -10 2 -12v-194q0 -10 -29 -51l-439 -680v-1h428q26 0 40 -35v-197q0 -23 -32 -37q-9 -1 -14 -1h-718q-36 0 -47 36q-1 10 -1 17v170q0 21 26 56l443 685h-414q-55 0 -55 55v165q0 36 29 48q7 4 23 4zM410 1752h167q41 0 50 -35q1 -2 1 -9
v-178q0 -30 -34 -43q-10 -1 -17 -1h-167q-35 0 -47 35v189q0 27 32 40q5 2 15 2z" />
    <glyph glyph-name="longs" unicode="&#x17f;" horiz-adv-x="674" 
d="M381 1500h146q54 0 54 -54v-161q0 -36 -28 -47q-7 -4 -23 -4h-173q-28 0 -40 -32q-1 -4 -1 -9v-1142q0 -36 -28 -47q-7 -4 -23 -4h-164q-36 0 -47 28q-4 7 -4 23v1119q0 118 52 191q55 88 171 126q39 13 108 13z" />
    <glyph glyph-name="uni018f" unicode="&#x18f;" horiz-adv-x="1700" 
d="M782 1500h39q188 0 382 -115q201 -132 292 -350q55 -139 55 -264v-40q0 -186 -112 -377q-141 -221 -392 -313q-125 -41 -245 -41q-284 0 -509 199q-91 90 -121 145q-121 188 -121 407q0 104 19 120q14 13 37 13h1162q-50 158 -170 250q-136 101 -289 101h-17
q-186 0 -338 -144q-57 -63 -78 -105q-18 -15 -34 -15t-71 35q-103 57 -114 67q-12 15 -12 26v7q0 16 36 67q26 44 108 126q114 103 235 149q136 52 258 52zM334 618q47 -154 164 -247q139 -105 294 -105h17q157 0 295 106q116 93 164 246h-934z" />
    <glyph glyph-name="uni018f" unicode="&#x4d8;" horiz-adv-x="1700" 
d="M782 1500h39q188 0 382 -115q201 -132 292 -350q55 -139 55 -264v-40q0 -186 -112 -377q-141 -221 -392 -313q-125 -41 -245 -41q-284 0 -509 199q-91 90 -121 145q-121 188 -121 407q0 104 19 120q14 13 37 13h1162q-50 158 -170 250q-136 101 -289 101h-17
q-186 0 -338 -144q-57 -63 -78 -105q-18 -15 -34 -15t-71 35q-103 57 -114 67q-12 15 -12 26v7q0 16 36 67q26 44 108 126q114 103 235 149q136 52 258 52zM334 618q47 -154 164 -247q139 -105 294 -105h17q157 0 295 106q116 93 164 246h-934z" />
    <glyph glyph-name="Ohorn" unicode="&#x1a0;" horiz-adv-x="1400" 
d="M1264 1891q35 -12 35 -42q-1 -14 -99 -372q-11 -27 -47 -27h-173q-11 0 -19 4q-28 14 -28 36v9q0 3 95 358q11 35 47 35h173q8 0 16 -1zM352 1500h203q111 0 211 -95q84 -98 84 -200v-909q0 -99 -78 -192q-45 -47 -78 -64q-68 -40 -173 -40h-134q-119 0 -192 52
q-88 55 -126 170q-13 39 -13 109v840q0 124 58 200q28 42 83 81q82 48 155 48zM322 1194v-887q0 -28 32 -40q4 -1 9 -1h181q28 0 40 32q1 4 1 9v887q0 28 -31 40q-5 1 -10 1h-181q-28 0 -40 -31q-1 -5 -1 -10z" />
    <glyph glyph-name="ohorn" unicode="&#x1a1;" horiz-adv-x="1400" 
d="M1264 1631q35 -12 35 -42q-1 -14 -99 -372q-11 -27 -47 -27h-173q-11 0 -19 4q-28 14 -28 36v9q0 3 95 358q11 35 47 35h173q8 0 16 -1zM352 1240h203q111 0 211 -95q84 -98 84 -200v-649q0 -99 -78 -192q-45 -47 -78 -64q-68 -40 -173 -40h-134q-119 0 -192 52
q-88 55 -126 170q-13 39 -13 109v580q0 124 58 200q28 42 83 81q82 48 155 48zM322 934v-627q0 -28 32 -40q4 -1 9 -1h181q28 0 40 32q1 4 1 9v627q0 28 -31 40q-5 1 -10 1h-181q-28 0 -40 -31q-1 -5 -1 -10z" />
    <glyph glyph-name="Uhorn" unicode="&#x1af;" horiz-adv-x="1450" 
d="M89 1500h189q38 -8 38 -49v-1144q0 -28 32 -40q4 -1 9 -1h181q28 0 40 32q1 4 1 9v1144q0 41 38 49h187q29 0 40 -35v-1169q0 -99 -78 -192q-45 -47 -78 -64q-68 -40 -173 -40h-134q-119 0 -192 52q-88 55 -126 170q-13 39 -13 109v1116q0 38 27 51q10 2 12 2zM1324 1891
q35 -12 35 -42q-1 -14 -99 -372q-11 -27 -47 -27h-173q-11 0 -19 4q-28 14 -28 36v9q0 3 95 358q11 35 47 35h173q8 0 16 -1z" />
    <glyph glyph-name="uhorn" unicode="&#x1b0;" horiz-adv-x="1450" 
d="M102 1235h161q35 0 47 -28q3 -7 3 -23v-877q0 -28 32 -40q5 -1 10 -1h180q28 0 40 31q2 5 2 10v877q0 36 28 47q7 4 22 4h167q32 0 44 -28q4 -7 4 -23v-1133q0 -36 -28 -47q-7 -4 -23 -4h-164q-19 0 -29 7q-33 -7 -86 -7h-134q-118 0 -191 52q-88 55 -126 170
q-13 38 -13 108v851q0 54 54 54zM1324 1631q35 -12 35 -42q-1 -14 -99 -372q-11 -27 -47 -27h-173q-11 0 -19 4q-28 14 -28 36v9q0 3 95 358q11 35 47 35h173q8 0 16 -1z" />
    <glyph glyph-name="uni01CD" unicode="&#x1cd;" 
d="M346 1500h203q111 0 211 -95q84 -98 84 -200v-1166q0 -25 -35 -38q-11 -1 -18 -1h-161q-35 0 -47 28q-4 7 -4 23v478h-263v-475q0 -54 -54 -54h-161q-36 0 -47 28q-4 7 -4 23v1120q0 124 58 200q28 42 83 81q82 48 155 48zM316 1194v-399h263v399q0 28 -31 40q-5 1 -10 1
h-181q-28 0 -40 -31q-1 -5 -1 -10zM433 1707q-12 5 -290 167q-46 20 -46 51v7q0 10 82 147q19 45 51 45q3 -2 12 -3q17 -7 204 -116q14 7 152 87q52 32 66 32q16 -2 31 -12q7 -9 63 -108q39 -62 39 -77t-12 -32q-29 -19 -267 -155q-55 -35 -70 -35q-5 0 -15 2z" />
    <glyph glyph-name="uni01CE" unicode="&#x1ce;" horiz-adv-x="1024" 
d="M381 1236h134q118 0 191 -51q88 -56 126 -171q13 -40 13 -108v-858q0 -38 -37 -47q-5 -1 -11 -1h-416q-119 0 -192 52q-88 55 -126 170q-13 39 -13 109v134q0 118 52 191q55 88 170 126q40 13 109 13h198v134q0 29 -31 40q-5 2 -10 2h-181q-28 0 -40 -32q0 -57 -52 -57
h-163q-36 0 -48 29q-3 7 -4 17q0 131 105 231q68 57 141 70q29 7 85 7zM316 488v-181q0 -28 32 -40q4 -1 9 -1h222v263h-222q-28 0 -40 -31q-1 -5 -1 -10zM434 1443q-12 5 -290 167q-46 20 -46 51v7q0 10 82 147q19 45 51 45q3 -2 12 -3q17 -7 204 -116q14 7 152 87
q52 32 66 32q16 -2 31 -12q7 -9 63 -108q39 -62 39 -77t-12 -32q-29 -19 -267 -155q-55 -35 -70 -35q-5 0 -15 2z" />
    <glyph glyph-name="uni01CF" unicode="&#x1cf;" horiz-adv-x="483" 
d="M89 1500h189q26 0 38 -35v-1427q-8 -38 -49 -38h-162q-54 0 -54 54v1397q0 41 38 49zM169 1707q-12 5 -290 167q-46 20 -46 51v7q0 10 82 147q19 45 51 45q3 -2 12 -3q17 -7 204 -116q14 7 152 87q52 32 66 32q16 -2 31 -12q7 -9 63 -108q39 -62 39 -77t-12 -32
q-29 -19 -267 -155q-55 -35 -70 -35q-5 0 -15 2z" />
    <glyph glyph-name="uni01D0" unicode="&#x1d0;" horiz-adv-x="500" 
d="M104 1243h165q38 0 47 -38v-1166q0 -25 -35 -38q-11 -1 -18 -1h-162q-36 0 -47 28q-4 8 -4 23v1137q0 55 54 55zM169 1443q-12 5 -290 167q-46 20 -46 51v7q0 10 82 147q19 45 51 45q3 -2 12 -3q17 -7 204 -116q14 7 152 87q52 32 66 32q16 -2 31 -12q7 -9 63 -108
q39 -62 39 -77t-12 -32q-29 -19 -267 -155q-55 -35 -70 -35q-5 0 -15 2z" />
    <glyph glyph-name="uni01D1" unicode="&#x1d1;" 
d="M346 1500h203q111 0 211 -95q84 -98 84 -200v-909q0 -99 -78 -192q-45 -47 -78 -64q-68 -40 -173 -40h-134q-119 0 -192 52q-88 55 -126 170q-13 39 -13 109v840q0 124 58 200q28 42 83 81q82 48 155 48zM316 1194v-887q0 -28 32 -40q4 -1 9 -1h181q28 0 40 32q1 4 1 9
v887q0 28 -31 40q-5 1 -10 1h-181q-28 0 -40 -31q-1 -5 -1 -10zM433 1707q-12 5 -290 167q-46 20 -46 51v7q0 10 82 147q19 45 51 45q3 -2 12 -3q17 -7 204 -116q14 7 152 87q52 32 66 32q16 -2 31 -12q7 -9 63 -108q39 -62 39 -77t-12 -32q-29 -19 -267 -155
q-55 -35 -70 -35q-5 0 -15 2z" />
    <glyph glyph-name="uni01D2" unicode="&#x1d2;" horiz-adv-x="1023" 
d="M386 1236h134q124 0 200 -57q42 -29 81 -84q48 -82 48 -155v-644q0 -111 -95 -211q-78 -67 -160 -80q-29 -5 -78 -5h-127q-122 0 -188 48q-91 55 -130 164q-16 42 -16 119v575q0 118 52 192q55 87 170 126q40 12 109 12zM321 929v-622q0 -28 32 -40q4 -1 9 -1h181
q28 0 40 32q1 4 1 9v622q0 29 -31 40q-5 2 -10 2h-181q-28 0 -40 -32q-1 -5 -1 -10zM438 1443q-12 5 -290 167q-46 20 -46 51v7q0 10 82 147q19 45 51 45q3 -2 12 -3q17 -7 204 -116q14 7 152 87q52 32 66 32q16 -2 31 -12q7 -9 63 -108q39 -62 39 -77t-12 -32
q-29 -19 -267 -155q-55 -35 -70 -35q-5 0 -15 2z" />
    <glyph glyph-name="uni01D3" unicode="&#x1d3;" 
d="M89 1500h189q38 -8 38 -49v-1144q0 -28 32 -40q4 -1 9 -1h181q28 0 40 32q1 4 1 9v1144q0 41 38 49h187q29 0 40 -35v-1169q0 -99 -78 -192q-45 -47 -78 -64q-68 -40 -173 -40h-134q-119 0 -192 52q-88 55 -126 170q-13 39 -13 109v1116q0 38 27 51q10 2 12 2zM433 1707
q-12 5 -290 167q-46 20 -46 51v7q0 10 82 147q19 45 51 45q3 -2 12 -3q17 -7 204 -116q14 7 152 87q52 32 66 32q16 -2 31 -12q7 -9 63 -108q39 -62 39 -77t-12 -32q-29 -19 -267 -155q-55 -35 -70 -35q-5 0 -15 2z" />
    <glyph glyph-name="uni01D4" unicode="&#x1d4;" 
d="M102 1235h161q35 0 47 -28q3 -7 3 -23v-877q0 -28 32 -40q5 -1 10 -1h180q28 0 40 31q2 5 2 10v877q0 36 28 47q7 4 22 4h167q32 0 44 -28q4 -7 4 -23v-1133q0 -36 -28 -47q-7 -4 -23 -4h-164q-19 0 -29 7q-33 -7 -86 -7h-134q-118 0 -191 52q-88 55 -126 170
q-13 38 -13 108v851q0 54 54 54zM431 1443q-12 5 -290 167q-46 20 -46 51v7q0 10 82 147q19 45 51 45q3 -2 12 -3q17 -7 204 -116q14 7 152 87q52 32 66 32q16 -2 31 -12q7 -9 63 -108q39 -62 39 -77t-12 -32q-29 -19 -267 -155q-55 -35 -70 -35q-5 0 -15 2z" />
    <glyph glyph-name="AEacute" unicode="&#x1fc;" horiz-adv-x="1350" 
d="M346 1500h203q111 0 211 -95q84 -98 84 -200v-1166q0 -25 -35 -38q-11 -1 -18 -1h-161q-35 0 -47 28q-4 7 -4 23v478h-263v-475q0 -54 -54 -54h-161q-36 0 -47 28q-4 7 -4 23v1120q0 124 58 200q28 42 83 81q82 48 155 48zM316 1194v-399h263v399q0 28 -31 40q-5 1 -10 1
h-181q-28 0 -40 -31q-1 -5 -1 -10zM1157 1500q29 0 40 -35v-191q0 -25 -35 -38q-11 -1 -18 -1h-299v-440h217q32 0 44 -28q4 -7 4 -22v-161q0 -55 -54 -55h-211v-263h305q38 0 47 -38v-189q0 -25 -35 -38q-11 -1 -18 -1h-518q-47 5 -47 47v1407q0 35 35 46h543zM783 2155
q35 -12 35 -42q-1 -14 -99 -372q-11 -27 -47 -27h-173q-11 0 -19 4q-28 14 -28 36v9q0 3 95 358q11 35 47 35h173q8 0 16 -1z" />
    <glyph glyph-name="aeacute" unicode="&#x1fd;" horiz-adv-x="1550" 
d="M399 1236h134q118 0 191 -51q88 -56 126 -171q13 -40 13 -108v-858q0 -38 -37 -47q-5 -1 -11 -1h-416q-119 0 -192 52q-88 55 -126 170q-13 39 -13 109v134q0 118 52 191q55 88 170 126q40 13 109 13h198v134q0 29 -31 40q-5 2 -10 2h-181q-28 0 -40 -32q0 -57 -52 -57
h-163q-36 0 -48 29q-3 7 -4 17q0 131 105 231q68 57 141 70q29 7 85 7zM334 488v-181q0 -28 32 -40q4 -1 9 -1h222v263h-222q-28 0 -40 -31q-1 -5 -1 -10zM925 1236h134q124 0 200 -57q42 -29 81 -84q48 -82 48 -155v-202q0 -99 -78 -193q-45 -47 -78 -64q-68 -40 -173 -40
h-199v-134q0 -28 32 -40q4 -1 9 -1h181q28 0 40 32q0 56 52 56h161q38 0 51 -27q2 -9 2 -12v-19q0 -99 -78 -192q-45 -47 -78 -64q-68 -40 -173 -40h-134q-119 0 -192 52q-88 55 -126 170q-13 39 -13 109v575q0 118 52 192q55 87 170 126q40 12 109 12zM860 929v-222h222
q28 0 40 32q1 4 1 9v181q0 29 -31 40q-5 2 -10 2h-181q-28 0 -40 -32q-1 -5 -1 -10zM966 1891q35 -12 35 -42q-1 -14 -99 -372q-11 -27 -47 -27h-173q-11 0 -19 4q-28 14 -28 36v9q0 3 95 358q11 35 47 35h173q8 0 16 -1z" />
    <glyph glyph-name="Oslashacute" unicode="&#x1fe;" 
d="M352 1853h190q25 0 37 -35q2 -11 2 -18v-126q57 -9 99 -33q105 -57 148 -170q16 -50 16 -90v-908q0 -107 -89 -206q-64 -58 -125 -75q-24 -8 -49 -12v-129q0 -36 -29 -47q-7 -4 -22 -4h-161q-54 0 -54 54v126q-58 9 -103 34q-55 28 -104 93q-58 76 -58 200v840
q0 124 58 200q59 83 160 117q19 5 47 10v130q0 41 37 49zM316 1371v-887q0 -29 32 -40q4 -2 9 -2h181q28 0 40 32q1 5 1 10v887q0 28 -31 40q-5 1 -10 1h-181q-28 0 -40 -32q-1 -5 -1 -9zM681 2491q35 -12 35 -42q-1 -14 -99 -372q-11 -27 -47 -27h-173q-11 0 -19 4
q-28 14 -28 36v9q0 3 95 358q11 35 47 35h173q8 0 16 -1z" />
    <glyph glyph-name="oslashacute" unicode="&#x1ff;" 
d="M353 1411h186q30 0 40 -35q2 -6 2 -12v-132q57 -9 99 -33q105 -57 148 -170q16 -50 16 -90v-643q0 -108 -89 -206q-64 -58 -125 -75q-24 -8 -49 -12v-129q0 -36 -29 -47q-7 -4 -22 -4h-161q-54 0 -54 54v126q-58 9 -103 34q-55 28 -104 93q-58 76 -58 200v575
q0 124 58 200q59 83 160 117q19 5 47 10v126q0 38 27 51q9 2 11 2zM316 929v-623q0 -28 32 -40q4 -1 9 -1h181q28 0 40 32q1 5 1 9v623q0 28 -31 40q-5 1 -10 1h-181q-28 0 -40 -32q-1 -4 -1 -9zM665 2041q35 -12 35 -42q-1 -14 -99 -372q-11 -27 -47 -27h-173q-11 0 -19 4
q-28 14 -28 36v9q0 3 95 358q11 35 47 35h173q8 0 16 -1z" />
    <glyph glyph-name="uni0259" unicode="&#x259;" horiz-adv-x="1450" 
d="M666 1236q213 0 389 -137q73 -64 106 -110q55 -79 77 -135q46 -116 46 -218v-36q0 -163 -105 -328q-114 -162 -294 -232q-110 -40 -219 -40q-217 0 -396 144q-57 50 -82 83q-140 175 -140 393q0 105 22 121q15 10 27 10h896q-48 120 -167 182q-76 38 -151 38h-17
q-122 0 -228 -90q-43 -46 -51 -46l-12 -1h-2q-24 0 -55 38q-110 107 -110 114q-4 11 -4 19q0 23 45 61q64 59 115 87q147 83 310 83zM339 486q55 -131 184 -191q70 -29 136 -29h12q130 0 236 94q51 51 75 100q11 24 11 26h-654z" />
    <glyph glyph-name="uni0259" unicode="&#x4d9;" horiz-adv-x="1450" 
d="M666 1236q213 0 389 -137q73 -64 106 -110q55 -79 77 -135q46 -116 46 -218v-36q0 -163 -105 -328q-114 -162 -294 -232q-110 -40 -219 -40q-217 0 -396 144q-57 50 -82 83q-140 175 -140 393q0 105 22 121q15 10 27 10h896q-48 120 -167 182q-76 38 -151 38h-17
q-122 0 -228 -90q-43 -46 -51 -46l-12 -1h-2q-24 0 -55 38q-110 107 -110 114q-4 11 -4 19q0 23 45 61q64 59 115 87q147 83 310 83zM339 486q55 -131 184 -191q70 -29 136 -29h12q130 0 236 94q51 51 75 100q11 24 11 26h-654z" />
    <glyph glyph-name="combininggraveaccent" unicode="&#x300;" horiz-adv-x="400" 
d="M68 1892h173q36 0 47 -35q95 -355 95 -358v-9q0 -22 -28 -36q-8 -4 -19 -4h-173q-36 0 -47 27q-98 358 -99 372q0 30 35 42q8 1 16 1z" />
    <glyph glyph-name="combiningacuteaccent" unicode="&#x301;" horiz-adv-x="400" 
d="M348 1891q35 -12 35 -42q-1 -14 -99 -372q-11 -27 -47 -27h-173q-11 0 -19 4q-28 14 -28 36v9q0 3 95 358q11 35 47 35h173q8 0 16 -1z" />
    <glyph glyph-name="combiningtildeaccent" unicode="&#x303;" horiz-adv-x="650" 
d="M61 1736q16 0 49 -25q42 -26 86 -26q31 0 173 38q56 11 103 11h6q74 0 138 -27q18 -15 18 -37v-177q0 -28 -26 -41q-10 -5 -19 -5q-12 0 -54 24q-35 15 -73 15q-39 0 -166 -35q-62 -14 -112 -14h-9q-69 0 -138 29q-21 15 -21 37v190q0 31 34 41q4 2 11 2z" />
    <glyph glyph-name="combiningdotbelow" unicode="&#x323;" horiz-adv-x="400" 
d="M114 -203h167q41 0 50 -35q1 -2 1 -9v-178q0 -30 -34 -43q-10 -1 -17 -1h-167q-35 0 -47 35v189q0 27 32 40q5 2 15 2z" />
    <glyph glyph-name="tonos" unicode="&#x384;" horiz-adv-x="550" 
d="M373 1891q35 -12 35 -42q-1 -14 -99 -372q-11 -27 -47 -27h-173q-11 0 -19 4q-28 14 -28 36v9q0 3 95 358q11 35 47 35h173q8 0 16 -1z" />
    <glyph glyph-name="Alphatonos" unicode="&#x386;" horiz-adv-x="1150" 
d="M223 1891q35 -12 35 -42q-1 -14 -99 -372q-11 -27 -47 -27h-173q-11 0 -19 4q-28 14 -28 36v9q0 3 95 358q11 35 47 35h173q8 0 16 -1zM415 1500h198q28 0 40 -47q2 -13 335 -1254q39 -143 39 -151v-7q0 -29 -35 -40q-6 -1 -12 -1h-173q-31 0 -44 21q-8 17 -43 155h-412
q-35 -136 -42 -154q-14 -22 -45 -22h-173q-33 0 -46 31q-2 11 -2 15q14 58 314 1176q66 249 71 258q15 20 30 20zM503 942l-133 -500h268l-133 500h-2z" />
    <glyph glyph-name="anoteleia" unicode="&#x387;" horiz-adv-x="500" 
d="M104 1502h167q41 0 50 -35q1 -2 1 -9v-178q0 -30 -34 -43q-10 -1 -17 -1h-167q-35 0 -47 35v189q0 27 32 40q5 2 15 2z" />
    <glyph glyph-name="Epsilontonos" unicode="&#x388;" horiz-adv-x="1300" 
d="M383 1891q35 -12 35 -42q-1 -14 -99 -372q-11 -27 -47 -27h-173q-11 0 -19 4q-28 14 -28 36v9q0 3 95 358q11 35 47 35h173q8 0 16 -1zM967 1500q29 0 40 -35v-191q0 -25 -35 -38q-11 -1 -18 -1h-299v-440h217q32 0 44 -28q4 -7 4 -22v-161q0 -55 -54 -55h-211v-263h305
q38 0 47 -38v-189q0 -25 -35 -38q-11 -1 -18 -1h-518q-47 5 -47 47v1407q0 35 35 46h543z" />
    <glyph glyph-name="Etatonos" unicode="&#x389;" horiz-adv-x="1550" 
d="M373 1891q35 -12 35 -42q-1 -14 -99 -372q-11 -27 -47 -27h-173q-11 0 -19 4q-28 14 -28 36v9q0 3 95 358q11 35 47 35h173q8 0 16 -1zM637 1500h189q25 0 37 -35q2 -11 2 -18v-652h262v656q0 41 37 49h189q25 0 37 -35v-1427q-8 -38 -49 -38h-160q-54 0 -54 54v475h-262
v-478q0 -36 -29 -47q-7 -4 -22 -4h-160q-54 0 -54 54v1397q0 41 37 49z" />
    <glyph glyph-name="Iotatonos" unicode="&#x38a;" horiz-adv-x="1033" 
d="M373 1891q35 -12 35 -42q-1 -14 -99 -372q-11 -27 -47 -27h-173q-11 0 -19 4q-28 14 -28 36v9q0 3 95 358q11 35 47 35h173q8 0 16 -1zM638 1500h189q26 0 38 -35v-1427q-8 -38 -49 -38h-162q-54 0 -54 54v1397q0 41 38 49z" />
    <glyph glyph-name="Omicrontonos" unicode="&#x38c;" horiz-adv-x="1450" 
d="M373 1891q35 -12 35 -42q-1 -14 -99 -372q-11 -27 -47 -27h-173q-11 0 -19 4q-28 14 -28 36v9q0 3 95 358q11 35 47 35h173q8 0 16 -1zM722 1500h203q111 0 211 -95q84 -98 84 -200v-909q0 -99 -78 -192q-45 -47 -78 -64q-68 -40 -173 -40h-134q-119 0 -192 52
q-88 55 -126 170q-13 39 -13 109v840q0 124 58 200q28 42 83 81q82 48 155 48zM692 1194v-887q0 -28 32 -40q4 -1 9 -1h181q28 0 40 32q1 4 1 9v887q0 28 -31 40q-5 1 -10 1h-181q-28 0 -40 -31q-1 -5 -1 -10z" />
    <glyph glyph-name="Upsilontonos" unicode="&#x38e;" horiz-adv-x="1450" 
d="M373 1891q35 -12 35 -42q-1 -14 -99 -372q-11 -27 -47 -27h-173q-11 0 -19 4q-28 14 -28 36v9q0 3 95 358q11 35 47 35h173q8 0 16 -1zM492 1500h196q34 0 47 -55q6 -12 160 -432h2l173 467q16 20 32 20h201q23 0 37 -33v-14q0 -10 -40 -114q-271 -733 -271 -735v-557
q0 -35 -35 -46q-8 -1 -15 -1h-168q-33 0 -46 32q-2 10 -2 28v543q-6 20 -266 723q-46 120 -46 130v2q8 42 41 42z" />
    <glyph glyph-name="Omegatonos" unicode="&#x38f;" horiz-adv-x="1850" 
d="M373 1891q35 -12 35 -42q-1 -14 -99 -372q-11 -27 -47 -27h-173q-11 0 -19 4q-28 14 -28 36v9q0 3 95 358q11 35 47 35h173q8 0 16 -1zM974 1501h43q167 0 343 -100q214 -132 303 -373q38 -119 38 -211v-40q0 -175 -105 -354q-31 -53 -109 -135q-20 -17 -23 -21h190
q38 0 47 -38v-190q-8 -38 -49 -38h-518q-36 0 -47 28q-4 7 -4 23v274q0 33 31 44q138 41 227 150q95 128 95 267v15q0 177 -137 314q-133 120 -297 120h-13q-177 0 -314 -137q-120 -133 -120 -297v-15q0 -147 105 -278q70 -74 102 -87q31 -22 92 -45q32 -7 43 -20
q11 -12 11 -35v-270q0 -36 -28 -47q-7 -4 -23 -4h-517q-36 0 -47 28q-4 7 -4 23v164q0 36 28 47q7 4 23 4h187q-101 99 -131 156q-107 174 -107 372q0 279 202 495q100 94 160 122q50 29 122 54q110 35 201 35z" />
    <glyph glyph-name="Alpha" unicode="&#x391;" horiz-adv-x="1150" 
d="M415 1500h198q28 0 40 -47q2 -13 335 -1254q39 -143 39 -151v-7q0 -29 -35 -40q-6 -1 -12 -1h-173q-31 0 -44 21q-8 17 -43 155h-412q-35 -136 -42 -154q-14 -22 -45 -22h-173q-33 0 -46 31q-2 11 -2 15q14 58 314 1176q66 249 71 258q15 20 30 20zM503 942l-133 -500
h268l-133 500h-2z" />
    <glyph glyph-name="Beta" unicode="&#x392;" 
d="M549 1500q111 0 211 -95q84 -98 84 -200v-379q0 -79 -54 -164q54 -84 54 -163v-203q0 -99 -78 -192q-45 -47 -78 -64q-68 -40 -173 -40h-411q-54 0 -54 54v1400q0 35 35 46h464zM316 1235v-440h222q28 0 40 32q1 5 1 9v358q0 28 -31 40q-5 1 -10 1h-222zM316 529v-263
h222q28 0 40 32q1 4 1 9v181q0 28 -31 40q-5 1 -10 1h-222z" />
    <glyph glyph-name="Gamma" unicode="&#x393;" horiz-adv-x="750" 
d="M50 49v1404q0 42 47 47h518q7 0 18 -1q35 -13 35 -38v-189q-9 -38 -47 -38h-305v-1181q0 -7 -1 -18q-13 -35 -38 -35h-189q-38 8 -38 49z" />
    <glyph glyph-name="Delta" unicode="&#x394;" horiz-adv-x="1150" 
d="M415 1500h198q28 0 40 -47q2 -13 335 -1254q39 -143 39 -151v-7q0 -29 -35 -40q-6 -1 -12 -1h-932q-33 0 -46 31q-2 11 -2 15q14 58 314 1176q66 249 71 258q15 20 30 20zM513 942l-180 -676h362l-180 676h-2z" />
    <glyph glyph-name="Epsilon" unicode="&#x395;" horiz-adv-x="800" 
d="M629 1500q29 0 40 -35v-191q0 -25 -35 -38q-11 -1 -18 -1h-299v-440h217q32 0 44 -28q4 -7 4 -22v-161q0 -55 -54 -55h-211v-263h305q38 0 47 -38v-189q0 -25 -35 -38q-11 -1 -18 -1h-518q-47 5 -47 47v1407q0 35 35 46h543z" />
    <glyph glyph-name="Zeta" unicode="&#x396;" 
d="M88 1500h718q26 0 38 -35v-192q0 -7 -64 -137q-409 -849 -418 -870h429q38 0 51 -27q2 -10 2 -12v-189q-8 -38 -49 -38h-691q-54 0 -54 54v165q0 17 25 62l458 954h-429q-54 0 -54 54v162q0 41 38 49z" />
    <glyph glyph-name="Eta" unicode="&#x397;" 
d="M87 1500h189q25 0 37 -35q2 -11 2 -18v-652h262v656q0 41 37 49h189q25 0 37 -35v-1427q-8 -38 -49 -38h-160q-54 0 -54 54v475h-262v-478q0 -36 -29 -47q-7 -4 -22 -4h-160q-54 0 -54 54v1397q0 41 37 49z" />
    <glyph glyph-name="Theta" unicode="&#x398;" 
d="M347 1500h202q99 0 193 -78q47 -45 63 -78q40 -68 40 -173v-840q0 -119 -51 -192q-56 -88 -171 -126q-38 -13 -108 -13h-134q-119 0 -192 52q-88 55 -126 170q-13 39 -13 109v840q0 124 58 200q28 42 83 81q82 48 156 48zM316 1194v-887q0 -28 32 -40q4 -1 9 -1h181
q28 0 40 32q2 4 2 9v887q0 28 -32 40q-5 1 -10 1h-181q-28 0 -40 -31q-1 -5 -1 -10zM407 884h82q33 0 45 -31q2 -5 2 -13v-179q0 -29 -32 -41q-5 -2 -15 -2h-82q-33 0 -45 30q-3 5 -3 13v179q0 29 32 41q6 3 16 3z" />
    <glyph glyph-name="Iota" unicode="&#x399;" horiz-adv-x="483" 
d="M88 1500h189q26 0 38 -35v-1427q-8 -38 -49 -38h-162q-54 0 -54 54v1397q0 41 38 49z" />
    <glyph glyph-name="Kappa" unicode="&#x39a;" horiz-adv-x="1050" 
d="M93 1500h189q39 -7 39 -51v-536h1q325 567 332 574q14 13 25 13h217q21 0 35 -28q2 -5 2 -13v-5q0 -15 -27 -56q-354 -615 -363 -632v-1q392 -678 407 -707q1 -2 1 -6v-14q-8 -38 -49 -38h-191q-38 0 -52 33l-337 586h-1v-572q0 -35 -36 -46q-7 -1 -15 -1h-161
q-54 0 -54 54v1397q0 41 38 49z" />
    <glyph glyph-name="Lambda" unicode="&#x39b;" horiz-adv-x="1050" 
d="M0 44q4 21 336 1421q11 35 46 35h179q27 0 42 -24q6 -21 77 -317q262 -1105 262 -1111v-13q-11 -35 -40 -35h-194q-16 0 -33 22q-12 43 -202 852h-3q0 -3 -198 -841q-14 -33 -37 -33h-194q-34 0 -41 44z" />
    <glyph glyph-name="Mu" unicode="&#x39c;" horiz-adv-x="1350" 
d="M294 1500q28 0 48 -59q3 -4 281 -642h2q288 659 299 682q15 19 31 19h202q29 0 40 -35v-1427q-8 -38 -49 -38h-162q-54 0 -54 54v785h-1q-167 -385 -175 -400q-16 -17 -34 -17h-193q-35 0 -48 43q-162 366 -164 374h-1v-788q0 -36 -28 -47q-7 -4 -23 -4h-161
q-54 0 -54 54v1400q0 35 35 46h209z" />
    <glyph glyph-name="Nu" unicode="&#x39d;" horiz-adv-x="1100" 
d="M283 1500q29 0 47 -56q4 -4 336 -785h1v788q0 38 27 51q10 2 12 2h188q26 0 38 -35v-1427q-8 -38 -49 -38h-167q-40 0 -53 48q-6 12 -346 791h-1v-788q0 -36 -28 -47q-8 -4 -23 -4h-161q-54 0 -54 54v1400q0 35 35 46h198z" />
    <glyph glyph-name="Xi" unicode="&#x39e;" 
d="M88 1500h716q29 0 40 -35v-192q-8 -38 -49 -38h-694q-36 0 -47 29q-4 7 -4 22v165q0 41 38 49zM189 884h520q38 0 47 -38q1 -4 1 -11v-167q0 -35 -28 -47q-7 -3 -23 -3h-517q-36 0 -47 28q-4 7 -4 22v165q0 35 28 47q8 4 23 4zM101 266h696q38 0 47 -38v-190
q-8 -38 -49 -38h-694q-36 0 -47 28q-4 7 -4 23v164q0 36 28 47q7 4 23 4z" />
    <glyph glyph-name="Omicron" unicode="&#x39f;" 
d="M345 1500h203q111 0 211 -95q84 -98 84 -200v-909q0 -99 -78 -192q-45 -47 -78 -64q-68 -40 -173 -40h-134q-119 0 -192 52q-88 55 -126 170q-13 39 -13 109v840q0 124 58 200q28 42 83 81q82 48 155 48zM315 1194v-887q0 -28 32 -40q4 -1 9 -1h181q28 0 40 32q1 4 1 9
v887q0 28 -31 40q-5 1 -10 1h-181q-28 0 -40 -31q-1 -5 -1 -10z" />
    <glyph glyph-name="Pi" unicode="&#x3a0;" horiz-adv-x="1250" 
d="M68 1500h1071q26 0 38 -35v-192q-8 -38 -49 -38h-126v-1187q0 -32 -29 -44q-7 -4 -22 -4h-165q-35 0 -47 28q-3 7 -3 23v1184h-264v-1184q0 -36 -28 -47q-7 -4 -22 -4h-165q-35 0 -47 28q-4 7 -4 23v1184h-122q-54 0 -54 54v162q0 41 38 49z" />
    <glyph glyph-name="Rho" unicode="&#x3a1;" 
d="M96 1500h460q111 0 211 -95q84 -98 84 -200v-467q0 -99 -78 -193q-45 -47 -78 -64q-68 -40 -173 -40h-199v-387q0 -54 -54 -54h-161q-36 0 -47 28q-4 7 -4 23v1396q0 38 27 51q10 2 12 2zM323 1235v-528h222q28 0 40 32q1 4 1 9v446q0 28 -31 40q-5 1 -10 1h-222z" />
    <glyph glyph-name="Sigma" unicode="&#x3a3;" 
d="M89 1500h715q29 0 40 -35v-191q0 -25 -35 -38q-11 -1 -18 -1h-429v-1q214 -444 227 -473q1 -6 1 -12q0 -14 -38 -85l-190 -398h435q38 0 47 -38v-189q0 -25 -35 -38q-11 -1 -18 -1h-690q-36 0 -47 28q-4 7 -4 23v167q0 16 20 54l231 479l-250 518q-1 8 -1 13v165
q0 38 27 51q10 2 12 2z" />
    <glyph glyph-name="Tau" unicode="&#x3a4;" horiz-adv-x="900" 
d="M86 1500h718q26 0 38 -35v-192q-8 -38 -49 -38h-214v-1181q0 -54 -55 -54h-161q-35 0 -47 28q-3 7 -3 23v1184h-211q-54 0 -54 54v162q0 41 38 49z" />
    <glyph glyph-name="Upsilon" unicode="&#x3a5;" 
d="M47 1500h196q34 0 47 -55q6 -12 160 -432h2l173 467q16 20 32 20h201q23 0 37 -33v-14q0 -10 -40 -114q-271 -733 -271 -735v-557q0 -35 -35 -46q-8 -1 -15 -1h-168q-33 0 -46 32q-2 10 -2 28v543q-6 20 -266 723q-46 120 -46 130v2q8 42 41 42z" />
    <glyph glyph-name="Phi" unicode="&#x3a6;" horiz-adv-x="1350" 
d="M529 1500h187q29 0 40 -35q1 -6 1 -12v-147h111q124 0 200 -57q42 -29 81 -84q48 -82 48 -155v-519q0 -99 -78 -193q-45 -47 -78 -63q-68 -40 -173 -40h-111v-144q0 -36 -28 -47q-7 -4 -23 -4h-164q-36 0 -47 28q-4 7 -4 23v144h-110q-119 0 -192 51q-88 56 -126 171
q-13 38 -13 108v451q0 118 52 192q55 87 170 126q40 12 109 12h110v145q0 41 38 49zM316 999v-497q0 -28 32 -40q4 -1 9 -1h134v580h-134q-28 0 -40 -32q-1 -5 -1 -10zM757 1041v-580h134q28 0 40 31q1 5 1 10v497q0 29 -31 40q-5 2 -10 2h-134z" />
    <glyph glyph-name="Chi" unicode="&#x3a7;" horiz-adv-x="950" 
d="M48 1500h200q30 0 46 -59q1 -1 109 -301h1q118 328 125 341q16 19 30 19h198q29 0 40 -35v-16q-1 -8 -253 -698q233 -639 253 -699v-13q0 -26 -35 -38q-8 -1 -16 -1h-177q-35 0 -47 35l-118 326h-1q-118 -327 -125 -341q-13 -20 -43 -20h-175q-37 0 -49 31q-2 11 -2 14
q0 10 35 103l219 603q-238 651 -253 698q0 1 -1 7q0 34 39 44z" />
    <glyph glyph-name="Psi" unicode="&#x3a8;" horiz-adv-x="1550" 
d="M88 1500h189q38 -8 38 -49v-879q0 -28 32 -40q4 -1 9 -1h223v916q0 38 27 51q9 2 11 2h186q30 0 40 -35q2 -6 2 -12v-922h222q28 0 40 31q1 5 1 10v879q0 41 38 49h189q26 0 38 -35v-904q0 -99 -78 -193q-45 -47 -79 -63q-67 -40 -173 -40h-198v-211q0 -54 -55 -54h-161
q-35 0 -47 28q-3 7 -3 23v214h-199q-119 0 -192 51q-88 56 -126 171q-13 38 -13 108v852q0 38 27 51q10 2 12 2z" />
    <glyph glyph-name="Omega" unicode="&#x3a9;" horiz-adv-x="1600" 
d="M735 1500h43q167 0 343 -100q214 -132 303 -373q38 -119 38 -211v-40q0 -175 -105 -354q-31 -53 -109 -135q-20 -17 -23 -21h190q38 0 47 -38v-190q-8 -38 -49 -38h-518q-36 0 -47 28q-4 7 -4 23v274q0 33 31 44q138 41 227 150q95 128 95 267v15q0 177 -137 314
q-133 120 -297 120h-13q-177 0 -314 -137q-120 -133 -120 -297v-15q0 -147 105 -278q70 -74 102 -87q31 -22 92 -45q32 -7 43 -20q11 -12 11 -35v-270q0 -36 -28 -47q-7 -4 -23 -4h-517q-36 0 -47 28q-4 7 -4 23v164q0 36 28 47q7 4 23 4h187q-101 99 -131 156
q-107 174 -107 372q0 279 202 495q100 94 160 122q50 29 122 54q110 35 201 35z" />
    <glyph glyph-name="Iotadieresis" unicode="&#x3aa;" horiz-adv-x="483" 
d="M89 1500h189q26 0 38 -35v-1427q-8 -38 -49 -38h-162q-54 0 -54 54v1397q0 41 38 49zM-123 1969h167q41 0 50 -35q1 -2 1 -9v-178q0 -30 -34 -43q-10 -1 -17 -1h-167q-35 0 -47 35v189q0 27 32 40q5 2 15 2zM318 1969h167q41 0 50 -35q1 -2 1 -9v-178q0 -30 -34 -43
q-10 -1 -17 -1h-167q-35 0 -47 35v189q0 27 32 40q5 2 15 2z" />
    <glyph glyph-name="Upsilondieresis" unicode="&#x3ab;" 
d="M47 1500h196q34 0 47 -55q6 -12 160 -432h2l173 467q16 20 32 20h201q23 0 37 -33v-14q0 -10 -40 -114q-271 -733 -271 -735v-557q0 -35 -35 -46q-8 -1 -15 -1h-168q-33 0 -46 32q-2 10 -2 28v543q-6 20 -266 723q-46 120 -46 130v2q8 42 41 42zM155 1969h167
q41 0 50 -35q1 -2 1 -9v-178q0 -30 -34 -43q-10 -1 -17 -1h-167q-35 0 -47 35v189q0 27 32 40q5 2 15 2zM596 1969h167q41 0 50 -35q1 -2 1 -9v-178q0 -30 -34 -43q-10 -1 -17 -1h-167q-35 0 -47 35v189q0 27 32 40q5 2 15 2z" />
    <glyph glyph-name="alphatonos" unicode="&#x3ac;" horiz-adv-x="1250" 
d="M382 1236h131q113 0 182 -43q27 -13 77 -65q20 -26 20 -28h3q29 122 37 122q14 14 35 14h173q34 0 46 -24q5 -8 5 -18v-5q-1 -12 -152 -570q151 -559 153 -574q0 -34 -41 -45h-184q-44 0 -51 58q-19 66 -21 80q-63 -90 -170 -125q-40 -13 -112 -13h-131q-119 0 -192 52
q-88 55 -126 170q-13 39 -13 109v575q0 118 52 192q55 87 170 126q40 12 109 12zM317 929v-622q0 -28 32 -40q4 -1 9 -1h181q38 0 46 58q6 18 80 295q-85 317 -90 332q-16 20 -36 20h-181q-28 0 -40 -32q-1 -5 -1 -10zM781 1891q35 -12 35 -42q-1 -14 -99 -372
q-11 -27 -47 -27h-173q-11 0 -19 4q-28 14 -28 36v9q0 3 95 358q11 35 47 35h173q8 0 16 -1z" />
    <glyph glyph-name="epsilontonos" unicode="&#x3ad;" 
d="M724 1178q121 -102 121 -246q0 -2 -3 -14q-11 -31 -49 -31h-167q-8 0 -16 3q-32 12 -32 54q-12 32 -40 32h-186q-36 -13 -36 -39v-148q0 -15 14 -27q4 -13 56 -13h67q39 -10 39 -42v-181q0 -8 -4 -17q-12 -26 -49 -26h-74l-14 2q-35 -14 -35 -39v-145q0 -19 14 -30
q4 -13 56 -13h122q33 0 45 4q17 9 25 27q0 59 55 59h153q16 0 26 -3q33 -13 33 -41q0 -93 -53 -174q-99 -136 -262 -136h-161q-58 0 -107 15q-124 46 -179 156q-33 57 -33 169v80q0 105 32 162q15 30 23 39v1q-15 27 -24 45q-31 55 -31 163v81q0 69 8 93q10 66 75 146
q101 96 213 96h202q86 0 176 -62zM656 1891q35 -12 35 -42q-1 -14 -99 -372q-11 -27 -47 -27h-173q-11 0 -19 4q-28 14 -28 36v9q0 3 95 358q11 35 47 35h173q8 0 16 -1z" />
    <glyph glyph-name="etatonos" unicode="&#x3ae;" horiz-adv-x="1026" 
d="M103 1236h167q15 0 27 -7q32 7 86 7h134q118 0 191 -51q88 -56 126 -171q13 -40 13 -108v-1102q0 -54 -54 -54h-163q-32 0 -45 28q-4 7 -4 23v1128q0 29 -31 40q-5 2 -10 2h-181q-28 0 -40 -32q-1 -5 -1 -10v-881q0 -38 -38 -47q-4 -1 -10 -1h-170q-32 0 -44 28
q-4 7 -4 23v1135q0 35 28 47q7 3 23 3zM659 1891q35 -12 35 -42q-1 -14 -99 -372q-11 -27 -47 -27h-173q-11 0 -19 4q-28 14 -28 36v9q0 3 95 358q11 35 47 35h173q8 0 16 -1z" />
    <glyph glyph-name="iotatonos" unicode="&#x3af;" horiz-adv-x="500" 
d="M104 1243h165q38 0 47 -38v-1166q0 -25 -35 -38q-11 -1 -18 -1h-162q-36 0 -47 28q-4 8 -4 23v1137q0 55 54 55zM392 1891q35 -12 35 -42q-1 -14 -99 -372q-11 -27 -47 -27h-173q-11 0 -19 4q-28 14 -28 36v9q0 3 95 358q11 35 47 35h173q8 0 16 -1z" />
    <glyph glyph-name="alpha" unicode="&#x3b1;" horiz-adv-x="1250" 
d="M382 1236h131q113 0 182 -43q27 -13 77 -65q20 -26 20 -28h3q29 122 37 122q14 14 35 14h173q34 0 46 -24q5 -8 5 -18v-5q-1 -12 -152 -570q151 -559 153 -574q0 -34 -41 -45h-184q-44 0 -51 58q-19 66 -21 80q-63 -90 -170 -125q-40 -13 -112 -13h-131q-119 0 -192 52
q-88 55 -126 170q-13 39 -13 109v575q0 118 52 192q55 87 170 126q40 12 109 12zM317 929v-622q0 -28 32 -40q4 -1 9 -1h181q38 0 46 58q6 18 80 295q-85 317 -90 332q-16 20 -36 20h-181q-28 0 -40 -32q-1 -5 -1 -10z" />
    <glyph glyph-name="beta" unicode="&#x3b2;" horiz-adv-x="1026" 
d="M356 1500h203q111 0 211 -95q84 -98 84 -200v-379q0 -79 -54 -164q54 -84 54 -163v-203q0 -111 -95 -211q-78 -67 -160 -80q-30 -5 -78 -5h-54q-54 0 -54 54v161q0 36 28 47q7 4 22 4h85q28 0 40 32q1 4 1 9v181q0 28 -31 40q-5 1 -10 1h-81q-54 0 -54 55v161q0 35 28 47
q7 3 22 3h85q28 0 40 32q1 5 1 9v358q0 28 -31 40q-5 1 -10 1h-181q-28 0 -40 -31q-1 -5 -1 -10v-1440q0 -54 -54 -54h-161q-36 0 -47 28q-4 7 -4 23v1420q0 124 58 200q28 42 83 81q82 48 155 48z" />
    <glyph glyph-name="gamma" unicode="&#x3b3;" 
d="M61 1240h196q34 0 47 -55q6 -12 160 -432h2l173 467q16 20 32 20h201q23 0 37 -33v-14q0 -10 -40 -114q-271 -733 -271 -735v-297q0 -35 -35 -46q-8 -1 -15 -1h-168q-33 0 -46 32q-2 10 -2 28v283q-6 20 -266 723q-46 120 -46 130v2q8 42 41 42z" />
    <glyph glyph-name="delta" unicode="&#x3b4;" 
d="M98 1235h690q38 0 51 -27q2 -10 2 -12v-190q-8 -37 -49 -37h-329q260 -246 289 -266q89 -99 89 -206v-201q0 -99 -78 -192q-45 -47 -78 -64q-68 -40 -173 -40h-134q-119 0 -192 52q-88 55 -126 170q-13 39 -13 109v132q0 116 49 188q58 90 163 126q8 4 15 5l-219 206
q-8 13 -8 28v168q0 35 28 47q7 4 23 4zM313 486v-179q0 -28 32 -40q4 -1 9 -1h181q28 0 40 32q1 4 1 9v179q0 29 -31 40q-5 2 -10 2h-181q-28 0 -40 -32q-1 -5 -1 -10z" />
    <glyph glyph-name="epsilon" unicode="&#x3b5;" 
d="M724 1178q121 -102 121 -246q0 -2 -3 -14q-11 -31 -49 -31h-167q-8 0 -16 3q-32 12 -32 54q-12 32 -40 32h-186q-36 -13 -36 -39v-148q0 -15 14 -27q4 -13 56 -13h67q39 -10 39 -42v-181q0 -8 -4 -17q-12 -26 -49 -26h-74l-14 2q-35 -14 -35 -39v-145q0 -19 14 -30
q4 -13 56 -13h122q33 0 45 4q17 9 25 27q0 59 55 59h153q16 0 26 -3q33 -13 33 -41q0 -93 -53 -174q-99 -136 -262 -136h-161q-58 0 -107 15q-124 46 -179 156q-33 57 -33 169v80q0 105 32 162q15 30 23 39v1q-15 27 -24 45q-31 55 -31 163v81q0 69 8 93q10 66 75 146
q101 96 213 96h202q86 0 176 -62z" />
    <glyph glyph-name="zeta" unicode="&#x3b6;" horiz-adv-x="950" 
d="M102 1236h694q35 0 47 -28q3 -7 3 -19v-171q0 -28 -26 -45q-421 -397 -496 -461q-7 -14 -7 -24v-181q0 -28 32 -40q4 -1 9 -1h438q35 0 47 -28q3 -8 3 -19v-172q0 -35 -35 -46q-8 -1 -15 -1h-414q-119 0 -192 52q-88 55 -126 170q-13 40 -13 109v134q0 128 61 204
q0 7 90 87q228 214 228 215h-328q-36 0 -47 28q-4 7 -4 22v165q0 35 28 47q7 3 23 3z" />
    <glyph glyph-name="eta" unicode="&#x3b7;" horiz-adv-x="1026" 
d="M103 1236h167q15 0 27 -7q32 7 86 7h134q118 0 191 -51q88 -56 126 -171q13 -40 13 -108v-1102q0 -54 -54 -54h-163q-32 0 -45 28q-4 7 -4 23v1128q0 29 -31 40q-5 2 -10 2h-181q-28 0 -40 -32q-1 -5 -1 -10v-881q0 -38 -38 -47q-4 -1 -10 -1h-170q-32 0 -44 28
q-4 7 -4 23v1135q0 35 28 47q7 3 23 3z" />
    <glyph glyph-name="theta" unicode="&#x3b8;" 
d="M386 1236h134q124 0 200 -57q42 -29 81 -84q48 -82 48 -155v-644q0 -99 -77 -192q-46 -47 -79 -64q-67 -40 -173 -40h-134q-119 0 -192 52q-88 55 -126 170q-13 39 -13 109v575q0 118 52 192q55 87 170 126q40 12 109 12zM321 929v-622q0 -28 32 -40q4 -1 9 -1h181
q28 0 40 32q2 4 2 9v622q0 29 -32 40q-5 2 -10 2h-181q-28 0 -40 -32q-1 -5 -1 -10zM499 751q30 0 42 -37v-186q0 -31 -37 -42h-97q-31 0 -43 36v186q0 31 37 43h98z" />
    <glyph glyph-name="iota" unicode="&#x3b9;" horiz-adv-x="500" 
d="M104 1243h165q38 0 47 -38v-1166q0 -25 -35 -38q-11 -1 -18 -1h-162q-36 0 -47 28q-4 8 -4 23v1137q0 55 54 55z" />
    <glyph glyph-name="kappa" unicode="&#x3ba;" horiz-adv-x="1100" 
d="M87 1240h190q38 -8 38 -49v-233q74 -99 76 -104q10 9 220 277q72 90 82 98q9 7 22 7h233q25 0 37 -32q2 -5 2 -10v-2q0 -21 -37 -60q-5 -7 -393 -497v-1l425 -569q5 -9 5 -19v-2q0 -30 -35 -43q-12 -1 -18 -1h-220q-34 0 -56 42q-5 6 -342 466v1h-1v-458q0 -42 -38 -50
q-4 -1 -10 -1h-170q-32 0 -44 28q-4 7 -4 23v1140q0 41 38 49z" />
    <glyph glyph-name="lambda" unicode="&#x3bb;" horiz-adv-x="1200" 
d="M537 1500q31 0 46 -58q13 -32 356 -945q166 -437 167 -445v-11q0 -29 -35 -40q-6 -1 -14 -1h-179q-45 0 -54 46q-20 49 -269 715h-3q-249 -668 -279 -742q-15 -19 -44 -19h-178q-37 0 -49 31q-2 11 -2 14q0 10 40 113q370 983 370 985q-111 296 -115 310v5q0 30 35 42
h207z" />
    <glyph glyph-name="mu" unicode="&#x3bc;" 
d="M94 1500h190q38 -8 38 -49v-703q0 -28 32 -40q4 -1 9 -1h181q28 0 40 32q1 4 1 9v703q0 41 38 49h189q26 0 38 -35v-727q0 -99 -78 -193q-45 -47 -78 -64q-68 -40 -173 -40h-134q-41 0 -65 4v-394q0 -36 -28 -47q-8 -4 -23 -4h-164q-36 0 -47 28q-4 7 -4 23v1400
q0 41 38 49z" />
    <glyph glyph-name="nu" unicode="&#x3bd;" horiz-adv-x="1024" 
d="M77 1236h175q30 0 43 -27q4 -7 168 -706h3l157 668q10 47 25 57q15 8 29 8h178q32 0 45 -28q2 -5 2 -13v-8q0 -4 -266 -1123q-9 -50 -26 -56q-9 -8 -30 -8h-231q-35 0 -47 28q-276 1155 -276 1163q0 32 35 44q8 1 16 1z" />
    <glyph glyph-name="xi" unicode="&#x3be;" 
d="M378 1236h411q37 0 50 -27q3 -9 3 -11v-190q-8 -37 -50 -37h-437q-28 0 -40 -32q-1 -5 -1 -10v-93q0 -28 32 -40q4 -1 9 -1h169q54 0 54 -54v-161q0 -35 -28 -47q-7 -4 -22 -4h-173q-28 0 -40 -31q-1 -5 -1 -10v-181q0 -28 32 -40q4 -1 9 -1h434q37 0 50 -27q3 -10 3 -12
v-189q-8 -38 -50 -38h-414q-118 0 -191 52q-88 55 -126 170q-13 39 -13 109v134q0 122 55 196v1q-39 62 -47 110q-8 26 -8 88v46q0 118 52 192q55 87 170 126q40 12 108 12z" />
    <glyph glyph-name="omicron" unicode="&#x3bf;" horiz-adv-x="1024" 
d="M399 1236h134q124 0 200 -57q42 -29 81 -84q48 -82 48 -155v-644q0 -111 -95 -211q-78 -67 -160 -80q-29 -5 -78 -5h-127q-122 0 -188 48q-91 55 -130 164q-16 42 -16 119v575q0 118 52 192q55 87 170 126q40 12 109 12zM334 929v-622q0 -28 32 -40q4 -1 9 -1h181
q28 0 40 32q1 4 1 9v622q0 29 -31 40q-5 2 -10 2h-181q-28 0 -40 -32q-1 -5 -1 -10z" />
    <glyph glyph-name="pi" unicode="&#x3c0;" horiz-adv-x="1200" 
d="M58 1235h1071q26 0 38 -35v-192q-8 -38 -49 -38h-126v-922q0 -32 -29 -44q-7 -4 -22 -4h-165q-35 0 -47 28q-3 7 -3 23v919h-264v-919q0 -36 -28 -47q-7 -4 -22 -4h-165q-35 0 -47 28q-4 7 -4 23v919h-122q-54 0 -54 54v162q0 41 38 49z" />
    <glyph glyph-name="rho" unicode="&#x3c1;" 
d="M380 1236h134q118 0 191 -51q88 -56 126 -171q13 -40 13 -108v-399q0 -118 -51 -192q-56 -87 -171 -126q-39 -13 -108 -13h-134q-41 0 -65 4v-129q0 -36 -28 -47q-7 -4 -23 -4h-164q-36 0 -47 28q-4 7 -4 23v855q0 118 52 192q55 87 170 126q40 12 109 12zM315 929v-445
q0 -29 32 -40q4 -2 9 -2h181q28 0 40 32q1 5 1 10v445q0 29 -31 40q-5 2 -10 2h-181q-28 0 -40 -32q-1 -5 -1 -10z" />
    <glyph glyph-name="sigma1" unicode="&#x3c2;" 
d="M380 1236h134q116 0 188 -49q90 -58 127 -165q15 -51 15 -94q0 -36 -40 -44q-3 -2 -14 -2h-161q-37 0 -48 31q-5 45 -16 45q-10 13 -28 13h-181q-28 0 -40 -32q-1 -5 -1 -10v-269q0 -28 32 -40q4 -1 9 -1h158q130 0 207 -64q77 -52 113 -167q10 -43 10 -79
q0 -143 -121 -245q-65 -43 -79 -43q-44 -21 -130 -21h-61q-36 0 -48 28q-3 7 -3 23v164q0 36 28 47q7 4 23 4h84q28 0 40 32q1 4 1 9v5q0 28 -31 40q-5 1 -10 1h-157q-119 0 -192 52q-88 55 -126 170q-13 39 -13 109v222q0 118 52 192q55 87 170 126q40 12 109 12z" />
    <glyph glyph-name="sigma" unicode="&#x3c3;" horiz-adv-x="1150" 
d="M381 1236h590q36 0 47 -28q4 -7 4 -22v-165q0 -35 -28 -47q-8 -3 -23 -3h-129q3 -25 3 -65v-575q0 -119 -51 -192q-56 -88 -171 -126q-39 -13 -108 -13h-134q-119 0 -192 52q-88 55 -126 170q-13 39 -13 109v575q0 118 52 192q55 87 170 126q40 12 109 12zM316 929v-622
q0 -28 32 -40q4 -1 9 -1h181q28 0 40 32q1 4 1 9v622q0 29 -31 40q-5 2 -10 2h-181q-28 0 -40 -32q-1 -5 -1 -10z" />
    </font>
</defs>
</svg>
